<svg width="505" height="1384" viewBox="0 0 505 1384" fill="none" xmlns="http://www.w3.org/2000/svg">
<path d="M0.824974 1300.84L18.2392 1309.13L0.926094 1320.4L0.824974 1300.84Z" fill="#E41968"/>
<path d="M0.82972 1268.7L18.244 1276.98L0.93084 1288.25L0.82972 1268.7Z" fill="#E41968"/>
<path d="M0.827347 1236.55L18.2416 1244.84L0.928467 1256.1L0.827347 1236.55Z" fill="#E41968"/>
<path d="M0.827347 1204.4L18.2416 1212.69L0.928467 1223.96L0.827347 1204.4Z" fill="#E41968"/>
<path d="M0.824974 1172.25L18.2392 1180.54L0.926094 1191.81L0.824974 1172.25Z" fill="#E41968"/>
<path d="M0.82972 1140.11L18.244 1148.39L0.93084 1159.66L0.82972 1140.11Z" fill="#E41968"/>
<path d="M0.824975 1107.96L18.2392 1116.25L0.926094 1127.51L0.824975 1107.96Z" fill="#E41968"/>
<path d="M0.810738 1075.81L18.225 1084.1L0.911858 1095.37L0.810738 1075.81Z" fill="#E41968"/>
<path d="M0.820229 1043.66L18.2345 1051.95L0.921349 1063.22L0.820229 1043.66Z" fill="#E41968"/>
<path d="M0.815484 1011.52L18.2297 1019.81L0.916603 1031.08L0.815484 1011.52Z" fill="#E41968"/>
<path d="M0.813111 979.37L18.2274 987.658L0.91423 998.925L0.813111 979.37Z" fill="#E41968"/>
<path d="M0.813111 947.224L18.2274 955.511L0.91423 966.779L0.813111 947.224Z" fill="#E41968"/>
<path d="M0.817856 915.076L18.2321 923.364L0.918976 934.632L0.817856 915.076Z" fill="#E41968"/>
<path d="M0.810738 882.932L18.225 891.22L0.911858 902.488L0.810738 882.932Z" fill="#E41968"/>
<path d="M0.810738 850.785L18.225 859.073L0.911858 870.341L0.810738 850.785Z" fill="#E41968"/>
<path d="M0.810738 818.634L18.225 826.922L0.911858 838.19L0.810738 818.634Z" fill="#E41968"/>
<path d="M0.813111 786.488L18.2274 794.776L0.91423 806.044L0.813111 786.488Z" fill="#E41968"/>
<path d="M0.805992 754.344L18.2202 762.632L0.907112 773.9L0.805992 754.344Z" fill="#E41968"/>
<path d="M0.810738 722.196L18.225 730.483L0.911858 741.751L0.810738 722.196Z" fill="#E41968"/>
<path d="M0.80362 690.046L18.2179 698.334L0.904739 709.602L0.80362 690.046Z" fill="#E41968"/>
<path d="M0.798874 657.901L18.2131 666.189L0.899994 677.457L0.798874 657.901Z" fill="#E41968"/>
<path d="M0.798874 625.753L18.2131 634.041L0.899994 645.309L0.798874 625.753Z" fill="#E41968"/>
<path d="M0.796501 593.606L18.2107 601.894L0.897621 613.162L0.796501 593.606Z" fill="#E41968"/>
<path d="M0.791756 561.465L18.206 569.753L0.892876 581.021L0.791756 561.465Z" fill="#E41968"/>
<path d="M0.796502 529.314L18.2107 537.602L0.897621 548.87L0.796502 529.314Z" fill="#E41968"/>
<path d="M0.798874 497.168L18.2131 505.455L0.899994 516.723L0.798874 497.168Z" fill="#E41968"/>
<path d="M0.796501 465.019L18.2107 473.307L0.897621 484.575L0.796501 465.019Z" fill="#E41968"/>
<path d="M0.78701 432.876L18.2013 441.164L0.88813 452.432L0.78701 432.876Z" fill="#E41968"/>
<path d="M0.789383 400.727L18.2036 409.015L0.890503 420.283L0.789383 400.727Z" fill="#E41968"/>
<path d="M0.784638 368.584L18.1989 376.872L0.885757 388.14L0.784638 368.584Z" fill="#E41968"/>
<path d="M0.782265 336.436L18.1965 344.723L0.883385 355.991L0.782265 336.436Z" fill="#E41968"/>
<path d="M0.78701 304.285L18.2013 312.572L0.88813 323.84L0.78701 304.285Z" fill="#E41968"/>
<path d="M0.78701 272.142L18.2013 280.43L0.88813 291.698L0.78701 272.142Z" fill="#E41968"/>
<path d="M0.784638 239.992L18.1989 248.28L0.885757 259.548L0.784638 239.992Z" fill="#E41968"/>
<path d="M0.784638 207.846L18.1989 216.134L0.885757 227.402L0.784638 207.846Z" fill="#E41968"/>
<path d="M0.789383 175.696L18.2036 183.984L0.890503 195.252L0.789383 175.696Z" fill="#E41968"/>
<path d="M0.775146 143.557L18.1894 151.845L0.876266 163.113L0.775146 143.557Z" fill="#E41968"/>
<path d="M0.775146 111.408L18.1894 119.695L0.876266 130.963L0.775146 111.408Z" fill="#E41968"/>
<path d="M0.779892 79.2579L18.1941 87.5457L0.881012 98.8137L0.779892 79.2579Z" fill="#E41968"/>
<path d="M0.777519 47.1118L18.1918 55.3995L0.878639 66.6676L0.777519 47.1118Z" fill="#E41968"/>
<path d="M34.4344 1314.83L50.7 1322.59L34.529 1333.14L34.4344 1314.83Z" fill="#E41968"/>
<path d="M34.4273 1282.68L50.6929 1290.44L34.5219 1300.99L34.4273 1282.68Z" fill="#E41968"/>
<path d="M34.432 1250.53L50.6976 1258.29L34.5267 1268.84L34.432 1250.53Z" fill="#E41968"/>
<path d="M34.4202 1218.38L50.6857 1226.14L34.5148 1236.69L34.4202 1218.38Z" fill="#E41968"/>
<path d="M34.4154 1186.24L50.681 1194L34.5101 1204.55L34.4154 1186.24Z" fill="#E41968"/>
<path d="M34.4202 1154.09L50.6857 1161.86L34.5148 1172.4L34.4202 1154.09Z" fill="#E41968"/>
<path d="M34.413 1121.94L50.6786 1129.71L34.5077 1140.25L34.413 1121.94Z" fill="#E41968"/>
<path d="M34.4225 1089.8L50.6881 1097.56L34.5172 1108.11L34.4225 1089.8Z" fill="#E41968"/>
<path d="M34.4178 1057.65L50.6834 1065.41L34.5124 1075.96L34.4178 1057.65Z" fill="#E41968"/>
<path d="M34.4083 1025.5L50.6739 1033.26L34.5029 1043.81L34.4083 1025.5Z" fill="#E41968"/>
<path d="M34.413 993.356L50.6786 1001.12L34.5077 1011.66L34.413 993.356Z" fill="#E41968"/>
<path d="M34.413 961.214L50.6786 968.975L34.5077 979.519L34.413 961.214Z" fill="#E41968"/>
<path d="M34.4202 929.064L50.6857 936.825L34.5148 947.37L34.4202 929.064Z" fill="#E41968"/>
<path d="M34.4154 896.92L50.681 904.681L34.5101 915.226L34.4154 896.92Z" fill="#E41968"/>
<path d="M34.4035 864.773L50.6691 872.534L34.4982 883.078L34.4035 864.773Z" fill="#E41968"/>
<path d="M34.413 832.622L50.6786 840.383L34.5077 850.927L34.413 832.622Z" fill="#E41968"/>
<path d="M34.4083 800.476L50.6739 808.237L34.5029 818.781L34.4083 800.476Z" fill="#E41968"/>
<path d="M34.4012 768.326L50.6668 776.087L34.4958 786.632L34.4012 768.326Z" fill="#E41968"/>
<path d="M34.4012 736.185L50.6668 743.945L34.4958 754.49L34.4012 736.185Z" fill="#E41968"/>
<path d="M34.3988 704.035L50.6644 711.796L34.4935 722.34L34.3988 704.035Z" fill="#E41968"/>
<path d="M34.4012 671.884L50.6668 679.645L34.4958 690.189L34.4012 671.884Z" fill="#E41968"/>
<path d="M34.3917 639.741L50.6573 647.502L34.4863 658.047L34.3917 639.741Z" fill="#E41968"/>
<path d="M34.3964 607.596L50.662 615.357L34.4911 625.902L34.3964 607.596Z" fill="#E41968"/>
<path d="M34.3941 575.449L50.6596 583.21L34.4887 593.755L34.3941 575.449Z" fill="#E41968"/>
<path d="M34.3893 543.3L50.6549 551.061L34.484 561.606L34.3893 543.3Z" fill="#E41968"/>
<path d="M34.3988 511.153L50.6644 518.914L34.4935 529.459L34.3988 511.153Z" fill="#E41968"/>
<path d="M34.3917 479.008L50.6573 486.769L34.4863 497.314L34.3917 479.008Z" fill="#E41968"/>
<path d="M34.3869 446.858L50.6525 454.619L34.4816 465.164L34.3869 446.858Z" fill="#E41968"/>
<path d="M34.3917 414.716L50.6573 422.477L34.4863 433.021L34.3917 414.716Z" fill="#E41968"/>
<path d="M34.3822 382.568L50.6478 390.329L34.4768 400.874L34.3822 382.568Z" fill="#E41968"/>
<path d="M34.3822 350.419L50.6478 358.18L34.4768 368.724L34.3822 350.419Z" fill="#E41968"/>
<path d="M34.3822 318.27L50.6478 326.031L34.4768 336.576L34.3822 318.27Z" fill="#E41968"/>
<path d="M34.3846 286.126L50.6501 293.887L34.4792 304.432L34.3846 286.126Z" fill="#E41968"/>
<path d="M34.3846 253.981L50.6501 261.742L34.4792 272.287L34.3846 253.981Z" fill="#E41968"/>
<path d="M34.3798 221.831L50.6454 229.593L34.4745 240.137L34.3798 221.831Z" fill="#E41968"/>
<path d="M34.3869 189.685L50.6525 197.446L34.4816 207.991L34.3869 189.685Z" fill="#E41968"/>
<path d="M34.3822 157.539L50.6478 165.3L34.4768 175.845L34.3822 157.539Z" fill="#E41968"/>
<path d="M34.3751 125.391L50.6407 133.152L34.4697 143.696L34.3751 125.391Z" fill="#E41968"/>
<path d="M34.3798 93.2468L50.6454 101.008L34.4745 111.552L34.3798 93.2468Z" fill="#E41968"/>
<path d="M34.3727 61.1007L50.6383 68.8617L34.4674 79.4063L34.3727 61.1007Z" fill="#E41968"/>
<path d="M34.3703 28.9499L50.6359 36.7108L34.465 47.2554L34.3703 28.9499Z" fill="#E41968"/>
<path d="M67.9845 1328.82L83.1473 1336.05L68.0727 1345.87L67.9845 1328.82Z" fill="#E41968"/>
<path d="M67.9774 1296.67L83.1402 1303.9L68.0656 1313.73L67.9774 1296.67Z" fill="#E41968"/>
<path d="M67.9774 1264.53L83.1402 1271.76L68.0656 1281.58L67.9774 1264.53Z" fill="#E41968"/>
<path d="M67.975 1232.38L83.1378 1239.61L68.0632 1249.43L67.975 1232.38Z" fill="#E41968"/>
<path d="M67.9726 1200.23L83.1354 1207.46L68.0608 1217.28L67.9726 1200.23Z" fill="#E41968"/>
<path d="M67.9679 1168.08L83.1307 1175.31L68.0561 1185.14L67.9679 1168.08Z" fill="#E41968"/>
<path d="M67.9726 1135.94L83.1354 1143.17L68.0608 1152.99L67.9726 1135.94Z" fill="#E41968"/>
<path d="M67.9703 1103.79L83.133 1111.02L68.0584 1120.84L67.9703 1103.79Z" fill="#E41968"/>
<path d="M67.9798 1071.65L83.1425 1078.88L68.0679 1088.7L67.9798 1071.65Z" fill="#E41968"/>
<path d="M67.9703 1039.5L83.133 1046.73L68.0584 1056.55L67.9703 1039.5Z" fill="#E41968"/>
<path d="M67.9631 1007.35L83.1259 1014.58L68.0513 1024.41L67.9631 1007.35Z" fill="#E41968"/>
<path d="M67.9726 975.198L83.1354 982.428L68.0608 992.253L67.9726 975.198Z" fill="#E41968"/>
<path d="M67.9679 943.059L83.1307 950.289L68.0561 960.114L67.9679 943.059Z" fill="#E41968"/>
<path d="M67.9584 910.908L83.1212 918.138L68.0466 927.963L67.9584 910.908Z" fill="#E41968"/>
<path d="M67.9631 878.763L83.1259 885.993L68.0513 895.818L67.9631 878.763Z" fill="#E41968"/>
<path d="M67.9631 846.612L83.1259 853.842L68.0513 863.667L67.9631 846.612Z" fill="#E41968"/>
<path d="M67.9608 814.466L83.1236 821.696L68.049 831.521L67.9608 814.466Z" fill="#E41968"/>
<path d="M67.9608 782.322L83.1236 789.552L68.049 799.377L67.9608 782.322Z" fill="#E41968"/>
<path d="M67.9513 750.173L83.1141 757.404L68.0395 767.229L67.9513 750.173Z" fill="#E41968"/>
<path d="M67.9537 718.025L83.1164 725.255L68.0418 735.08L67.9537 718.025Z" fill="#E41968"/>
<path d="M67.9537 685.879L83.1164 693.109L68.0418 702.934L67.9537 685.879Z" fill="#E41968"/>
<path d="M67.956 653.731L83.1188 660.962L68.0442 670.787L67.956 653.731Z" fill="#E41968"/>
<path d="M67.9513 621.589L83.1141 628.819L68.0395 638.644L67.9513 621.589Z" fill="#E41968"/>
<path d="M67.9489 589.441L83.1117 596.672L68.0371 606.497L67.9489 589.441Z" fill="#E41968"/>
<path d="M67.9465 557.295L83.1093 564.525L68.0347 574.351L67.9465 557.295Z" fill="#E41968"/>
<path d="M67.9465 525.144L83.1093 532.375L68.0347 542.2L67.9465 525.144Z" fill="#E41968"/>
<path d="M67.9513 492.995L83.1141 500.225L68.0395 510.05L67.9513 492.995Z" fill="#E41968"/>
<path d="M67.9442 460.853L83.1069 468.083L68.0323 477.909L67.9442 460.853Z" fill="#E41968"/>
<path d="M67.9394 428.707L83.1022 435.937L68.0276 445.762L67.9394 428.707Z" fill="#E41968"/>
<path d="M67.9442 396.563L83.1069 403.793L68.0323 413.619L67.9442 396.563Z" fill="#E41968"/>
<path d="M67.937 364.41L83.0998 371.64L68.0252 381.465L67.937 364.41Z" fill="#E41968"/>
<path d="M67.9465 332.264L83.1093 339.494L68.0347 349.319L67.9465 332.264Z" fill="#E41968"/>
<path d="M67.9465 300.117L83.1093 307.348L68.0347 317.173L67.9465 300.117Z" fill="#E41968"/>
<path d="M67.9323 267.969L83.0951 275.199L68.0205 285.024L67.9323 267.969Z" fill="#E41968"/>
<path d="M67.937 235.823L83.0998 243.053L68.0252 252.878L67.937 235.823Z" fill="#E41968"/>
<path d="M67.937 203.677L83.0998 210.907L68.0252 220.732L67.937 203.677Z" fill="#E41968"/>
<path d="M67.9394 171.533L83.1022 178.763L68.0276 188.588L67.9394 171.533Z" fill="#E41968"/>
<path d="M67.9347 139.384L83.0975 146.615L68.0229 156.44L67.9347 139.384Z" fill="#E41968"/>
<path d="M67.9299 107.238L83.0927 114.468L68.0181 124.294L67.9299 107.238Z" fill="#E41968"/>
<path d="M67.9276 75.0873L83.0903 82.3175L68.0157 92.1427L67.9276 75.0873Z" fill="#E41968"/>
<path d="M67.9228 42.9374L83.0856 50.1677L68.011 59.993L67.9228 42.9374Z" fill="#E41968"/>
<path d="M101.537 1310.71L115.597 1317.36L101.619 1326.47L101.537 1310.71Z" fill="#E41968"/>
<path d="M101.54 1278.56L115.6 1285.21L101.621 1294.28L101.54 1278.56Z" fill="#E41968"/>
<path d="M101.53 1246.41L115.59 1253.07L101.612 1262.13L101.53 1246.41Z" fill="#E41968"/>
<path d="M101.53 1214.27L115.59 1220.93L101.612 1229.99L101.53 1214.27Z" fill="#E41968"/>
<path d="M101.528 1182.12L115.588 1188.78L101.609 1197.84L101.528 1182.12Z" fill="#E41968"/>
<path d="M101.532 1149.97L115.592 1156.62L101.614 1165.73L101.532 1149.97Z" fill="#E41968"/>
<path d="M101.533 1117.82L115.592 1124.48L101.614 1133.54L101.533 1117.82Z" fill="#E41968"/>
<path d="M101.528 1085.68L115.588 1092.34L101.609 1101.4L101.528 1085.68Z" fill="#E41968"/>
<path d="M101.523 1053.53L115.583 1060.19L101.604 1069.25L101.523 1053.53Z" fill="#E41968"/>
<path d="M101.528 1021.38L115.588 1028.03L101.609 1037.09L101.528 1021.38Z" fill="#E41968"/>
<path d="M101.525 989.238L115.585 995.893L101.607 1005L101.525 989.238Z" fill="#E41968"/>
<path d="M101.521 957.093L115.581 963.748L101.602 972.809L101.521 957.093Z" fill="#E41968"/>
<path d="M101.516 924.944L115.576 931.599L101.597 940.66L101.516 924.944Z" fill="#E41968"/>
<path d="M101.514 892.802L115.574 899.457L101.595 908.518L101.514 892.802Z" fill="#E41968"/>
<path d="M101.518 860.652L115.578 867.307L101.6 876.368L101.518 860.652Z" fill="#E41968"/>
<path d="M101.511 828.502L115.571 835.157L101.593 844.262L101.511 828.502Z" fill="#E41968"/>
<path d="M101.504 796.356L115.564 803.011L101.585 812.072L101.504 796.356Z" fill="#E41968"/>
<path d="M101.509 764.206L115.569 770.861L101.59 779.922L101.509 764.206Z" fill="#E41968"/>
<path d="M101.504 732.063L115.564 738.718L101.585 747.779L101.504 732.063Z" fill="#E41968"/>
<path d="M101.511 699.913L115.571 706.568L101.593 715.629L101.511 699.913Z" fill="#E41968"/>
<path d="M101.502 667.771L115.561 674.426L101.583 683.531L101.502 667.771Z" fill="#E41968"/>
<path d="M101.511 635.622L115.571 642.277L101.593 651.338L101.511 635.622Z" fill="#E41968"/>
<path d="M101.504 603.476L115.564 610.13L101.585 619.192L101.504 603.476Z" fill="#E41968"/>
<path d="M101.504 571.333L115.564 577.988L101.585 587.049L101.504 571.333Z" fill="#E41968"/>
<path d="M101.504 539.182L115.564 545.837L101.585 554.898L101.504 539.182Z" fill="#E41968"/>
<path d="M101.502 507.033L115.561 513.688L101.583 522.794L101.502 507.033Z" fill="#E41968"/>
<path d="M101.507 474.887L115.566 481.542L101.588 490.603L101.507 474.887Z" fill="#E41968"/>
<path d="M101.497 442.738L115.557 449.393L101.578 458.454L101.497 442.738Z" fill="#E41968"/>
<path d="M101.492 410.595L115.552 417.25L101.574 426.311L101.492 410.595Z" fill="#E41968"/>
<path d="M101.497 378.445L115.557 385.1L101.578 394.161L101.497 378.445Z" fill="#E41968"/>
<path d="M101.494 346.303L115.554 352.958L101.576 362.064L101.494 346.303Z" fill="#E41968"/>
<path d="M101.495 314.154L115.555 320.809L101.576 329.87L101.495 314.154Z" fill="#E41968"/>
<path d="M101.495 282.007L115.555 288.662L101.576 297.723L101.495 282.007Z" fill="#E41968"/>
<path d="M101.492 249.857L115.552 256.512L101.574 265.573L101.492 249.857Z" fill="#E41968"/>
<path d="M101.497 217.714L115.557 224.369L101.578 233.43L101.497 217.714Z" fill="#E41968"/>
<path d="M101.48 185.565L115.54 192.22L101.562 201.326L101.48 185.565Z" fill="#E41968"/>
<path d="M101.488 153.42L115.547 160.075L101.569 169.136L101.488 153.42Z" fill="#E41968"/>
<path d="M101.483 121.27L115.543 127.925L101.564 136.986L101.483 121.27Z" fill="#E41968"/>
<path d="M101.478 89.1262L115.538 95.781L101.559 104.842L101.478 89.1262Z" fill="#E41968"/>
<path d="M101.48 56.9764L115.54 63.6314L101.562 72.6924L101.48 56.9764Z" fill="#E41968"/>
<path d="M101.48 24.8296L115.54 31.4846L101.562 40.5903L101.48 24.8296Z" fill="#E41968"/>
<path d="M135.147 1324.73L147.967 1330.83L135.222 1339.11L135.147 1324.73Z" fill="#E41968"/>
<path d="M135.143 1292.59L147.962 1298.68L135.217 1306.97L135.143 1292.59Z" fill="#E41968"/>
<path d="M135.135 1260.45L147.955 1266.54L135.21 1274.82L135.135 1260.45Z" fill="#E41968"/>
<path d="M135.133 1228.3L147.952 1234.39L135.207 1242.67L135.133 1228.3Z" fill="#E41968"/>
<path d="M135.128 1196.15L147.948 1202.24L135.203 1210.52L135.128 1196.15Z" fill="#E41968"/>
<path d="M135.133 1164L147.952 1170.1L135.207 1178.38L135.133 1164Z" fill="#E41968"/>
<path d="M135.126 1131.86L147.945 1137.95L135.2 1146.23L135.126 1131.86Z" fill="#E41968"/>
<path d="M135.126 1099.71L147.945 1105.8L135.2 1114.09L135.126 1099.71Z" fill="#E41968"/>
<path d="M135.128 1067.56L147.948 1073.66L135.203 1081.94L135.128 1067.56Z" fill="#E41968"/>
<path d="M135.128 1035.42L147.948 1041.51L135.203 1049.79L135.128 1035.42Z" fill="#E41968"/>
<path d="M135.128 1003.27L147.948 1009.36L135.203 1017.65L135.128 1003.27Z" fill="#E41968"/>
<path d="M135.124 971.116L147.943 977.208L135.198 985.493L135.124 971.116Z" fill="#E41968"/>
<path d="M135.124 938.975L147.943 945.066L135.198 953.352L135.124 938.975Z" fill="#E41968"/>
<path d="M135.128 906.828L147.948 912.919L135.203 921.204L135.128 906.828Z" fill="#E41968"/>
<path d="M135.116 874.679L147.936 880.77L135.191 889.056L135.116 874.679Z" fill="#E41968"/>
<path d="M135.121 842.535L147.941 848.627L135.196 856.912L135.121 842.535Z" fill="#E41968"/>
<path d="M135.121 810.385L147.941 816.477L135.196 824.762L135.121 810.385Z" fill="#E41968"/>
<path d="M135.114 778.239L147.933 784.331L135.188 792.616L135.114 778.239Z" fill="#E41968"/>
<path d="M135.119 746.096L147.938 752.187L135.193 760.472L135.119 746.096Z" fill="#E41968"/>
<path d="M135.114 713.948L147.933 720.04L135.188 728.325L135.114 713.948Z" fill="#E41968"/>
<path d="M135.105 681.8L147.924 687.891L135.179 696.176L135.105 681.8Z" fill="#E41968"/>
<path d="M135.109 649.649L147.929 655.74L135.184 664.025L135.109 649.649Z" fill="#E41968"/>
<path d="M135.1 617.503L147.919 623.594L135.174 631.879L135.1 617.503Z" fill="#E41968"/>
<path d="M135.112 585.36L147.931 591.451L135.186 599.737L135.112 585.36Z" fill="#E41968"/>
<path d="M135.102 553.211L147.922 559.303L135.177 567.588L135.102 553.211Z" fill="#E41968"/>
<path d="M135.097 521.064L147.917 527.155L135.172 535.441L135.097 521.064Z" fill="#E41968"/>
<path d="M135.105 488.918L147.924 495.009L135.179 503.295L135.105 488.918Z" fill="#E41968"/>
<path d="M135.1 456.771L147.919 462.862L135.174 471.147L135.1 456.771Z" fill="#E41968"/>
<path d="M135.1 424.629L147.919 430.72L135.174 439.006L135.1 424.629Z" fill="#E41968"/>
<path d="M135.09 392.483L147.91 398.574L135.165 406.86L135.09 392.483Z" fill="#E41968"/>
<path d="M135.09 360.332L147.91 366.423L135.165 374.709L135.09 360.332Z" fill="#E41968"/>
<path d="M135.088 328.183L147.907 334.275L135.162 342.56L135.088 328.183Z" fill="#E41968"/>
<path d="M135.088 296.035L147.907 302.126L135.162 310.412L135.088 296.035Z" fill="#E41968"/>
<path d="M135.093 263.892L147.912 269.984L135.167 278.269L135.093 263.892Z" fill="#E41968"/>
<path d="M135.09 231.745L147.91 237.836L135.165 246.122L135.09 231.745Z" fill="#E41968"/>
<path d="M135.086 199.596L147.905 205.688L135.16 213.973L135.086 199.596Z" fill="#E41968"/>
<path d="M135.095 167.448L147.914 173.539L135.169 181.824L135.095 167.448Z" fill="#E41968"/>
<path d="M135.088 135.303L147.907 141.394L135.162 149.68L135.088 135.303Z" fill="#E41968"/>
<path d="M135.088 103.157L147.907 109.248L135.162 117.533L135.088 103.157Z" fill="#E41968"/>
<path d="M135.088 71.0141L147.907 77.1054L135.162 85.3907L135.088 71.0141Z" fill="#E41968"/>
<path d="M135.083 38.8644L147.903 44.9558L135.158 53.241L135.083 38.8644Z" fill="#E41968"/>
<path d="M168.733 1370.87L180.404 1376.44L168.801 1384L168.733 1370.87Z" fill="#E41968"/>
<path d="M168.742 1338.73L180.413 1344.29L168.81 1351.86L168.742 1338.73Z" fill="#E41968"/>
<path d="M168.731 1306.58L180.401 1312.15L168.799 1319.71L168.731 1306.58Z" fill="#E41968"/>
<path d="M168.735 1274.43L180.406 1279.99L168.803 1287.56L168.735 1274.43Z" fill="#E41968"/>
<path d="M168.731 1242.28L180.401 1247.85L168.799 1255.41L168.731 1242.28Z" fill="#E41968"/>
<path d="M168.726 1210.14L180.397 1215.7L168.794 1223.26L168.726 1210.14Z" fill="#E41968"/>
<path d="M168.726 1177.99L180.397 1183.55L168.794 1191.11L168.726 1177.99Z" fill="#E41968"/>
<path d="M168.721 1145.85L180.392 1151.41L168.789 1158.97L168.721 1145.85Z" fill="#E41968"/>
<path d="M168.714 1113.7L180.385 1119.26L168.782 1126.82L168.714 1113.7Z" fill="#E41968"/>
<path d="M168.719 1081.55L180.39 1087.11L168.787 1094.67L168.719 1081.55Z" fill="#E41968"/>
<path d="M168.719 1049.4L180.39 1054.97L168.787 1062.53L168.719 1049.4Z" fill="#E41968"/>
<path d="M168.726 1017.26L180.397 1022.82L168.794 1030.38L168.726 1017.26Z" fill="#E41968"/>
<path d="M168.721 985.105L180.392 990.67L168.789 998.232L168.721 985.105Z" fill="#E41968"/>
<path d="M168.721 952.961L180.392 958.526L168.789 966.088L168.721 952.961Z" fill="#E41968"/>
<path d="M168.719 920.816L180.39 926.381L168.787 933.943L168.719 920.816Z" fill="#E41968"/>
<path d="M168.716 888.669L180.387 894.234L168.784 901.796L168.716 888.669Z" fill="#E41968"/>
<path d="M168.714 856.518L180.385 862.083L168.782 869.645L168.714 856.518Z" fill="#E41968"/>
<path d="M168.714 824.367L180.385 829.932L168.782 837.494L168.714 824.367Z" fill="#E41968"/>
<path d="M168.714 792.223L180.385 797.788L168.782 805.35L168.714 792.223Z" fill="#E41968"/>
<path d="M168.707 760.083L180.378 765.648L168.775 773.21L168.707 760.083Z" fill="#E41968"/>
<path d="M168.702 727.934L180.373 733.498L168.77 741.06L168.702 727.934Z" fill="#E41968"/>
<path d="M168.707 695.786L180.378 701.351L168.775 708.913L168.707 695.786Z" fill="#E41968"/>
<path d="M168.705 663.642L180.375 669.207L168.772 676.769L168.705 663.642Z" fill="#E41968"/>
<path d="M168.697 631.493L180.368 637.057L168.765 644.619L168.697 631.493Z" fill="#E41968"/>
<path d="M168.709 599.346L180.38 604.911L168.777 612.473L168.709 599.346Z" fill="#E41968"/>
<path d="M168.695 567.203L180.366 572.767L168.763 580.329L168.695 567.203Z" fill="#E41968"/>
<path d="M168.7 535.049L180.371 540.614L168.768 548.176L168.7 535.049Z" fill="#E41968"/>
<path d="M168.695 502.903L180.366 508.468L168.763 516.03L168.695 502.903Z" fill="#E41968"/>
<path d="M168.702 470.759L180.373 476.324L168.77 483.886L168.702 470.759Z" fill="#E41968"/>
<path d="M168.697 438.614L180.368 444.179L168.765 451.741L168.697 438.614Z" fill="#E41968"/>
<path d="M168.693 406.462L180.363 412.027L168.761 419.589L168.693 406.462Z" fill="#E41968"/>
<path d="M168.695 374.316L180.366 379.881L168.763 387.443L168.695 374.316Z" fill="#E41968"/>
<path d="M168.695 342.174L180.366 347.738L168.763 355.3L168.695 342.174Z" fill="#E41968"/>
<path d="M168.688 310.027L180.359 315.592L168.756 323.154L168.688 310.027Z" fill="#E41968"/>
<path d="M168.69 277.878L180.361 283.442L168.758 291.004L168.69 277.878Z" fill="#E41968"/>
<path d="M168.686 245.734L180.356 251.298L168.753 258.86L168.686 245.734Z" fill="#E41968"/>
<path d="M168.686 213.581L180.356 219.145L168.753 226.707L168.686 213.581Z" fill="#E41968"/>
<path d="M168.688 181.434L180.359 186.999L168.756 194.561L168.688 181.434Z" fill="#E41968"/>
<path d="M168.683 149.288L180.354 154.853L168.751 162.415L168.683 149.288Z" fill="#E41968"/>
<path d="M168.683 117.146L180.354 122.71L168.751 130.272L168.683 117.146Z" fill="#E41968"/>
<path d="M168.681 84.9971L180.352 90.5617L168.749 98.1235L168.681 84.9971Z" fill="#E41968"/>
<path d="M168.686 52.8473L180.356 58.4119L168.753 65.9738L168.686 52.8473Z" fill="#E41968"/>
<path d="M168.671 20.7047L180.342 26.2693L168.739 33.8312L168.671 20.7047Z" fill="#E41968"/>
<path d="M202.336 1352.8L212.812 1357.76L202.397 1364.5L202.336 1352.8Z" fill="#E41968"/>
<path d="M202.346 1320.66L212.822 1325.61L202.406 1332.35L202.346 1320.66Z" fill="#E41968"/>
<path d="M202.334 1288.51L212.81 1293.46L202.394 1300.21L202.334 1288.51Z" fill="#E41968"/>
<path d="M202.329 1256.36L212.805 1261.31L202.39 1268.06L202.329 1256.36Z" fill="#E41968"/>
<path d="M202.329 1224.21L212.805 1229.16L202.39 1235.91L202.329 1224.21Z" fill="#E41968"/>
<path d="M202.331 1192.07L212.807 1197.02L202.392 1203.77L202.331 1192.07Z" fill="#E41968"/>
<path d="M202.336 1159.92L212.812 1164.87L202.397 1171.61L202.336 1159.92Z" fill="#E41968"/>
<path d="M202.336 1127.77L212.812 1132.72L202.397 1139.47L202.336 1127.77Z" fill="#E41968"/>
<path d="M202.329 1095.62L212.805 1100.58L202.39 1107.32L202.329 1095.62Z" fill="#E41968"/>
<path d="M202.322 1063.48L212.798 1068.43L202.382 1075.18L202.322 1063.48Z" fill="#E41968"/>
<path d="M202.317 1031.33L212.793 1036.29L202.378 1043.03L202.317 1031.33Z" fill="#E41968"/>
<path d="M202.32 999.181L212.796 1004.13L202.38 1010.88L202.32 999.181Z" fill="#E41968"/>
<path d="M202.315 967.039L212.791 971.991L202.375 978.736L202.315 967.039Z" fill="#E41968"/>
<path d="M202.315 934.892L212.791 939.845L202.375 946.59L202.315 934.892Z" fill="#E41968"/>
<path d="M202.317 902.745L212.793 907.697L202.378 914.443L202.317 902.745Z" fill="#E41968"/>
<path d="M202.317 870.596L212.793 875.549L202.378 882.294L202.317 870.596Z" fill="#E41968"/>
<path d="M202.32 838.451L212.796 843.404L202.38 850.149L202.32 838.451Z" fill="#E41968"/>
<path d="M202.32 806.304L212.796 811.256L202.38 818.002L202.32 806.304Z" fill="#E41968"/>
<path d="M202.308 774.156L212.784 779.108L202.368 785.853L202.308 774.156Z" fill="#E41968"/>
<path d="M202.31 742.008L212.786 746.961L202.371 753.706L202.31 742.008Z" fill="#E41968"/>
<path d="M202.305 709.862L212.781 714.815L202.366 721.56L202.305 709.862Z" fill="#E41968"/>
<path d="M202.305 677.718L212.781 682.671L202.366 689.416L202.305 677.718Z" fill="#E41968"/>
<path d="M202.303 645.566L212.779 650.518L202.363 657.264L202.303 645.566Z" fill="#E41968"/>
<path d="M202.303 613.42L212.779 618.372L202.363 625.118L202.303 613.42Z" fill="#E41968"/>
<path d="M202.308 581.275L212.784 586.227L202.368 592.973L202.308 581.275Z" fill="#E41968"/>
<path d="M202.305 549.131L212.781 554.084L202.366 560.829L202.305 549.131Z" fill="#E41968"/>
<path d="M202.301 516.983L212.777 521.935L202.361 528.68L202.301 516.983Z" fill="#E41968"/>
<path d="M202.298 484.833L212.774 489.785L202.359 496.531L202.298 484.833Z" fill="#E41968"/>
<path d="M202.291 452.687L212.767 457.639L202.352 464.384L202.291 452.687Z" fill="#E41968"/>
<path d="M202.296 420.537L212.772 425.489L202.356 432.235L202.296 420.537Z" fill="#E41968"/>
<path d="M202.301 388.396L212.777 393.348L202.361 400.093L202.301 388.396Z" fill="#E41968"/>
<path d="M202.289 356.249L212.765 361.202L202.349 367.947L202.289 356.249Z" fill="#E41968"/>
<path d="M202.289 324.1L212.765 329.052L202.349 335.797L202.289 324.1Z" fill="#E41968"/>
<path d="M202.284 291.951L212.76 296.904L202.345 303.649L202.284 291.951Z" fill="#E41968"/>
<path d="M202.282 259.806L212.758 264.759L202.342 271.504L202.282 259.806Z" fill="#E41968"/>
<path d="M202.286 227.656L212.762 232.609L202.347 239.354L202.286 227.656Z" fill="#E41968"/>
<path d="M202.279 195.51L212.755 200.463L202.34 207.208L202.279 195.51Z" fill="#E41968"/>
<path d="M202.282 163.364L212.758 168.317L202.342 175.062L202.282 163.364Z" fill="#E41968"/>
<path d="M202.282 131.217L212.758 136.169L202.342 142.914L202.282 131.217Z" fill="#E41968"/>
<path d="M202.272 99.0682L212.748 104.021L202.333 110.766L202.272 99.0682Z" fill="#E41968"/>
<path d="M202.279 66.9268L212.755 71.8792L202.34 78.6245L202.279 66.9268Z" fill="#E41968"/>
<path d="M202.275 34.7806L212.75 39.733L202.335 46.4783L202.275 34.7806Z" fill="#E41968"/>
<path d="M235.852 1366.71L245.317 1371.21L235.907 1377.33L235.852 1366.71Z" fill="#E41968"/>
<path d="M235.845 1334.56L245.31 1339.06L235.9 1345.19L235.845 1334.56Z" fill="#E41968"/>
<path d="M235.85 1302.41L245.315 1306.92L235.905 1313.04L235.85 1302.41Z" fill="#E41968"/>
<path d="M235.843 1270.27L245.308 1274.77L235.898 1280.89L235.843 1270.27Z" fill="#E41968"/>
<path d="M235.836 1238.12L245.301 1242.62L235.891 1248.74L235.836 1238.12Z" fill="#E41968"/>
<path d="M235.845 1205.97L245.31 1210.47L235.9 1216.6L235.845 1205.97Z" fill="#E41968"/>
<path d="M235.836 1173.83L245.301 1178.33L235.891 1184.45L235.836 1173.83Z" fill="#E41968"/>
<path d="M235.833 1141.68L245.298 1146.18L235.888 1152.31L235.833 1141.68Z" fill="#E41968"/>
<path d="M235.828 1109.53L245.294 1114.04L235.883 1120.16L235.828 1109.53Z" fill="#E41968"/>
<path d="M235.836 1077.38L245.301 1081.88L235.891 1088.01L235.836 1077.38Z" fill="#E41968"/>
<path d="M235.831 1045.24L245.296 1049.74L235.886 1055.86L235.831 1045.24Z" fill="#E41968"/>
<path d="M235.824 1013.09L245.289 1017.59L235.879 1023.72L235.824 1013.09Z" fill="#E41968"/>
<path d="M235.826 980.944L245.291 985.447L235.881 991.57L235.826 980.944Z" fill="#E41968"/>
<path d="M235.821 948.801L245.287 953.305L235.876 959.428L235.821 948.801Z" fill="#E41968"/>
<path d="M235.817 916.648L245.282 921.151L235.872 927.274L235.817 916.648Z" fill="#E41968"/>
<path d="M235.814 884.502L245.279 889.005L235.869 895.128L235.814 884.502Z" fill="#E41968"/>
<path d="M235.814 852.353L245.279 856.857L235.869 862.98L235.814 852.353Z" fill="#E41968"/>
<path d="M235.819 820.21L245.284 824.713L235.874 830.836L235.819 820.21Z" fill="#E41968"/>
<path d="M235.817 788.063L245.282 792.567L235.872 798.69L235.817 788.063Z" fill="#E41968"/>
<path d="M235.817 755.914L245.282 760.417L235.872 766.54L235.817 755.914Z" fill="#E41968"/>
<path d="M235.817 723.765L245.282 728.268L235.872 734.391L235.817 723.765Z" fill="#E41968"/>
<path d="M235.807 691.617L245.272 696.12L235.862 702.243L235.807 691.617Z" fill="#E41968"/>
<path d="M235.824 659.473L245.289 663.976L235.879 670.099L235.824 659.473Z" fill="#E41968"/>
<path d="M235.807 627.324L245.272 631.827L235.862 637.95L235.807 627.324Z" fill="#E41968"/>
<path d="M235.805 595.179L245.27 599.682L235.86 605.805L235.805 595.179Z" fill="#E41968"/>
<path d="M235.809 563.033L245.275 567.536L235.864 573.659L235.809 563.033Z" fill="#E41968"/>
<path d="M235.809 530.883L245.275 535.387L235.864 541.51L235.809 530.883Z" fill="#E41968"/>
<path d="M235.807 498.741L245.272 503.244L235.862 509.367L235.807 498.741Z" fill="#E41968"/>
<path d="M235.812 466.595L245.277 471.098L235.867 477.221L235.812 466.595Z" fill="#E41968"/>
<path d="M235.807 434.446L245.272 438.949L235.862 445.072L235.807 434.446Z" fill="#E41968"/>
<path d="M235.805 402.296L245.27 406.799L235.86 412.923L235.805 402.296Z" fill="#E41968"/>
<path d="M235.802 370.154L245.268 374.657L235.857 380.78L235.802 370.154Z" fill="#E41968"/>
<path d="M235.802 338.004L245.268 342.507L235.857 348.63L235.802 338.004Z" fill="#E41968"/>
<path d="M235.8 305.857L245.265 310.36L235.855 316.483L235.8 305.857Z" fill="#E41968"/>
<path d="M235.795 273.714L245.26 278.217L235.85 284.34L235.795 273.714Z" fill="#E41968"/>
<path d="M235.793 241.565L245.258 246.069L235.848 252.192L235.793 241.565Z" fill="#E41968"/>
<path d="M235.793 209.416L245.258 213.919L235.848 220.042L235.793 209.416Z" fill="#E41968"/>
<path d="M235.793 177.27L245.258 181.773L235.848 187.896L235.793 177.27Z" fill="#E41968"/>
<path d="M235.795 145.127L245.26 149.63L235.85 155.753L235.795 145.127Z" fill="#E41968"/>
<path d="M235.79 112.978L245.256 117.482L235.845 123.605L235.79 112.978Z" fill="#E41968"/>
<path d="M235.788 80.8275L245.253 85.3307L235.843 91.4537L235.788 80.8275Z" fill="#E41968"/>
<path d="M235.786 48.6849L245.251 53.1881L235.841 59.3111L235.786 48.6849Z" fill="#E41968"/>
<path d="M235.786 16.5351L245.251 21.0383L235.841 27.1614L235.786 16.5351Z" fill="#E41968"/>
<path d="M269.63 1348.8L277.488 1352.55L269.676 1357.64L269.63 1348.8Z" fill="#E41968"/>
<path d="M269.63 1316.65L277.488 1320.4L269.676 1325.49L269.63 1316.65Z" fill="#E41968"/>
<path d="M269.616 1284.5L277.473 1288.25L269.662 1293.34L269.616 1284.5Z" fill="#E41968"/>
<path d="M269.633 1252.36L277.49 1256.11L269.679 1261.2L269.633 1252.36Z" fill="#E41968"/>
<path d="M269.623 1220.21L277.48 1223.96L269.669 1229.05L269.623 1220.21Z" fill="#E41968"/>
<path d="M269.623 1188.06L277.48 1191.81L269.669 1196.9L269.623 1188.06Z" fill="#E41968"/>
<path d="M269.619 1155.92L277.476 1159.66L269.664 1164.76L269.619 1155.92Z" fill="#E41968"/>
<path d="M269.614 1123.77L277.471 1127.52L269.66 1132.61L269.614 1123.77Z" fill="#E41968"/>
<path d="M269.623 1091.62L277.48 1095.37L269.669 1100.46L269.623 1091.62Z" fill="#E41968"/>
<path d="M269.616 1059.48L277.473 1063.22L269.662 1068.32L269.616 1059.48Z" fill="#E41968"/>
<path d="M269.616 1027.33L277.473 1031.07L269.662 1036.17L269.616 1027.33Z" fill="#E41968"/>
<path d="M269.611 995.183L277.469 998.931L269.657 1004.02L269.611 995.183Z" fill="#E41968"/>
<path d="M269.614 963.033L277.471 966.781L269.66 971.874L269.614 963.033Z" fill="#E41968"/>
<path d="M269.614 930.887L277.471 934.635L269.66 939.727L269.614 930.887Z" fill="#E41968"/>
<path d="M269.609 898.745L277.466 902.492L269.655 907.585L269.609 898.745Z" fill="#E41968"/>
<path d="M269.6 866.596L277.457 870.344L269.645 875.436L269.6 866.596Z" fill="#E41968"/>
<path d="M269.609 834.444L277.466 838.192L269.655 843.284L269.609 834.444Z" fill="#E41968"/>
<path d="M269.602 802.3L277.459 806.048L269.648 811.14L269.602 802.3Z" fill="#E41968"/>
<path d="M269.607 770.156L277.464 773.904L269.652 778.997L269.607 770.156Z" fill="#E41968"/>
<path d="M269.602 738.007L277.459 741.754L269.648 746.847L269.602 738.007Z" fill="#E41968"/>
<path d="M269.6 705.86L277.457 709.608L269.645 714.701L269.6 705.86Z" fill="#E41968"/>
<path d="M269.59 673.713L277.447 677.461L269.636 682.553L269.59 673.713Z" fill="#E41968"/>
<path d="M269.59 641.565L277.447 645.312L269.636 650.405L269.59 641.565Z" fill="#E41968"/>
<path d="M269.597 609.42L277.454 613.167L269.643 618.26L269.597 609.42Z" fill="#E41968"/>
<path d="M269.59 577.276L277.447 581.024L269.636 586.116L269.59 577.276Z" fill="#E41968"/>
<path d="M269.585 545.126L277.443 548.874L269.631 553.966L269.585 545.126Z" fill="#E41968"/>
<path d="M269.592 512.975L277.45 516.723L269.638 521.815L269.592 512.975Z" fill="#E41968"/>
<path d="M269.583 480.83L277.44 484.578L269.629 489.67L269.583 480.83Z" fill="#E41968"/>
<path d="M269.588 448.68L277.445 452.428L269.633 457.521L269.588 448.68Z" fill="#E41968"/>
<path d="M269.59 416.538L277.447 420.286L269.636 425.378L269.59 416.538Z" fill="#E41968"/>
<path d="M269.581 384.388L277.438 388.136L269.626 393.228L269.581 384.388Z" fill="#E41968"/>
<path d="M269.585 352.24L277.443 355.987L269.631 361.08L269.585 352.24Z" fill="#E41968"/>
<path d="M269.578 320.097L277.435 323.845L269.624 328.937L269.578 320.097Z" fill="#E41968"/>
<path d="M269.588 287.952L277.445 291.7L269.633 296.792L269.588 287.952Z" fill="#E41968"/>
<path d="M269.576 255.805L277.433 259.552L269.622 264.645L269.576 255.805Z" fill="#E41968"/>
<path d="M269.574 223.658L277.431 227.406L269.619 232.499L269.574 223.658Z" fill="#E41968"/>
<path d="M269.583 191.509L277.44 195.257L269.629 200.349L269.583 191.509Z" fill="#E41968"/>
<path d="M269.578 159.362L277.435 163.11L269.624 168.203L269.578 159.362Z" fill="#E41968"/>
<path d="M269.576 127.219L277.433 130.967L269.622 136.059L269.576 127.219Z" fill="#E41968"/>
<path d="M269.576 95.0726L277.433 98.8204L269.622 103.913L269.576 95.0726Z" fill="#E41968"/>
<path d="M269.571 62.9239L277.428 66.6717L269.617 71.7643L269.571 62.9239Z" fill="#E41968"/>
<path d="M303.13 1362.75L309.977 1366.01L303.17 1370.43L303.13 1362.75Z" fill="#E41968"/>
<path d="M303.135 1330.6L309.981 1333.86L303.175 1338.28L303.135 1330.6Z" fill="#E41968"/>
<path d="M303.133 1298.46L309.979 1301.71L303.172 1306.14L303.133 1298.46Z" fill="#E41968"/>
<path d="M303.133 1266.31L309.979 1269.56L303.172 1273.98L303.133 1266.31Z" fill="#E41968"/>
<path d="M303.128 1234.16L309.974 1237.41L303.168 1241.84L303.128 1234.16Z" fill="#E41968"/>
<path d="M303.126 1202.02L309.972 1205.27L303.165 1209.7L303.126 1202.02Z" fill="#E41968"/>
<path d="M303.126 1169.87L309.972 1173.12L303.165 1177.55L303.126 1169.87Z" fill="#E41968"/>
<path d="M303.123 1137.72L309.969 1140.97L303.163 1145.4L303.123 1137.72Z" fill="#E41968"/>
<path d="M303.133 1105.57L309.979 1108.83L303.172 1113.25L303.133 1105.57Z" fill="#E41968"/>
<path d="M303.121 1073.42L309.967 1076.68L303.16 1081.1L303.121 1073.42Z" fill="#E41968"/>
<path d="M303.118 1041.28L309.965 1044.53L303.158 1048.96L303.118 1041.28Z" fill="#E41968"/>
<path d="M303.118 1009.13L309.965 1012.38L303.158 1016.81L303.118 1009.13Z" fill="#E41968"/>
<path d="M303.114 976.984L309.96 980.238L303.153 984.664L303.114 976.984Z" fill="#E41968"/>
<path d="M303.111 944.838L309.958 948.092L303.151 952.517L303.111 944.838Z" fill="#E41968"/>
<path d="M303.116 912.691L309.962 915.944L303.156 920.37L303.116 912.691Z" fill="#E41968"/>
<path d="M303.116 880.542L309.962 883.796L303.156 888.221L303.116 880.542Z" fill="#E41968"/>
<path d="M303.118 848.398L309.965 851.652L303.158 856.078L303.118 848.398Z" fill="#E41968"/>
<path d="M303.114 816.252L309.96 819.506L303.153 823.932L303.114 816.252Z" fill="#E41968"/>
<path d="M303.118 784.104L309.965 787.357L303.158 791.783L303.118 784.104Z" fill="#E41968"/>
<path d="M303.116 751.953L309.962 755.206L303.156 759.632L303.116 751.953Z" fill="#E41968"/>
<path d="M303.109 719.811L309.955 723.065L303.149 727.491L303.109 719.811Z" fill="#E41968"/>
<path d="M303.109 687.663L309.955 690.917L303.149 695.342L303.109 687.663Z" fill="#E41968"/>
<path d="M303.107 655.515L309.953 658.769L303.146 663.195L303.107 655.515Z" fill="#E41968"/>
<path d="M303.107 623.369L309.953 626.623L303.146 631.049L303.107 623.369Z" fill="#E41968"/>
<path d="M303.107 591.224L309.953 594.478L303.146 598.904L303.107 591.224Z" fill="#E41968"/>
<path d="M303.104 559.074L309.95 562.328L303.144 566.754L303.104 559.074Z" fill="#E41968"/>
<path d="M303.099 526.927L309.946 530.181L303.139 534.607L303.099 526.927Z" fill="#E41968"/>
<path d="M303.104 494.783L309.95 498.037L303.144 502.463L303.104 494.783Z" fill="#E41968"/>
<path d="M303.107 462.634L309.953 465.887L303.146 470.313L303.107 462.634Z" fill="#E41968"/>
<path d="M303.099 430.492L309.946 433.746L303.139 438.172L303.099 430.492Z" fill="#E41968"/>
<path d="M303.095 398.342L309.941 401.596L303.134 406.022L303.095 398.342Z" fill="#E41968"/>
<path d="M303.097 366.195L309.943 369.449L303.137 373.874L303.097 366.195Z" fill="#E41968"/>
<path d="M303.092 334.046L309.939 337.3L303.132 341.726L303.092 334.046Z" fill="#E41968"/>
<path d="M303.085 301.898L309.931 305.152L303.125 309.577L303.085 301.898Z" fill="#E41968"/>
<path d="M303.09 269.755L309.936 273.009L303.13 277.435L303.09 269.755Z" fill="#E41968"/>
<path d="M303.09 237.606L309.936 240.859L303.13 245.285L303.09 237.606Z" fill="#E41968"/>
<path d="M303.088 205.459L309.934 208.713L303.127 213.139L303.088 205.459Z" fill="#E41968"/>
<path d="M303.088 173.312L309.934 176.566L303.127 180.992L303.088 173.312Z" fill="#E41968"/>
<path d="M303.08 141.166L309.927 144.42L303.12 148.845L303.08 141.166Z" fill="#E41968"/>
<path d="M303.078 109.016L309.924 112.27L303.118 116.696L303.078 109.016Z" fill="#E41968"/>
<path d="M303.078 76.8664L309.924 80.1202L303.118 84.5458L303.078 76.8664Z" fill="#E41968"/>
<path d="M303.088 44.7238L309.934 47.9778L303.127 52.4033L303.088 44.7238Z" fill="#E41968"/>
<path d="M336.78 1344.63L342.386 1347.32L336.813 1350.97L336.78 1344.63Z" fill="#E41968"/>
<path d="M336.773 1312.48L342.379 1315.17L336.806 1318.82L336.773 1312.48Z" fill="#E41968"/>
<path d="M336.783 1280.34L342.389 1283.03L336.816 1286.68L336.783 1280.34Z" fill="#E41968"/>
<path d="M336.776 1248.19L342.382 1250.88L336.809 1254.53L336.776 1248.19Z" fill="#E41968"/>
<path d="M336.766 1216.04L342.372 1218.73L336.799 1222.38L336.766 1216.04Z" fill="#E41968"/>
<path d="M336.773 1183.9L342.379 1186.59L336.806 1190.24L336.773 1183.9Z" fill="#E41968"/>
<path d="M336.769 1151.75L342.374 1154.44L336.801 1158.09L336.769 1151.75Z" fill="#E41968"/>
<path d="M336.773 1119.6L342.379 1122.29L336.806 1125.94L336.773 1119.6Z" fill="#E41968"/>
<path d="M336.771 1087.45L342.377 1090.14L336.804 1093.79L336.771 1087.45Z" fill="#E41968"/>
<path d="M336.762 1055.31L342.367 1058L336.794 1061.65L336.762 1055.31Z" fill="#E41968"/>
<path d="M336.757 1023.16L342.363 1025.85L336.79 1029.5L336.757 1023.16Z" fill="#E41968"/>
<path d="M336.762 991.013L342.367 993.704L336.794 997.354L336.762 991.013Z" fill="#E41968"/>
<path d="M336.762 958.871L342.367 961.561L336.794 965.211L336.762 958.871Z" fill="#E41968"/>
<path d="M336.759 926.719L342.365 929.409L336.792 933.059L336.759 926.719Z" fill="#E41968"/>
<path d="M336.754 894.57L342.36 897.261L336.787 900.91L336.754 894.57Z" fill="#E41968"/>
<path d="M336.759 862.424L342.365 865.114L336.792 868.764L336.759 862.424Z" fill="#E41968"/>
<path d="M336.757 830.281L342.363 832.972L336.79 836.621L336.757 830.281Z" fill="#E41968"/>
<path d="M336.747 798.133L342.353 800.823L336.78 804.473L336.747 798.133Z" fill="#E41968"/>
<path d="M336.762 765.983L342.367 768.674L336.794 772.323L336.762 765.983Z" fill="#E41968"/>
<path d="M336.754 733.836L342.36 736.526L336.787 740.176L336.754 733.836Z" fill="#E41968"/>
<path d="M336.754 701.69L342.36 704.38L336.787 708.03L336.754 701.69Z" fill="#E41968"/>
<path d="M336.747 669.545L342.353 672.235L336.78 675.885L336.747 669.545Z" fill="#E41968"/>
<path d="M336.75 637.398L342.355 640.089L336.782 643.739L336.75 637.398Z" fill="#E41968"/>
<path d="M336.75 605.251L342.355 607.941L336.782 611.591L336.75 605.251Z" fill="#E41968"/>
<path d="M336.745 573.101L342.351 575.792L336.778 579.441L336.745 573.101Z" fill="#E41968"/>
<path d="M336.752 540.956L342.358 543.647L336.785 547.296L336.752 540.956Z" fill="#E41968"/>
<path d="M336.747 508.813L342.353 511.503L336.78 515.153L336.747 508.813Z" fill="#E41968"/>
<path d="M336.747 476.667L342.353 479.357L336.78 483.007L336.747 476.667Z" fill="#E41968"/>
<path d="M336.75 444.514L342.355 447.205L336.782 450.854L336.75 444.514Z" fill="#E41968"/>
<path d="M336.745 412.368L342.351 415.059L336.778 418.708L336.745 412.368Z" fill="#E41968"/>
<path d="M336.745 380.219L342.351 382.909L336.778 386.559L336.745 380.219Z" fill="#E41968"/>
<path d="M336.735 348.076L342.341 350.766L336.768 354.416L336.735 348.076Z" fill="#E41968"/>
<path d="M336.731 315.931L342.336 318.621L336.763 322.271L336.731 315.931Z" fill="#E41968"/>
<path d="M336.735 283.784L342.341 286.474L336.768 290.124L336.735 283.784Z" fill="#E41968"/>
<path d="M336.728 251.634L342.334 254.324L336.761 257.974L336.728 251.634Z" fill="#E41968"/>
<path d="M336.733 219.486L342.339 222.177L336.766 225.826L336.733 219.486Z" fill="#E41968"/>
<path d="M336.726 187.338L342.332 190.028L336.759 193.678L336.726 187.338Z" fill="#E41968"/>
<path d="M336.716 155.197L342.322 157.887L336.749 161.536L336.716 155.197Z" fill="#E41968"/>
<path d="M336.726 123.045L342.332 125.736L336.759 129.386L336.726 123.045Z" fill="#E41968"/>
<path d="M336.716 90.8995L342.322 93.5898L336.749 97.2394L336.716 90.8995Z" fill="#E41968"/>
<path d="M336.716 58.7496L342.322 61.4399L336.749 65.0896L336.716 58.7496Z" fill="#E41968"/>
<path d="M370.292 1358.58L374.887 1360.78L370.319 1363.76L370.292 1358.58Z" fill="#E41968"/>
<path d="M370.287 1326.43L374.882 1328.63L370.314 1331.61L370.287 1326.43Z" fill="#E41968"/>
<path d="M370.287 1294.28L374.882 1296.48L370.314 1299.46L370.287 1294.28Z" fill="#E41968"/>
<path d="M370.29 1262.13L374.885 1264.33L370.317 1267.31L370.29 1262.13Z" fill="#E41968"/>
<path d="M370.29 1229.99L374.885 1232.19L370.317 1235.17L370.29 1229.99Z" fill="#E41968"/>
<path d="M370.278 1197.84L374.873 1200.04L370.305 1203.02L370.278 1197.84Z" fill="#E41968"/>
<path d="M370.28 1165.7L374.875 1167.89L370.307 1170.88L370.28 1165.7Z" fill="#E41968"/>
<path d="M370.276 1133.55L374.87 1135.74L370.302 1138.73L370.276 1133.55Z" fill="#E41968"/>
<path d="M370.28 1101.4L374.875 1103.6L370.307 1106.58L370.28 1101.4Z" fill="#E41968"/>
<path d="M370.273 1069.25L374.868 1071.45L370.3 1074.43L370.273 1069.25Z" fill="#E41968"/>
<path d="M370.283 1037.11L374.878 1039.31L370.309 1042.29L370.283 1037.11Z" fill="#E41968"/>
<path d="M370.283 1004.97L374.878 1007.16L370.309 1010.15L370.283 1004.97Z" fill="#E41968"/>
<path d="M370.271 972.817L374.866 975.013L370.298 977.996L370.271 972.817Z" fill="#E41968"/>
<path d="M370.276 940.667L374.87 942.864L370.302 945.846L370.276 940.667Z" fill="#E41968"/>
<path d="M370.271 908.52L374.866 910.716L370.298 913.699L370.271 908.52Z" fill="#E41968"/>
<path d="M370.266 876.375L374.861 878.571L370.293 881.554L370.266 876.375Z" fill="#E41968"/>
<path d="M370.273 844.229L374.868 846.425L370.3 849.408L370.273 844.229Z" fill="#E41968"/>
<path d="M370.266 812.079L374.861 814.275L370.293 817.258L370.266 812.079Z" fill="#E41968"/>
<path d="M370.264 779.936L374.859 782.133L370.29 785.115L370.264 779.936Z" fill="#E41968"/>
<path d="M370.264 747.787L374.859 749.983L370.29 752.966L370.264 747.787Z" fill="#E41968"/>
<path d="M370.264 715.642L374.859 717.838L370.29 720.821L370.264 715.642Z" fill="#E41968"/>
<path d="M370.257 683.498L374.851 685.694L370.283 688.677L370.257 683.498Z" fill="#E41968"/>
<path d="M370.257 651.349L374.851 653.546L370.283 656.528L370.257 651.349Z" fill="#E41968"/>
<path d="M370.254 619.198L374.849 621.395L370.281 624.378L370.254 619.198Z" fill="#E41968"/>
<path d="M370.247 587.052L374.842 589.249L370.274 592.231L370.247 587.052Z" fill="#E41968"/>
<path d="M370.259 554.91L374.854 557.106L370.286 560.089L370.259 554.91Z" fill="#E41968"/>
<path d="M370.249 522.761L374.844 524.957L370.276 527.94L370.249 522.761Z" fill="#E41968"/>
<path d="M370.249 490.611L374.844 492.808L370.276 495.79L370.249 490.611Z" fill="#E41968"/>
<path d="M370.249 458.469L374.844 460.665L370.276 463.648L370.249 458.469Z" fill="#E41968"/>
<path d="M370.252 426.319L374.847 428.515L370.279 431.498L370.252 426.319Z" fill="#E41968"/>
<path d="M370.252 394.173L374.847 396.369L370.279 399.352L370.252 394.173Z" fill="#E41968"/>
<path d="M370.252 362.03L374.847 364.227L370.279 367.209L370.252 362.03Z" fill="#E41968"/>
<path d="M370.245 329.873L374.84 332.07L370.271 335.053L370.245 329.873Z" fill="#E41968"/>
<path d="M370.245 297.731L374.84 299.927L370.271 302.91L370.245 297.731Z" fill="#E41968"/>
<path d="M370.245 265.581L374.84 267.777L370.271 270.76L370.245 265.581Z" fill="#E41968"/>
<path d="M370.235 233.435L374.83 235.631L370.262 238.614L370.235 233.435Z" fill="#E41968"/>
<path d="M370.24 201.291L374.835 203.488L370.267 206.47L370.24 201.291Z" fill="#E41968"/>
<path d="M370.24 169.143L374.835 171.339L370.267 174.322L370.24 169.143Z" fill="#E41968"/>
<path d="M370.233 136.996L374.828 139.193L370.26 142.175L370.233 136.996Z" fill="#E41968"/>
<path d="M370.233 104.844L374.828 107.041L370.26 110.023L370.233 104.844Z" fill="#E41968"/>
<path d="M370.228 72.704L374.823 74.9003L370.255 77.8831L370.228 72.704Z" fill="#E41968"/>
<path d="M403.931 1340.55L407.194 1342.1L403.95 1344.21L403.931 1340.55Z" fill="#E41968"/>
<path d="M403.941 1308.41L407.203 1309.96L403.96 1312.07L403.941 1308.41Z" fill="#E41968"/>
<path d="M403.927 1276.25L407.189 1277.81L403.946 1279.92L403.927 1276.25Z" fill="#E41968"/>
<path d="M403.924 1244.11L407.187 1245.66L403.943 1247.77L403.924 1244.11Z" fill="#E41968"/>
<path d="M403.929 1211.96L407.191 1213.52L403.948 1215.62L403.929 1211.96Z" fill="#E41968"/>
<path d="M403.924 1179.81L407.187 1181.37L403.943 1183.47L403.924 1179.81Z" fill="#E41968"/>
<path d="M403.922 1147.67L407.184 1149.22L403.941 1151.33L403.922 1147.67Z" fill="#E41968"/>
<path d="M403.931 1115.52L407.194 1117.07L403.95 1119.18L403.931 1115.52Z" fill="#E41968"/>
<path d="M403.92 1083.38L407.182 1084.93L403.939 1087.04L403.92 1083.38Z" fill="#E41968"/>
<path d="M403.917 1051.23L407.18 1052.78L403.936 1054.89L403.917 1051.23Z" fill="#E41968"/>
<path d="M403.927 1019.08L407.189 1020.63L403.946 1022.74L403.927 1019.08Z" fill="#E41968"/>
<path d="M403.927 986.932L407.189 988.484L403.946 990.593L403.927 986.932Z" fill="#E41968"/>
<path d="M403.92 954.788L407.182 956.34L403.939 958.449L403.92 954.788Z" fill="#E41968"/>
<path d="M403.92 922.64L407.182 924.191L403.939 926.301L403.92 922.64Z" fill="#E41968"/>
<path d="M403.92 890.495L407.182 892.046L403.939 894.156L403.92 890.495Z" fill="#E41968"/>
<path d="M403.912 858.341L407.175 859.893L403.931 862.003L403.912 858.341Z" fill="#E41968"/>
<path d="M403.908 826.198L407.17 827.749L403.927 829.859L403.908 826.198Z" fill="#E41968"/>
<path d="M403.912 794.052L407.175 795.603L403.931 797.713L403.912 794.052Z" fill="#E41968"/>
<path d="M403.903 761.903L407.165 763.454L403.922 765.564L403.903 761.903Z" fill="#E41968"/>
<path d="M403.908 729.757L407.17 731.308L403.927 733.418L403.908 729.757Z" fill="#E41968"/>
<path d="M403.905 697.609L407.168 699.161L403.924 701.271L403.905 697.609Z" fill="#E41968"/>
<path d="M403.901 665.46L407.163 667.011L403.92 669.121L403.901 665.46Z" fill="#E41968"/>
<path d="M403.901 633.315L407.163 634.866L403.92 636.976L403.901 633.315Z" fill="#E41968"/>
<path d="M403.898 601.171L407.161 602.722L403.917 604.832L403.898 601.171Z" fill="#E41968"/>
<path d="M403.903 569.025L407.165 570.576L403.922 572.686L403.903 569.025Z" fill="#E41968"/>
<path d="M403.898 536.876L407.161 538.428L403.917 540.537L403.898 536.876Z" fill="#E41968"/>
<path d="M403.896 504.733L407.158 506.284L403.915 508.394L403.896 504.733Z" fill="#E41968"/>
<path d="M403.901 472.584L407.163 474.135L403.92 476.245L403.901 472.584Z" fill="#E41968"/>
<path d="M403.893 440.439L407.156 441.99L403.912 444.1L403.893 440.439Z" fill="#E41968"/>
<path d="M403.891 408.289L407.154 409.841L403.91 411.95L403.891 408.289Z" fill="#E41968"/>
<path d="M403.891 376.142L407.154 377.693L403.91 379.803L403.891 376.142Z" fill="#E41968"/>
<path d="M403.886 343.996L407.149 345.547L403.905 347.657L403.886 343.996Z" fill="#E41968"/>
<path d="M403.884 311.85L407.146 313.401L403.903 315.511L403.884 311.85Z" fill="#E41968"/>
<path d="M403.889 279.703L407.151 281.255L403.908 283.364L403.889 279.703Z" fill="#E41968"/>
<path d="M403.889 247.557L407.151 249.109L403.908 251.218L403.889 247.557Z" fill="#E41968"/>
<path d="M403.886 215.408L407.149 216.959L403.905 219.069L403.886 215.408Z" fill="#E41968"/>
<path d="M403.886 183.258L407.149 184.809L403.905 186.919L403.886 183.258Z" fill="#E41968"/>
<path d="M403.891 151.115L407.154 152.666L403.91 154.776L403.891 151.115Z" fill="#E41968"/>
<path d="M403.882 118.965L407.144 120.517L403.901 122.626L403.882 118.965Z" fill="#E41968"/>
<path d="M437.392 1354.41L439.736 1355.55L437.406 1357.09L437.392 1354.41Z" fill="#E41968"/>
<path d="M437.407 1322.26L439.75 1323.4L437.42 1324.94L437.407 1322.26Z" fill="#E41968"/>
<path d="M437.4 1290.12L439.743 1291.26L437.413 1292.8L437.4 1290.12Z" fill="#E41968"/>
<path d="M437.392 1257.97L439.736 1259.11L437.406 1260.65L437.392 1257.97Z" fill="#E41968"/>
<path d="M437.397 1225.82L439.741 1226.96L437.411 1228.5L437.397 1225.82Z" fill="#E41968"/>
<path d="M437.385 1193.68L439.729 1194.82L437.399 1196.36L437.385 1193.68Z" fill="#E41968"/>
<path d="M437.385 1161.53L439.729 1162.67L437.399 1164.21L437.385 1161.53Z" fill="#E41968"/>
<path d="M437.39 1129.38L439.734 1130.52L437.404 1132.06L437.39 1129.38Z" fill="#E41968"/>
<path d="M437.383 1097.24L439.726 1098.38L437.397 1099.92L437.383 1097.24Z" fill="#E41968"/>
<path d="M437.388 1065.09L439.731 1066.23L437.401 1067.77L437.388 1065.09Z" fill="#E41968"/>
<path d="M437.392 1032.94L439.736 1034.08L437.406 1035.62L437.392 1032.94Z" fill="#E41968"/>
<path d="M437.385 1000.8L439.729 1001.94L437.399 1003.48L437.385 1000.8Z" fill="#E41968"/>
<path d="M437.378 968.652L439.722 969.791L437.392 971.331L437.378 968.652Z" fill="#E41968"/>
<path d="M437.378 936.502L439.722 937.641L437.392 939.181L437.378 936.502Z" fill="#E41968"/>
<path d="M437.381 904.355L439.724 905.494L437.394 907.034L437.381 904.355Z" fill="#E41968"/>
<path d="M437.376 872.209L439.719 873.348L437.39 874.888L437.376 872.209Z" fill="#E41968"/>
<path d="M437.378 840.063L439.722 841.202L437.392 842.742L437.378 840.063Z" fill="#E41968"/>
<path d="M437.369 807.914L439.712 809.053L437.382 810.593L437.369 807.914Z" fill="#E41968"/>
<path d="M437.373 775.772L439.717 776.91L437.387 778.45L437.373 775.772Z" fill="#E41968"/>
<path d="M437.376 743.622L439.719 744.761L437.39 746.301L437.376 743.622Z" fill="#E41968"/>
<path d="M437.366 711.472L439.71 712.611L437.38 714.151L437.366 711.472Z" fill="#E41968"/>
<path d="M437.364 679.329L439.707 680.468L437.378 682.008L437.364 679.329Z" fill="#E41968"/>
<path d="M437.362 647.179L439.705 648.317L437.375 649.857L437.362 647.179Z" fill="#E41968"/>
<path d="M437.362 615.032L439.705 616.171L437.375 617.711L437.362 615.032Z" fill="#E41968"/>
<path d="M437.366 582.884L439.71 584.023L437.38 585.563L437.366 582.884Z" fill="#E41968"/>
<path d="M437.359 550.74L439.703 551.879L437.373 553.419L437.359 550.74Z" fill="#E41968"/>
<path d="M437.359 518.591L439.703 519.73L437.373 521.27L437.359 518.591Z" fill="#E41968"/>
<path d="M437.364 486.445L439.707 487.584L437.378 489.124L437.364 486.445Z" fill="#E41968"/>
<path d="M437.362 454.303L439.705 455.442L437.375 456.982L437.362 454.303Z" fill="#E41968"/>
<path d="M437.345 422.153L439.688 423.292L437.359 424.832L437.345 422.153Z" fill="#E41968"/>
<path d="M437.357 390.008L439.7 391.147L437.371 392.687L437.357 390.008Z" fill="#E41968"/>
<path d="M437.347 357.858L439.691 358.997L437.361 360.537L437.347 357.858Z" fill="#E41968"/>
<path d="M437.347 325.711L439.691 326.85L437.361 328.39L437.347 325.711Z" fill="#E41968"/>
<path d="M437.352 293.565L439.696 294.704L437.366 296.244L437.352 293.565Z" fill="#E41968"/>
<path d="M437.35 261.415L439.693 262.554L437.363 264.094L437.35 261.415Z" fill="#E41968"/>
<path d="M437.345 229.272L439.688 230.411L437.359 231.951L437.345 229.272Z" fill="#E41968"/>
<path d="M437.345 197.126L439.688 198.265L437.359 199.805L437.345 197.126Z" fill="#E41968"/>
<path d="M437.352 164.974L439.696 166.113L437.366 167.653L437.352 164.974Z" fill="#E41968"/>
<path d="M470.904 1336.22L472.237 1336.86L470.912 1337.74L470.904 1336.22Z" fill="#E41968"/>
<path d="M470.904 1304.07L472.237 1304.72L470.912 1305.59L470.904 1304.07Z" fill="#E41968"/>
<path d="M470.897 1271.92L472.23 1272.57L470.905 1273.44L470.897 1271.92Z" fill="#E41968"/>
<path d="M470.902 1239.77L472.234 1240.42L470.91 1241.29L470.902 1239.77Z" fill="#E41968"/>
<path d="M470.902 1207.62L472.234 1208.27L470.91 1209.14L470.902 1207.62Z" fill="#E41968"/>
<path d="M470.887 1175.48L472.22 1176.13L470.895 1177L470.887 1175.48Z" fill="#E41968"/>
<path d="M470.892 1143.33L472.225 1143.98L470.9 1144.85L470.892 1143.33Z" fill="#E41968"/>
<path d="M470.892 1111.19L472.225 1111.83L470.9 1112.7L470.892 1111.19Z" fill="#E41968"/>
<path d="M470.895 1079.04L472.227 1079.68L470.902 1080.56L470.895 1079.04Z" fill="#E41968"/>
<path d="M470.89 1046.89L472.222 1047.54L470.898 1048.41L470.89 1046.89Z" fill="#E41968"/>
<path d="M470.895 1014.74L472.227 1015.39L470.902 1016.26L470.895 1014.74Z" fill="#E41968"/>
<path d="M470.892 982.602L472.225 983.247L470.9 984.12L470.892 982.602Z" fill="#E41968"/>
<path d="M470.887 950.456L472.22 951.101L470.895 951.974L470.887 950.456Z" fill="#E41968"/>
<path d="M470.883 918.302L472.215 918.947L470.891 919.82L470.883 918.302Z" fill="#E41968"/>
<path d="M470.885 886.156L472.218 886.801L470.893 887.674L470.885 886.156Z" fill="#E41968"/>
<path d="M470.878 854.006L472.211 854.651L470.886 855.524L470.878 854.006Z" fill="#E41968"/>
<path d="M470.878 821.865L472.211 822.51L470.886 823.383L470.878 821.865Z" fill="#E41968"/>
<path d="M470.876 789.719L472.208 790.364L470.883 791.237L470.876 789.719Z" fill="#E41968"/>
<path d="M470.876 757.569L472.208 758.214L470.883 759.087L470.876 757.569Z" fill="#E41968"/>
<path d="M470.88 725.425L472.213 726.07L470.888 726.943L470.88 725.425Z" fill="#E41968"/>
<path d="M470.873 693.277L472.206 693.922L470.881 694.795L470.873 693.277Z" fill="#E41968"/>
<path d="M470.878 661.129L472.211 661.774L470.886 662.647L470.878 661.129Z" fill="#E41968"/>
<path d="M470.873 628.987L472.206 629.632L470.881 630.505L470.873 628.987Z" fill="#E41968"/>
<path d="M470.871 596.838L472.203 597.483L470.879 598.356L470.871 596.838Z" fill="#E41968"/>
<path d="M470.876 564.688L472.208 565.333L470.883 566.206L470.876 564.688Z" fill="#E41968"/>
<path d="M470.868 532.539L472.201 533.184L470.876 534.057L470.868 532.539Z" fill="#E41968"/>
<path d="M470.866 500.396L472.199 501.041L470.874 501.914L470.866 500.396Z" fill="#E41968"/>
<path d="M470.871 468.25L472.203 468.895L470.879 469.768L470.871 468.25Z" fill="#E41968"/>
<path d="M470.873 436.1L472.206 436.745L470.881 437.618L470.873 436.1Z" fill="#E41968"/>
<path d="M470.868 403.958L472.201 404.603L470.876 405.476L470.868 403.958Z" fill="#E41968"/>
<path d="M470.868 371.808L472.201 372.453L470.876 373.326L470.868 371.808Z" fill="#E41968"/>
<path d="M470.866 339.66L472.199 340.306L470.874 341.179L470.866 339.66Z" fill="#E41968"/>
<path d="M470.861 307.518L472.194 308.163L470.869 309.036L470.861 307.518Z" fill="#E41968"/>
<path d="M470.861 275.368L472.194 276.013L470.869 276.886L470.861 275.368Z" fill="#E41968"/>
<path d="M470.852 243.221L472.184 243.866L470.86 244.739L470.852 243.221Z" fill="#E41968"/>
<path d="M470.852 211.073L472.184 211.718L470.86 212.591L470.852 211.073Z" fill="#E41968"/>
<path d="M470.857 178.931L472.189 179.576L470.864 180.449L470.857 178.931Z" fill="#E41968"/>
<path d="M504.409 1350.17L504.775 1350.32L504.41 1350.53L504.409 1350.17Z" fill="#E41968"/>
<path d="M504.402 1318.02L504.768 1318.17L504.403 1318.38L504.402 1318.02Z" fill="#E41968"/>
<path d="M504.402 1285.87L504.768 1286.02L504.403 1286.23L504.402 1285.87Z" fill="#E41968"/>
<path d="M504.406 1253.73L504.773 1253.88L504.408 1254.09L504.406 1253.73Z" fill="#E41968"/>
<path d="M504.404 1221.58L504.77 1221.73L504.406 1221.94L504.404 1221.58Z" fill="#E41968"/>
<path d="M504.399 1189.44L504.766 1189.58L504.401 1189.79L504.399 1189.44Z" fill="#E41968"/>
<path d="M504.399 1157.29L504.766 1157.43L504.401 1157.64L504.399 1157.29Z" fill="#E41968"/>
<path d="M504.402 1125.14L504.768 1125.29L504.403 1125.5L504.402 1125.14Z" fill="#E41968"/>
<path d="M504.399 1092.99L504.766 1093.14L504.401 1093.35L504.399 1092.99Z" fill="#E41968"/>
<path d="M504.404 1060.84L504.77 1060.99L504.406 1061.2L504.404 1060.84Z" fill="#E41968"/>
<path d="M504.397 1028.7L504.763 1028.85L504.399 1029.06L504.397 1028.7Z" fill="#E41968"/>
<path d="M504.392 996.549L504.759 996.696L504.394 996.905L504.392 996.549Z" fill="#E41968"/>
<path d="M504.397 964.404L504.763 964.551L504.399 964.76L504.397 964.404Z" fill="#E41968"/>
<path d="M504.39 932.256L504.756 932.402L504.391 932.611L504.39 932.256Z" fill="#E41968"/>
<path d="M504.39 900.105L504.756 900.251L504.391 900.46L504.39 900.105Z" fill="#E41968"/>
<path d="M504.387 867.963L504.754 868.11L504.389 868.319L504.387 867.963Z" fill="#E41968"/>
<path d="M504.387 835.814L504.754 835.96L504.389 836.169L504.387 835.814Z" fill="#E41968"/>
<path d="M504.385 803.673L504.751 803.82L504.387 804.029L504.385 803.673Z" fill="#E41968"/>
<path d="M504.383 771.526L504.749 771.672L504.384 771.882L504.383 771.526Z" fill="#E41968"/>
<path d="M504.373 739.375L504.74 739.522L504.375 739.731L504.373 739.375Z" fill="#E41968"/>
<path d="M504.383 707.231L504.749 707.378L504.384 707.587L504.383 707.231Z" fill="#E41968"/>
<path d="M504.38 675.083L504.747 675.229L504.382 675.438L504.38 675.083Z" fill="#E41968"/>
<path d="M504.38 642.934L504.747 643.081L504.382 643.29L504.38 642.934Z" fill="#E41968"/>
<path d="M504.375 610.787L504.742 610.933L504.377 611.143L504.375 610.787Z" fill="#E41968"/>
<path d="M504.378 578.637L504.744 578.784L504.38 578.993L504.378 578.637Z" fill="#E41968"/>
<path d="M504.378 546.494L504.744 546.641L504.38 546.85L504.378 546.494Z" fill="#E41968"/>
<path d="M504.371 514.348L504.737 514.495L504.372 514.704L504.371 514.348Z" fill="#E41968"/>
<path d="M504.368 482.206L504.735 482.352L504.37 482.561L504.368 482.206Z" fill="#E41968"/>
<path d="M504.373 450.056L504.74 450.202L504.375 450.412L504.373 450.056Z" fill="#E41968"/>
<path d="M504.373 417.906L504.74 418.053L504.375 418.262L504.373 417.906Z" fill="#E41968"/>
<path d="M504.366 385.76L504.732 385.907L504.368 386.116L504.366 385.76Z" fill="#E41968"/>
<path d="M504.366 353.617L504.732 353.764L504.368 353.973L504.366 353.617Z" fill="#E41968"/>
<path d="M504.361 321.468L504.728 321.614L504.363 321.823L504.361 321.468Z" fill="#E41968"/>
<path d="M504.359 289.318L504.725 289.465L504.361 289.674L504.359 289.318Z" fill="#E41968"/>
<path d="M504.364 257.168L504.73 257.315L504.365 257.524L504.364 257.168Z" fill="#E41968"/>
<path d="M504.364 225.026L504.73 225.172L504.365 225.381L504.364 225.026Z" fill="#E41968"/>
<path d="M504.354 192.88L504.721 193.026L504.356 193.235L504.354 192.88Z" fill="#E41968"/>
<path d="M504.359 128.587L504.725 128.734L504.361 128.943L504.359 128.587Z" fill="#E41968"/>
<path d="M504.361 96.4385L504.728 96.585L504.363 96.7943L504.361 96.4385Z" fill="#E41968"/>
<path d="M504.352 64.2911L504.718 64.4377L504.353 64.647L504.352 64.2911Z" fill="#E41968"/>
<path d="M504.345 32.1511L504.711 32.2976L504.346 32.5068L504.345 32.1511Z" fill="#E41968"/>
<path d="M504.349 0L504.716 0.146538L504.351 0.355826L504.349 0Z" fill="#E41968"/>
</svg>
