<svg width="204" height="1135" viewBox="0 0 204 1135" fill="none" xmlns="http://www.w3.org/2000/svg">
<g clip-path="url(#clip0_2226_50458)">
<path d="M-209.959 1066.8L-195.655 1073.6L-209.876 1082.84L-209.959 1066.8Z" fill="#E41968"/>
<path d="M-209.955 1040.44L-195.651 1047.24L-209.872 1056.48L-209.955 1040.44Z" fill="#E41968"/>
<path d="M-209.957 1014.08L-195.653 1020.87L-209.874 1030.11L-209.957 1014.08Z" fill="#E41968"/>
<path d="M-209.957 987.712L-195.653 994.509L-209.874 1003.75L-209.957 987.712Z" fill="#E41968"/>
<path d="M-209.959 961.35L-195.655 968.146L-209.876 977.387L-209.959 961.35Z" fill="#E41968"/>
<path d="M-209.955 934.985L-195.651 941.782L-209.872 951.023L-209.955 934.985Z" fill="#E41968"/>
<path d="M-209.959 908.623L-195.655 915.419L-209.876 924.66L-209.959 908.623Z" fill="#E41968"/>
<path d="M-209.971 882.26L-195.666 889.057L-209.888 898.297L-209.971 882.26Z" fill="#E41968"/>
<path d="M-209.963 855.895L-195.658 862.692L-209.88 871.933L-209.963 855.895Z" fill="#E41968"/>
<path d="M-209.967 829.535L-195.662 836.331L-209.884 845.572L-209.967 829.535Z" fill="#E41968"/>
<path d="M-209.969 803.168L-195.664 809.965L-209.886 819.206L-209.969 803.168Z" fill="#E41968"/>
<path d="M-209.969 776.805L-195.664 783.602L-209.886 792.843L-209.969 776.805Z" fill="#E41968"/>
<path d="M-209.965 750.442L-195.66 757.239L-209.882 766.479L-209.965 750.442Z" fill="#E41968"/>
<path d="M-209.971 724.081L-195.666 730.878L-209.888 740.119L-209.971 724.081Z" fill="#E41968"/>
<path d="M-209.971 697.718L-195.666 704.514L-209.888 713.755L-209.971 697.718Z" fill="#E41968"/>
<path d="M-209.971 671.351L-195.666 678.148L-209.888 687.388L-209.971 671.351Z" fill="#E41968"/>
<path d="M-209.969 644.988L-195.664 651.785L-209.886 661.026L-209.969 644.988Z" fill="#E41968"/>
<path d="M-209.975 618.628L-195.67 625.424L-209.892 634.665L-209.975 618.628Z" fill="#E41968"/>
<path d="M-209.971 592.263L-195.666 599.06L-209.888 608.3L-209.971 592.263Z" fill="#E41968"/>
<path d="M-209.977 565.897L-195.672 572.694L-209.894 581.935L-209.977 565.897Z" fill="#E41968"/>
<path d="M-209.981 539.536L-195.676 546.332L-209.897 555.573L-209.981 539.536Z" fill="#E41968"/>
<path d="M-209.981 513.172L-195.676 519.969L-209.897 529.21L-209.981 513.172Z" fill="#E41968"/>
<path d="M-209.982 486.809L-195.678 493.605L-209.899 502.846L-209.982 486.809Z" fill="#E41968"/>
<path d="M-209.986 460.45L-195.682 467.246L-209.903 476.487L-209.986 460.45Z" fill="#E41968"/>
<path d="M-209.982 434.083L-195.678 440.88L-209.899 450.121L-209.982 434.083Z" fill="#E41968"/>
<path d="M-209.981 407.721L-195.676 414.517L-209.897 423.758L-209.981 407.721Z" fill="#E41968"/>
<path d="M-209.982 381.356L-195.678 388.153L-209.899 397.393L-209.982 381.356Z" fill="#E41968"/>
<path d="M-209.99 354.996L-195.686 361.793L-209.907 371.034L-209.99 354.996Z" fill="#E41968"/>
<path d="M-209.988 328.631L-195.684 335.427L-209.905 344.668L-209.988 328.631Z" fill="#E41968"/>
<path d="M-209.992 302.271L-195.688 309.068L-209.909 318.308L-209.992 302.271Z" fill="#E41968"/>
<path d="M-209.994 275.906L-195.69 282.703L-209.911 291.944L-209.994 275.906Z" fill="#E41968"/>
<path d="M-209.99 249.54L-195.686 256.337L-209.907 265.577L-209.99 249.54Z" fill="#E41968"/>
<path d="M-209.99 223.18L-195.686 229.977L-209.907 239.218L-209.99 223.18Z" fill="#E41968"/>
<path d="M-209.992 196.815L-195.688 203.611L-209.909 212.852L-209.992 196.815Z" fill="#E41968"/>
<path d="M-209.992 170.452L-195.688 177.249L-209.909 186.489L-209.992 170.452Z" fill="#E41968"/>
<path d="M-209.988 144.086L-195.684 150.883L-209.905 160.124L-209.988 144.086Z" fill="#E41968"/>
<path d="M-210 117.73L-195.695 124.526L-209.917 133.767L-210 117.73Z" fill="#E41968"/>
<path d="M-210 91.364L-195.695 98.1607L-209.917 107.401L-210 91.364Z" fill="#E41968"/>
<path d="M-209.996 64.9984L-195.692 71.7951L-209.913 81.0358L-209.996 64.9984Z" fill="#E41968"/>
<path d="M-209.998 38.6357L-195.693 45.4324L-209.915 54.6732L-209.998 38.6357Z" fill="#E41968"/>
<path d="M-182.351 1078.28L-168.99 1084.64L-182.274 1093.29L-182.351 1078.28Z" fill="#E41968"/>
<path d="M-182.357 1051.91L-168.996 1058.28L-182.279 1066.92L-182.357 1051.91Z" fill="#E41968"/>
<path d="M-182.353 1025.55L-168.992 1031.91L-182.276 1040.56L-182.353 1025.55Z" fill="#E41968"/>
<path d="M-182.363 999.18L-169.002 1005.54L-182.285 1014.19L-182.363 999.18Z" fill="#E41968"/>
<path d="M-182.367 972.82L-169.006 979.185L-182.289 987.832L-182.367 972.82Z" fill="#E41968"/>
<path d="M-182.363 946.457L-169.002 952.822L-182.285 961.47L-182.363 946.457Z" fill="#E41968"/>
<path d="M-182.369 920.092L-169.008 926.456L-182.291 935.104L-182.369 920.092Z" fill="#E41968"/>
<path d="M-182.361 893.732L-169 900.097L-182.283 908.744L-182.361 893.732Z" fill="#E41968"/>
<path d="M-182.365 867.366L-169.004 873.731L-182.287 882.379L-182.365 867.366Z" fill="#E41968"/>
<path d="M-182.373 841.001L-169.012 847.366L-182.295 856.013L-182.373 841.001Z" fill="#E41968"/>
<path d="M-182.369 814.638L-169.008 821.003L-182.291 829.65L-182.369 814.638Z" fill="#E41968"/>
<path d="M-182.369 788.279L-169.008 794.643L-182.291 803.291L-182.369 788.279Z" fill="#E41968"/>
<path d="M-182.363 761.913L-169.002 768.278L-182.285 776.925L-182.363 761.913Z" fill="#E41968"/>
<path d="M-182.367 735.552L-169.006 741.917L-182.289 750.564L-182.367 735.552Z" fill="#E41968"/>
<path d="M-182.377 709.189L-169.016 715.553L-182.299 724.201L-182.377 709.189Z" fill="#E41968"/>
<path d="M-182.369 682.822L-169.008 689.187L-182.291 697.834L-182.369 682.822Z" fill="#E41968"/>
<path d="M-182.373 656.459L-169.012 662.824L-182.295 671.472L-182.373 656.459Z" fill="#E41968"/>
<path d="M-182.379 630.094L-169.018 636.459L-182.301 645.106L-182.379 630.094Z" fill="#E41968"/>
<path d="M-182.379 603.735L-169.018 610.1L-182.301 618.747L-182.379 603.735Z" fill="#E41968"/>
<path d="M-182.381 577.37L-169.02 583.734L-182.303 592.382L-182.381 577.37Z" fill="#E41968"/>
<path d="M-182.379 551.003L-169.018 557.368L-182.301 566.015L-182.379 551.003Z" fill="#E41968"/>
<path d="M-182.386 524.643L-169.025 531.008L-182.309 539.655L-182.386 524.643Z" fill="#E41968"/>
<path d="M-182.383 498.282L-169.022 504.646L-182.305 513.294L-182.383 498.282Z" fill="#E41968"/>
<path d="M-182.384 471.918L-169.023 478.283L-182.307 486.93L-182.384 471.918Z" fill="#E41968"/>
<path d="M-182.388 445.553L-169.027 451.918L-182.311 460.566L-182.388 445.553Z" fill="#E41968"/>
<path d="M-182.381 419.19L-169.02 425.554L-182.303 434.202L-182.381 419.19Z" fill="#E41968"/>
<path d="M-182.386 392.828L-169.025 399.193L-182.309 407.84L-182.386 392.828Z" fill="#E41968"/>
<path d="M-182.39 366.463L-169.029 372.827L-182.313 381.475L-182.39 366.463Z" fill="#E41968"/>
<path d="M-182.386 340.103L-169.025 346.467L-182.309 355.115L-182.386 340.103Z" fill="#E41968"/>
<path d="M-182.394 313.739L-169.033 320.104L-182.316 328.751L-182.394 313.739Z" fill="#E41968"/>
<path d="M-182.394 287.374L-169.033 293.738L-182.316 302.386L-182.394 287.374Z" fill="#E41968"/>
<path d="M-182.394 261.009L-169.033 267.374L-182.316 276.021L-182.394 261.009Z" fill="#E41968"/>
<path d="M-182.392 234.648L-169.031 241.013L-182.315 249.661L-182.392 234.648Z" fill="#E41968"/>
<path d="M-182.392 208.287L-169.031 214.651L-182.315 223.299L-182.392 208.287Z" fill="#E41968"/>
<path d="M-182.396 181.921L-169.035 188.286L-182.318 196.933L-182.396 181.921Z" fill="#E41968"/>
<path d="M-182.39 155.559L-169.029 161.923L-182.313 170.571L-182.39 155.559Z" fill="#E41968"/>
<path d="M-182.394 129.196L-169.033 135.56L-182.316 144.208L-182.394 129.196Z" fill="#E41968"/>
<path d="M-182.4 102.831L-169.039 109.196L-182.322 117.843L-182.4 102.831Z" fill="#E41968"/>
<path d="M-182.396 76.4705L-169.035 82.8351L-182.318 91.4827L-182.396 76.4705Z" fill="#E41968"/>
<path d="M-182.402 50.1078L-169.041 56.4726L-182.324 65.1201L-182.402 50.1078Z" fill="#E41968"/>
<path d="M-182.404 23.7414L-169.043 30.106L-182.326 38.7535L-182.404 23.7414Z" fill="#E41968"/>
<path d="M-154.792 1089.75L-142.337 1095.68L-154.72 1103.73L-154.792 1089.75Z" fill="#E41968"/>
<path d="M-154.798 1063.38L-142.343 1069.31L-154.726 1077.37L-154.798 1063.38Z" fill="#E41968"/>
<path d="M-154.798 1037.02L-142.343 1042.95L-154.726 1051.01L-154.798 1037.02Z" fill="#E41968"/>
<path d="M-154.8 1010.66L-142.345 1016.59L-154.728 1024.64L-154.8 1010.66Z" fill="#E41968"/>
<path d="M-154.802 984.291L-142.347 990.221L-154.73 998.278L-154.802 984.291Z" fill="#E41968"/>
<path d="M-154.806 957.928L-142.351 963.858L-154.734 971.915L-154.806 957.928Z" fill="#E41968"/>
<path d="M-154.802 931.569L-142.347 937.498L-154.73 945.556L-154.802 931.569Z" fill="#E41968"/>
<path d="M-154.804 905.202L-142.349 911.132L-154.732 919.189L-154.804 905.202Z" fill="#E41968"/>
<path d="M-154.796 878.842L-142.341 884.772L-154.724 892.829L-154.796 878.842Z" fill="#E41968"/>
<path d="M-154.804 852.477L-142.349 858.406L-154.732 866.464L-154.804 852.477Z" fill="#E41968"/>
<path d="M-154.81 826.115L-142.355 832.045L-154.737 840.102L-154.81 826.115Z" fill="#E41968"/>
<path d="M-154.802 799.747L-142.347 805.676L-154.73 813.734L-154.802 799.747Z" fill="#E41968"/>
<path d="M-154.806 773.39L-142.351 779.319L-154.734 787.377L-154.806 773.39Z" fill="#E41968"/>
<path d="M-154.814 747.023L-142.359 752.953L-154.741 761.01L-154.814 747.023Z" fill="#E41968"/>
<path d="M-154.81 720.662L-142.355 726.591L-154.737 734.649L-154.81 720.662Z" fill="#E41968"/>
<path d="M-154.81 694.295L-142.355 700.225L-154.737 708.282L-154.81 694.295Z" fill="#E41968"/>
<path d="M-154.812 667.933L-142.357 673.862L-154.739 681.919L-154.812 667.933Z" fill="#E41968"/>
<path d="M-154.812 641.572L-142.357 647.501L-154.739 655.559L-154.812 641.572Z" fill="#E41968"/>
<path d="M-154.82 615.207L-142.364 621.137L-154.747 629.194L-154.82 615.207Z" fill="#E41968"/>
<path d="M-154.818 588.843L-142.363 594.772L-154.745 602.83L-154.818 588.843Z" fill="#E41968"/>
<path d="M-154.818 562.48L-142.363 568.409L-154.745 576.467L-154.818 562.48Z" fill="#E41968"/>
<path d="M-154.816 536.116L-142.361 542.046L-154.743 550.103L-154.816 536.116Z" fill="#E41968"/>
<path d="M-154.82 509.757L-142.364 515.686L-154.747 523.744L-154.82 509.757Z" fill="#E41968"/>
<path d="M-154.822 483.393L-142.366 489.322L-154.749 497.38L-154.822 483.393Z" fill="#E41968"/>
<path d="M-154.824 457.03L-142.368 462.96L-154.751 471.017L-154.824 457.03Z" fill="#E41968"/>
<path d="M-154.824 430.664L-142.368 436.593L-154.751 444.651L-154.824 430.664Z" fill="#E41968"/>
<path d="M-154.82 404.298L-142.364 410.228L-154.747 418.285L-154.82 404.298Z" fill="#E41968"/>
<path d="M-154.825 377.94L-142.37 383.869L-154.753 391.927L-154.825 377.94Z" fill="#E41968"/>
<path d="M-154.829 351.577L-142.374 357.506L-154.757 365.564L-154.829 351.577Z" fill="#E41968"/>
<path d="M-154.825 325.216L-142.37 331.146L-154.753 339.203L-154.825 325.216Z" fill="#E41968"/>
<path d="M-154.831 298.848L-142.376 304.777L-154.759 312.835L-154.831 298.848Z" fill="#E41968"/>
<path d="M-154.824 272.485L-142.368 278.414L-154.751 286.472L-154.824 272.485Z" fill="#E41968"/>
<path d="M-154.824 246.122L-142.368 252.052L-154.751 260.109L-154.824 246.122Z" fill="#E41968"/>
<path d="M-154.835 219.758L-142.38 225.687L-154.763 233.745L-154.835 219.758Z" fill="#E41968"/>
<path d="M-154.831 193.395L-142.376 199.325L-154.759 207.382L-154.831 193.395Z" fill="#E41968"/>
<path d="M-154.831 167.032L-142.376 172.962L-154.759 181.019L-154.831 167.032Z" fill="#E41968"/>
<path d="M-154.829 140.672L-142.374 146.601L-154.757 154.659L-154.829 140.672Z" fill="#E41968"/>
<path d="M-154.833 114.307L-142.378 120.237L-154.761 128.294L-154.833 114.307Z" fill="#E41968"/>
<path d="M-154.837 87.9445L-142.382 93.874L-154.765 101.932L-154.837 87.9445Z" fill="#E41968"/>
<path d="M-154.839 61.5781L-142.384 67.5075L-154.767 75.565L-154.839 61.5781Z" fill="#E41968"/>
<path d="M-154.843 35.2124L-142.388 41.1419L-154.771 49.1994L-154.843 35.2124Z" fill="#E41968"/>
<path d="M-127.231 1074.89L-115.682 1080.35L-127.164 1087.82L-127.231 1074.89Z" fill="#E41968"/>
<path d="M-127.229 1048.53L-115.68 1053.99L-127.162 1061.42L-127.229 1048.53Z" fill="#E41968"/>
<path d="M-127.237 1022.17L-115.688 1027.62L-127.17 1035.05L-127.237 1022.17Z" fill="#E41968"/>
<path d="M-127.237 995.807L-115.688 1001.26L-127.17 1008.7L-127.237 995.807Z" fill="#E41968"/>
<path d="M-127.239 969.443L-115.69 974.9L-127.172 982.331L-127.239 969.443Z" fill="#E41968"/>
<path d="M-127.235 943.075L-115.686 948.532L-127.168 956L-127.235 943.075Z" fill="#E41968"/>
<path d="M-127.235 916.71L-115.686 922.168L-127.168 929.599L-127.235 916.71Z" fill="#E41968"/>
<path d="M-127.239 890.353L-115.69 895.81L-127.172 903.241L-127.239 890.353Z" fill="#E41968"/>
<path d="M-127.243 863.987L-115.694 869.445L-127.176 876.876L-127.243 863.987Z" fill="#E41968"/>
<path d="M-127.239 837.619L-115.69 843.076L-127.172 850.507L-127.239 837.619Z" fill="#E41968"/>
<path d="M-127.241 811.261L-115.692 816.719L-127.174 824.186L-127.241 811.261Z" fill="#E41968"/>
<path d="M-127.245 784.899L-115.695 790.357L-127.178 797.788L-127.245 784.899Z" fill="#E41968"/>
<path d="M-127.249 758.535L-115.699 763.992L-127.182 771.423L-127.249 758.535Z" fill="#E41968"/>
<path d="M-127.25 732.175L-115.701 737.632L-127.184 745.063L-127.25 732.175Z" fill="#E41968"/>
<path d="M-127.247 705.809L-115.697 711.267L-127.18 718.698L-127.247 705.809Z" fill="#E41968"/>
<path d="M-127.253 679.443L-115.703 684.901L-127.186 692.368L-127.253 679.443Z" fill="#E41968"/>
<path d="M-127.258 653.081L-115.709 658.539L-127.192 665.97L-127.258 653.081Z" fill="#E41968"/>
<path d="M-127.254 626.715L-115.705 632.173L-127.188 639.604L-127.254 626.715Z" fill="#E41968"/>
<path d="M-127.258 600.355L-115.709 605.812L-127.192 613.243L-127.258 600.355Z" fill="#E41968"/>
<path d="M-127.252 573.989L-115.703 579.447L-127.186 586.878L-127.252 573.989Z" fill="#E41968"/>
<path d="M-127.26 547.63L-115.711 553.088L-127.193 560.555L-127.26 547.63Z" fill="#E41968"/>
<path d="M-127.252 521.265L-115.703 526.723L-127.186 534.153L-127.252 521.265Z" fill="#E41968"/>
<path d="M-127.258 494.902L-115.709 500.36L-127.192 507.791L-127.258 494.902Z" fill="#E41968"/>
<path d="M-127.258 468.543L-115.709 474L-127.192 481.431L-127.258 468.543Z" fill="#E41968"/>
<path d="M-127.258 442.176L-115.709 447.634L-127.192 455.065L-127.258 442.176Z" fill="#E41968"/>
<path d="M-127.26 415.811L-115.711 421.268L-127.193 428.736L-127.26 415.811Z" fill="#E41968"/>
<path d="M-127.256 389.449L-115.707 394.906L-127.19 402.337L-127.256 389.449Z" fill="#E41968"/>
<path d="M-127.264 363.083L-115.715 368.541L-127.197 375.972L-127.264 363.083Z" fill="#E41968"/>
<path d="M-127.268 336.723L-115.719 342.181L-127.201 349.612L-127.268 336.723Z" fill="#E41968"/>
<path d="M-127.264 310.358L-115.715 315.815L-127.197 323.246L-127.264 310.358Z" fill="#E41968"/>
<path d="M-127.266 283.999L-115.717 289.456L-127.199 296.924L-127.266 283.999Z" fill="#E41968"/>
<path d="M-127.266 257.634L-115.717 263.091L-127.199 270.522L-127.266 257.634Z" fill="#E41968"/>
<path d="M-127.266 231.27L-115.717 236.728L-127.199 244.158L-127.266 231.27Z" fill="#E41968"/>
<path d="M-127.268 204.904L-115.719 210.362L-127.201 217.793L-127.268 204.904Z" fill="#E41968"/>
<path d="M-127.264 178.545L-115.715 184.002L-127.197 191.433L-127.264 178.545Z" fill="#E41968"/>
<path d="M-127.278 152.18L-115.729 157.637L-127.211 165.105L-127.278 152.18Z" fill="#E41968"/>
<path d="M-127.272 125.817L-115.723 131.275L-127.205 138.706L-127.272 125.817Z" fill="#E41968"/>
<path d="M-127.276 99.4519L-115.727 104.91L-127.209 112.34L-127.276 99.4519Z" fill="#E41968"/>
<path d="M-127.28 73.0912L-115.731 78.5487L-127.213 85.9797L-127.28 73.0912Z" fill="#E41968"/>
<path d="M-127.278 46.7256L-115.729 52.1833L-127.211 59.6141L-127.278 46.7256Z" fill="#E41968"/>
<path d="M-127.278 20.3624L-115.729 25.8201L-127.211 33.2876L-127.278 20.3624Z" fill="#E41968"/>
<path d="M-99.6229 1086.4L-89.0927 1091.39L-99.5618 1098.19L-99.6229 1086.4Z" fill="#E41968"/>
<path d="M-99.6268 1060.04L-89.0966 1065.03L-99.5657 1071.83L-99.6268 1060.04Z" fill="#E41968"/>
<path d="M-99.6326 1033.68L-89.1024 1038.67L-99.5715 1045.47L-99.6326 1033.68Z" fill="#E41968"/>
<path d="M-99.6346 1007.31L-89.1044 1012.31L-99.5735 1019.1L-99.6346 1007.31Z" fill="#E41968"/>
<path d="M-99.6385 980.943L-89.1083 985.938L-99.5774 992.733L-99.6385 980.943Z" fill="#E41968"/>
<path d="M-99.6346 954.584L-89.1044 959.58L-99.5735 966.374L-99.6346 954.584Z" fill="#E41968"/>
<path d="M-99.6404 928.222L-89.1102 933.217L-99.5793 940.012L-99.6404 928.222Z" fill="#E41968"/>
<path d="M-99.6404 901.857L-89.1102 906.852L-99.5793 913.647L-99.6404 901.857Z" fill="#E41968"/>
<path d="M-99.6385 875.495L-89.1083 880.491L-99.5774 887.285L-99.6385 875.495Z" fill="#E41968"/>
<path d="M-99.6385 849.131L-89.1083 854.126L-99.5774 860.921L-99.6385 849.131Z" fill="#E41968"/>
<path d="M-99.6385 822.77L-89.1083 827.766L-99.5774 834.56L-99.6385 822.77Z" fill="#E41968"/>
<path d="M-99.6424 796.4L-89.1122 801.395L-99.5813 808.19L-99.6424 796.4Z" fill="#E41968"/>
<path d="M-99.6424 770.041L-89.1122 775.036L-99.5813 781.831L-99.6424 770.041Z" fill="#E41968"/>
<path d="M-99.6385 743.677L-89.1083 748.673L-99.5774 755.467L-99.6385 743.677Z" fill="#E41968"/>
<path d="M-99.6482 717.313L-89.118 722.308L-99.5871 729.103L-99.6482 717.313Z" fill="#E41968"/>
<path d="M-99.6443 690.952L-89.1141 695.947L-99.5832 702.742L-99.6443 690.952Z" fill="#E41968"/>
<path d="M-99.6443 664.586L-89.1141 669.582L-99.5832 676.376L-99.6443 664.586Z" fill="#E41968"/>
<path d="M-99.6502 638.224L-89.12 643.219L-99.5891 650.014L-99.6502 638.224Z" fill="#E41968"/>
<path d="M-99.6463 611.863L-89.1161 616.859L-99.5852 623.653L-99.6463 611.863Z" fill="#E41968"/>
<path d="M-99.6502 585.499L-89.12 590.495L-99.5891 597.289L-99.6502 585.499Z" fill="#E41968"/>
<path d="M-99.658 559.135L-89.1278 564.13L-99.5969 570.925L-99.658 559.135Z" fill="#E41968"/>
<path d="M-99.6541 532.768L-89.1239 537.764L-99.593 544.558L-99.6541 532.768Z" fill="#E41968"/>
<path d="M-99.6618 506.406L-89.1317 511.401L-99.6008 518.196L-99.6618 506.406Z" fill="#E41968"/>
<path d="M-99.6521 480.046L-89.1219 485.041L-99.591 491.836L-99.6521 480.046Z" fill="#E41968"/>
<path d="M-99.6599 453.681L-89.1297 458.677L-99.5988 465.471L-99.6599 453.681Z" fill="#E41968"/>
<path d="M-99.6638 427.318L-89.1336 432.313L-99.6027 439.108L-99.6638 427.318Z" fill="#E41968"/>
<path d="M-99.658 400.955L-89.1278 405.951L-99.5969 412.745L-99.658 400.955Z" fill="#E41968"/>
<path d="M-99.6618 374.591L-89.1317 379.587L-99.6008 386.382L-99.6618 374.591Z" fill="#E41968"/>
<path d="M-99.6618 348.233L-89.1317 353.228L-99.6008 360.023L-99.6618 348.233Z" fill="#E41968"/>
<path d="M-99.6696 321.87L-89.1395 326.865L-99.6086 333.66L-99.6696 321.87Z" fill="#E41968"/>
<path d="M-99.6696 295.503L-89.1395 300.499L-99.6086 307.294L-99.6696 295.503Z" fill="#E41968"/>
<path d="M-99.6716 269.139L-89.1414 274.134L-99.6105 280.929L-99.6716 269.139Z" fill="#E41968"/>
<path d="M-99.6716 242.774L-89.1414 247.77L-99.6105 254.564L-99.6716 242.774Z" fill="#E41968"/>
<path d="M-99.6677 216.415L-89.1375 221.41L-99.6066 228.205L-99.6677 216.415Z" fill="#E41968"/>
<path d="M-99.6696 190.051L-89.1395 195.046L-99.6086 201.841L-99.6696 190.051Z" fill="#E41968"/>
<path d="M-99.6735 163.686L-89.1434 168.682L-99.6125 175.476L-99.6735 163.686Z" fill="#E41968"/>
<path d="M-99.6657 137.322L-89.1356 142.317L-99.6047 149.112L-99.6657 137.322Z" fill="#E41968"/>
<path d="M-99.6716 110.96L-89.1414 115.956L-99.6105 122.75L-99.6716 110.96Z" fill="#E41968"/>
<path d="M-99.6716 84.5976L-89.1414 89.593L-99.6105 96.3875L-99.6716 84.5976Z" fill="#E41968"/>
<path d="M-99.6716 58.2377L-89.1414 63.2331L-99.6105 70.0278L-99.6716 58.2377Z" fill="#E41968"/>
<path d="M-99.6755 31.8722L-89.1453 36.8677L-99.6144 43.6622L-99.6755 31.8722Z" fill="#E41968"/>
<path d="M-72.0346 1124.24L-62.4479 1128.8L-71.9789 1135L-72.0346 1124.24Z" fill="#E41968"/>
<path d="M-72.0268 1097.87L-62.4401 1102.44L-71.9711 1108.64L-72.0268 1097.87Z" fill="#E41968"/>
<path d="M-72.0366 1071.51L-62.4499 1076.07L-71.9808 1082.28L-72.0366 1071.51Z" fill="#E41968"/>
<path d="M-72.0327 1045.14L-62.446 1049.71L-71.9769 1055.91L-72.0327 1045.14Z" fill="#E41968"/>
<path d="M-72.0366 1018.78L-62.4499 1023.34L-71.9808 1029.55L-72.0366 1018.78Z" fill="#E41968"/>
<path d="M-72.0405 992.418L-62.4538 996.982L-71.9847 1003.18L-72.0405 992.418Z" fill="#E41968"/>
<path d="M-72.0405 966.052L-62.4538 970.616L-71.9847 976.817L-72.0405 966.052Z" fill="#E41968"/>
<path d="M-72.0444 939.694L-62.4577 944.257L-71.9886 950.459L-72.0444 939.694Z" fill="#E41968"/>
<path d="M-72.0502 913.329L-62.4635 917.893L-71.9945 924.094L-72.0502 913.329Z" fill="#E41968"/>
<path d="M-72.0463 886.964L-62.4596 891.527L-71.9906 897.728L-72.0463 886.964Z" fill="#E41968"/>
<path d="M-72.0463 860.6L-62.4596 865.163L-71.9906 871.365L-72.0463 860.6Z" fill="#E41968"/>
<path d="M-72.0405 834.237L-62.4538 838.801L-71.9847 845.002L-72.0405 834.237Z" fill="#E41968"/>
<path d="M-72.0444 807.872L-62.4577 812.435L-71.9886 818.637L-72.0444 807.872Z" fill="#E41968"/>
<path d="M-72.0444 781.511L-62.4577 786.075L-71.9886 792.276L-72.0444 781.511Z" fill="#E41968"/>
<path d="M-72.0463 755.149L-62.4596 759.713L-71.9906 765.914L-72.0463 755.149Z" fill="#E41968"/>
<path d="M-72.0483 728.786L-62.4616 733.349L-71.9925 739.551L-72.0483 728.786Z" fill="#E41968"/>
<path d="M-72.0502 702.419L-62.4635 706.983L-71.9945 713.184L-72.0502 702.419Z" fill="#E41968"/>
<path d="M-72.0502 676.053L-62.4635 680.616L-71.9945 686.818L-72.0502 676.053Z" fill="#E41968"/>
<path d="M-72.0502 649.692L-62.4635 654.255L-71.9945 660.457L-72.0502 649.692Z" fill="#E41968"/>
<path d="M-72.0561 623.334L-62.4694 627.898L-72.0003 634.099L-72.0561 623.334Z" fill="#E41968"/>
<path d="M-72.06 596.969L-62.4733 601.532L-72.0042 607.733L-72.06 596.969Z" fill="#E41968"/>
<path d="M-72.0561 570.605L-62.4694 575.168L-72.0003 581.37L-72.0561 570.605Z" fill="#E41968"/>
<path d="M-72.058 544.244L-62.4713 548.808L-72.0022 555.009L-72.058 544.244Z" fill="#E41968"/>
<path d="M-72.0639 517.879L-62.4772 522.442L-72.0081 528.644L-72.0639 517.879Z" fill="#E41968"/>
<path d="M-72.0541 491.516L-62.4674 496.079L-71.9984 502.281L-72.0541 491.516Z" fill="#E41968"/>
<path d="M-72.0658 465.155L-62.4791 469.719L-72.01 475.92L-72.0658 465.155Z" fill="#E41968"/>
<path d="M-72.0619 438.787L-62.4752 443.35L-72.0061 449.552L-72.0619 438.787Z" fill="#E41968"/>
<path d="M-72.0658 412.424L-62.4791 416.988L-72.01 423.189L-72.0658 412.424Z" fill="#E41968"/>
<path d="M-72.06 386.064L-62.4733 390.627L-72.0042 396.828L-72.06 386.064Z" fill="#E41968"/>
<path d="M-72.0639 359.702L-62.4772 364.265L-72.0081 370.467L-72.0639 359.702Z" fill="#E41968"/>
<path d="M-72.0677 333.334L-62.481 337.898L-72.012 344.099L-72.0677 333.334Z" fill="#E41968"/>
<path d="M-72.0658 306.972L-62.4791 311.535L-72.01 317.737L-72.0658 306.972Z" fill="#E41968"/>
<path d="M-72.0658 280.612L-62.4791 285.175L-72.01 291.377L-72.0658 280.612Z" fill="#E41968"/>
<path d="M-72.0717 254.249L-62.485 258.813L-72.0159 265.014L-72.0717 254.249Z" fill="#E41968"/>
<path d="M-72.0697 227.884L-62.483 232.447L-72.0139 238.649L-72.0697 227.884Z" fill="#E41968"/>
<path d="M-72.0736 201.523L-62.4869 206.087L-72.0178 212.288L-72.0736 201.523Z" fill="#E41968"/>
<path d="M-72.0736 175.155L-62.4869 179.718L-72.0178 185.919L-72.0736 175.155Z" fill="#E41968"/>
<path d="M-72.0717 148.792L-62.485 153.355L-72.0159 159.557L-72.0717 148.792Z" fill="#E41968"/>
<path d="M-72.0755 122.429L-62.4888 126.993L-72.0198 133.194L-72.0755 122.429Z" fill="#E41968"/>
<path d="M-72.0755 96.0695L-62.4888 100.633L-72.0198 106.834L-72.0755 96.0695Z" fill="#E41968"/>
<path d="M-72.0775 69.705L-62.4908 74.2684L-72.0217 80.4698L-72.0775 69.705Z" fill="#E41968"/>
<path d="M-72.0736 43.3394L-62.4869 47.9028L-72.0178 54.1042L-72.0736 43.3394Z" fill="#E41968"/>
<path d="M-72.0853 16.9797L-62.4986 21.5431L-72.0295 27.7445L-72.0853 16.9797Z" fill="#E41968"/>
<path d="M-44.432 1109.42L-35.8268 1113.48L-44.3823 1119.01L-44.432 1109.42Z" fill="#E41968"/>
<path d="M-44.4242 1083.05L-35.819 1087.11L-44.3745 1092.65L-44.4242 1083.05Z" fill="#E41968"/>
<path d="M-44.4339 1056.69L-35.8287 1060.75L-44.3842 1066.28L-44.4339 1056.69Z" fill="#E41968"/>
<path d="M-44.4378 1030.32L-35.8326 1034.38L-44.3881 1039.92L-44.4378 1030.32Z" fill="#E41968"/>
<path d="M-44.4378 1003.96L-35.8326 1008.02L-44.3881 1013.55L-44.4378 1003.96Z" fill="#E41968"/>
<path d="M-44.4359 977.6L-35.8306 981.661L-44.3862 987.193L-44.4359 977.6Z" fill="#E41968"/>
<path d="M-44.432 951.231L-35.8268 955.293L-44.3823 960.824L-44.432 951.231Z" fill="#E41968"/>
<path d="M-44.432 924.87L-35.8268 928.931L-44.3823 934.463L-44.432 924.87Z" fill="#E41968"/>
<path d="M-44.4378 898.506L-35.8326 902.568L-44.3881 908.099L-44.4378 898.506Z" fill="#E41968"/>
<path d="M-44.4437 872.146L-35.8384 876.208L-44.394 881.739L-44.4437 872.146Z" fill="#E41968"/>
<path d="M-44.4476 845.783L-35.8423 849.844L-44.3979 855.376L-44.4476 845.783Z" fill="#E41968"/>
<path d="M-44.4456 819.415L-35.8404 823.477L-44.3959 829.008L-44.4456 819.415Z" fill="#E41968"/>
<path d="M-44.4495 793.055L-35.8443 797.117L-44.3998 802.649L-44.4495 793.055Z" fill="#E41968"/>
<path d="M-44.4495 766.693L-35.8443 770.754L-44.3998 776.286L-44.4495 766.693Z" fill="#E41968"/>
<path d="M-44.4476 740.329L-35.8423 744.391L-44.3979 749.922L-44.4476 740.329Z" fill="#E41968"/>
<path d="M-44.4476 713.965L-35.8423 718.026L-44.3979 723.558L-44.4476 713.965Z" fill="#E41968"/>
<path d="M-44.4456 687.603L-35.8404 691.664L-44.3959 697.196L-44.4456 687.603Z" fill="#E41968"/>
<path d="M-44.4456 661.239L-35.8404 665.301L-44.3959 670.832L-44.4456 661.239Z" fill="#E41968"/>
<path d="M-44.4554 634.875L-35.8501 638.936L-44.4057 644.468L-44.4554 634.875Z" fill="#E41968"/>
<path d="M-44.4534 608.511L-35.8482 612.573L-44.4037 618.104L-44.4534 608.511Z" fill="#E41968"/>
<path d="M-44.4573 582.148L-35.8521 586.21L-44.4076 591.742L-44.4573 582.148Z" fill="#E41968"/>
<path d="M-44.4573 555.788L-35.8521 559.849L-44.4076 565.381L-44.4573 555.788Z" fill="#E41968"/>
<path d="M-44.4593 529.42L-35.854 533.482L-44.4096 539.013L-44.4593 529.42Z" fill="#E41968"/>
<path d="M-44.4593 503.058L-35.854 507.119L-44.4096 512.651L-44.4593 503.058Z" fill="#E41968"/>
<path d="M-44.4554 476.696L-35.8501 480.757L-44.4057 486.289L-44.4554 476.696Z" fill="#E41968"/>
<path d="M-44.4573 450.335L-35.8521 454.397L-44.4076 459.928L-44.4573 450.335Z" fill="#E41968"/>
<path d="M-44.4612 423.971L-35.856 428.032L-44.4115 433.564L-44.4612 423.971Z" fill="#E41968"/>
<path d="M-44.4632 397.605L-35.8579 401.666L-44.4135 407.198L-44.4632 397.605Z" fill="#E41968"/>
<path d="M-44.469 371.242L-35.8638 375.304L-44.4193 380.836L-44.469 371.242Z" fill="#E41968"/>
<path d="M-44.4651 344.877L-35.8599 348.938L-44.4154 354.47L-44.4651 344.877Z" fill="#E41968"/>
<path d="M-44.4612 318.518L-35.856 322.579L-44.4115 328.111L-44.4612 318.518Z" fill="#E41968"/>
<path d="M-44.4709 292.155L-35.8657 296.217L-44.4213 301.749L-44.4709 292.155Z" fill="#E41968"/>
<path d="M-44.4709 265.79L-35.8657 269.851L-44.4213 275.383L-44.4709 265.79Z" fill="#E41968"/>
<path d="M-44.4748 239.425L-35.8696 243.487L-44.4252 249.018L-44.4748 239.425Z" fill="#E41968"/>
<path d="M-44.4768 213.064L-35.8716 217.125L-44.4271 222.657L-44.4768 213.064Z" fill="#E41968"/>
<path d="M-44.4729 186.698L-35.8677 190.759L-44.4232 196.291L-44.4729 186.698Z" fill="#E41968"/>
<path d="M-44.4787 160.335L-35.8735 164.397L-44.4291 169.929L-44.4787 160.335Z" fill="#E41968"/>
<path d="M-44.4768 133.973L-35.8716 138.034L-44.4271 143.566L-44.4768 133.973Z" fill="#E41968"/>
<path d="M-44.4768 107.609L-35.8716 111.671L-44.4271 117.202L-44.4768 107.609Z" fill="#E41968"/>
<path d="M-44.4846 81.2445L-35.8794 85.3059L-44.4349 90.8376L-44.4846 81.2445Z" fill="#E41968"/>
<path d="M-44.4787 54.8858L-35.8735 58.9472L-44.4291 64.4789L-44.4787 54.8858Z" fill="#E41968"/>
<path d="M-44.4826 28.5231L-35.8774 32.5845L-44.433 38.1163L-44.4826 28.5231Z" fill="#E41968"/>
<path d="M-16.901 1120.82L-9.12599 1124.51L-16.8559 1129.53L-16.901 1120.82Z" fill="#E41968"/>
<path d="M-16.9068 1094.45L-9.13185 1098.15L-16.8617 1103.17L-16.9068 1094.45Z" fill="#E41968"/>
<path d="M-16.903 1068.09L-9.12794 1071.79L-16.8578 1076.81L-16.903 1068.09Z" fill="#E41968"/>
<path d="M-16.9088 1041.73L-9.13379 1045.42L-16.8637 1050.44L-16.9088 1041.73Z" fill="#E41968"/>
<path d="M-16.9146 1015.36L-9.13965 1019.06L-16.8695 1024.08L-16.9146 1015.36Z" fill="#E41968"/>
<path d="M-16.9068 989.001L-9.13185 992.694L-16.8617 997.715L-16.9068 989.001Z" fill="#E41968"/>
<path d="M-16.9146 962.64L-9.13965 966.333L-16.8695 971.354L-16.9146 962.64Z" fill="#E41968"/>
<path d="M-16.9166 936.277L-9.14159 939.97L-16.8715 944.992L-16.9166 936.277Z" fill="#E41968"/>
<path d="M-16.9205 909.913L-9.14549 913.606L-16.8754 918.627L-16.9205 909.913Z" fill="#E41968"/>
<path d="M-16.9146 883.546L-9.13965 887.239L-16.8695 892.26L-16.9146 883.546Z" fill="#E41968"/>
<path d="M-16.9185 857.185L-9.14354 860.878L-16.8734 865.9L-16.9185 857.185Z" fill="#E41968"/>
<path d="M-16.9244 830.823L-9.14938 834.516L-16.8793 839.537L-16.9244 830.823Z" fill="#E41968"/>
<path d="M-16.9224 804.459L-9.14745 808.152L-16.8773 813.174L-16.9224 804.459Z" fill="#E41968"/>
<path d="M-16.9263 778.099L-9.15134 781.792L-16.8812 786.814L-16.9263 778.099Z" fill="#E41968"/>
<path d="M-16.9302 751.731L-9.15523 755.424L-16.8851 760.445L-16.9302 751.731Z" fill="#E41968"/>
<path d="M-16.9322 725.368L-9.15718 729.061L-16.8871 734.083L-16.9322 725.368Z" fill="#E41968"/>
<path d="M-16.9322 699.004L-9.15718 702.697L-16.8871 707.718L-16.9322 699.004Z" fill="#E41968"/>
<path d="M-16.9283 672.643L-9.15329 676.336L-16.8831 681.357L-16.9283 672.643Z" fill="#E41968"/>
<path d="M-16.9302 646.28L-9.15523 649.973L-16.8851 654.995L-16.9302 646.28Z" fill="#E41968"/>
<path d="M-16.9302 619.915L-9.15523 623.608L-16.8851 628.629L-16.9302 619.915Z" fill="#E41968"/>
<path d="M-16.9302 593.55L-9.15523 597.243L-16.8851 602.265L-16.9302 593.55Z" fill="#E41968"/>
<path d="M-16.938 567.186L-9.16302 570.879L-16.8929 575.9L-16.938 567.186Z" fill="#E41968"/>
<path d="M-16.9244 540.825L-9.14938 544.518L-16.8793 549.539L-16.9244 540.825Z" fill="#E41968"/>
<path d="M-16.938 514.46L-9.16302 518.153L-16.8929 523.175L-16.938 514.46Z" fill="#E41968"/>
<path d="M-16.94 488.099L-9.16498 491.792L-16.8949 496.813L-16.94 488.099Z" fill="#E41968"/>
<path d="M-16.9361 461.736L-9.16109 465.429L-16.8909 470.45L-16.9361 461.736Z" fill="#E41968"/>
<path d="M-16.9361 435.37L-9.16109 439.063L-16.8909 444.085L-16.9361 435.37Z" fill="#E41968"/>
<path d="M-16.938 409.011L-9.16302 412.704L-16.8929 417.725L-16.938 409.011Z" fill="#E41968"/>
<path d="M-16.9341 382.648L-9.15913 386.341L-16.889 391.362L-16.9341 382.648Z" fill="#E41968"/>
<path d="M-16.938 356.283L-9.16302 359.977L-16.8929 364.998L-16.938 356.283Z" fill="#E41968"/>
<path d="M-16.94 329.918L-9.16498 333.611L-16.8949 338.632L-16.94 329.918Z" fill="#E41968"/>
<path d="M-16.9419 303.558L-9.16693 307.251L-16.8968 312.273L-16.9419 303.558Z" fill="#E41968"/>
<path d="M-16.9419 277.193L-9.16693 280.886L-16.8968 285.907L-16.9419 277.193Z" fill="#E41968"/>
<path d="M-16.9439 250.829L-9.16888 254.522L-16.8987 259.543L-16.9439 250.829Z" fill="#E41968"/>
<path d="M-16.9478 224.469L-9.17278 228.162L-16.9026 233.184L-16.9478 224.469Z" fill="#E41968"/>
<path d="M-16.9497 198.105L-9.17473 201.798L-16.9046 206.819L-16.9497 198.105Z" fill="#E41968"/>
<path d="M-16.9497 171.739L-9.17473 175.432L-16.9046 180.453L-16.9497 171.739Z" fill="#E41968"/>
<path d="M-16.9497 145.376L-9.17473 149.069L-16.9046 154.091L-16.9497 145.376Z" fill="#E41968"/>
<path d="M-16.9478 119.017L-9.17278 122.71L-16.9026 127.731L-16.9478 119.017Z" fill="#E41968"/>
<path d="M-16.9517 92.6521L-9.17668 96.3451L-16.9065 101.367L-16.9517 92.6521Z" fill="#E41968"/>
<path d="M-16.9536 66.2855L-9.17862 69.9785L-16.9085 75L-16.9536 66.2855Z" fill="#E41968"/>
<path d="M-16.9556 39.9258L-9.18057 43.6188L-16.9104 48.6402L-16.9556 39.9258Z" fill="#E41968"/>
<path d="M-16.9556 13.5602L-9.18057 17.2532L-16.9104 22.2747L-16.9556 13.5602Z" fill="#E41968"/>
<path d="M10.8454 1106.13L17.2995 1109.21L10.883 1113.38L10.8454 1106.13Z" fill="#E41968"/>
<path d="M10.8454 1079.77L17.2995 1082.84L10.883 1087.02L10.8454 1079.77Z" fill="#E41968"/>
<path d="M10.8338 1053.4L17.2878 1056.48L10.8713 1060.65L10.8338 1053.4Z" fill="#E41968"/>
<path d="M10.8474 1027.04L17.3015 1030.12L10.8849 1034.29L10.8474 1027.04Z" fill="#E41968"/>
<path d="M10.8396 1000.68L17.2937 1003.75L10.8772 1007.93L10.8396 1000.68Z" fill="#E41968"/>
<path d="M10.8396 974.314L17.2937 977.388L10.8772 981.564L10.8396 974.314Z" fill="#E41968"/>
<path d="M10.8357 947.952L17.2898 951.025L10.8732 955.201L10.8357 947.952Z" fill="#E41968"/>
<path d="M10.8318 921.59L17.2859 924.663L10.8694 928.84L10.8318 921.59Z" fill="#E41968"/>
<path d="M10.8396 895.223L17.2937 898.297L10.8772 902.473L10.8396 895.223Z" fill="#E41968"/>
<path d="M10.8338 868.862L17.2878 871.935L10.8713 876.112L10.8338 868.862Z" fill="#E41968"/>
<path d="M10.8338 842.496L17.2878 845.57L10.8713 849.746L10.8338 842.496Z" fill="#E41968"/>
<path d="M10.8298 816.136L17.2839 819.21L10.8674 823.386L10.8298 816.136Z" fill="#E41968"/>
<path d="M10.8318 789.771L17.2859 792.844L10.8694 797.021L10.8318 789.771Z" fill="#E41968"/>
<path d="M10.8318 763.408L17.2859 766.482L10.8694 770.658L10.8318 763.408Z" fill="#E41968"/>
<path d="M10.8279 737.049L17.282 740.122L10.8654 744.298L10.8279 737.049Z" fill="#E41968"/>
<path d="M10.8201 710.684L17.2742 713.757L10.8577 717.934L10.8201 710.684Z" fill="#E41968"/>
<path d="M10.8279 684.316L17.282 687.39L10.8654 691.566L10.8279 684.316Z" fill="#E41968"/>
<path d="M10.8221 657.956L17.2761 661.029L10.8596 665.205L10.8221 657.956Z" fill="#E41968"/>
<path d="M10.826 631.595L17.28 634.669L10.8635 638.845L10.826 631.595Z" fill="#E41968"/>
<path d="M10.8221 605.229L17.2761 608.303L10.8596 612.479L10.8221 605.229Z" fill="#E41968"/>
<path d="M10.8201 578.867L17.2742 581.94L10.8577 586.117L10.8201 578.867Z" fill="#E41968"/>
<path d="M10.8123 552.503L17.2664 555.577L10.8499 559.753L10.8123 552.503Z" fill="#E41968"/>
<path d="M10.8123 526.139L17.2664 529.212L10.8499 533.388L10.8123 526.139Z" fill="#E41968"/>
<path d="M10.8182 499.777L17.2722 502.85L10.8557 507.027L10.8182 499.777Z" fill="#E41968"/>
<path d="M10.8123 473.416L17.2664 476.49L10.8499 480.666L10.8123 473.416Z" fill="#E41968"/>
<path d="M10.8084 447.051L17.2625 450.124L10.846 454.3L10.8084 447.051Z" fill="#E41968"/>
<path d="M10.8143 420.684L17.2683 423.758L10.8518 427.934L10.8143 420.684Z" fill="#E41968"/>
<path d="M10.8065 394.322L17.2605 397.396L10.844 401.572L10.8065 394.322Z" fill="#E41968"/>
<path d="M10.8104 367.957L17.2644 371.03L10.8479 375.207L10.8104 367.957Z" fill="#E41968"/>
<path d="M10.8123 341.597L17.2664 344.671L10.8499 348.847L10.8123 341.597Z" fill="#E41968"/>
<path d="M10.8045 315.232L17.2586 318.305L10.8421 322.481L10.8045 315.232Z" fill="#E41968"/>
<path d="M10.8084 288.867L17.2625 291.94L10.846 296.117L10.8084 288.867Z" fill="#E41968"/>
<path d="M10.8026 262.507L17.2566 265.581L10.8401 269.757L10.8026 262.507Z" fill="#E41968"/>
<path d="M10.8104 236.146L17.2644 239.219L10.8479 243.395L10.8104 236.146Z" fill="#E41968"/>
<path d="M10.8006 209.782L17.2547 212.855L10.8382 217.032L10.8006 209.782Z" fill="#E41968"/>
<path d="M10.7987 183.419L17.2527 186.493L10.8362 190.669L10.7987 183.419Z" fill="#E41968"/>
<path d="M10.8065 157.054L17.2605 160.127L10.844 164.303L10.8065 157.054Z" fill="#E41968"/>
<path d="M10.8026 130.691L17.2566 133.764L10.8401 137.941L10.8026 130.691Z" fill="#E41968"/>
<path d="M10.8006 104.33L17.2547 107.404L10.8382 111.58L10.8006 104.33Z" fill="#E41968"/>
<path d="M10.8006 77.9678L17.2547 81.0413L10.8382 85.2175L10.8006 77.9678Z" fill="#E41968"/>
<path d="M10.7967 51.6031L17.2508 54.6766L10.8343 58.8529L10.7967 51.6031Z" fill="#E41968"/>
<path d="M38.3632 1117.58L43.9868 1120.24L38.3958 1123.87L38.3632 1117.58Z" fill="#E41968"/>
<path d="M38.3671 1091.21L43.9907 1093.88L38.3997 1097.51L38.3671 1091.21Z" fill="#E41968"/>
<path d="M38.3651 1064.85L43.9888 1067.52L38.3977 1071.15L38.3651 1064.85Z" fill="#E41968"/>
<path d="M38.3651 1038.48L43.9888 1041.15L38.3977 1044.78L38.3651 1038.48Z" fill="#E41968"/>
<path d="M38.3612 1012.12L43.9849 1014.79L38.3938 1018.42L38.3612 1012.12Z" fill="#E41968"/>
<path d="M38.3593 985.759L43.9829 988.427L38.3919 992.057L38.3593 985.759Z" fill="#E41968"/>
<path d="M38.3593 959.392L43.9829 962.061L38.3919 965.69L38.3593 959.392Z" fill="#E41968"/>
<path d="M38.3573 933.03L43.981 935.698L38.3899 939.328L38.3573 933.03Z" fill="#E41968"/>
<path d="M38.3651 906.665L43.9888 909.334L38.3977 912.963L38.3651 906.665Z" fill="#E41968"/>
<path d="M38.3554 880.3L43.979 882.968L38.388 886.597L38.3554 880.3Z" fill="#E41968"/>
<path d="M38.3534 853.939L43.9771 856.607L38.386 860.237L38.3534 853.939Z" fill="#E41968"/>
<path d="M38.3534 827.574L43.9771 830.243L38.386 833.872L38.3534 827.574Z" fill="#E41968"/>
<path d="M38.3495 801.212L43.9732 803.88L38.3821 807.51L38.3495 801.212Z" fill="#E41968"/>
<path d="M38.3476 774.849L43.9712 777.518L38.3802 781.147L38.3476 774.849Z" fill="#E41968"/>
<path d="M38.3515 748.485L43.9751 751.154L38.3841 754.783L38.3515 748.485Z" fill="#E41968"/>
<path d="M38.3515 722.121L43.9751 724.789L38.3841 728.419L38.3515 722.121Z" fill="#E41968"/>
<path d="M38.3534 695.76L43.9771 698.429L38.386 702.058L38.3534 695.76Z" fill="#E41968"/>
<path d="M38.3495 669.398L43.9732 672.066L38.3821 675.695L38.3495 669.398Z" fill="#E41968"/>
<path d="M38.3534 643.033L43.9771 645.701L38.386 649.331L38.3534 643.033Z" fill="#E41968"/>
<path d="M38.3515 616.666L43.9751 619.335L38.3841 622.964L38.3515 616.666Z" fill="#E41968"/>
<path d="M38.3456 590.308L43.9693 592.976L38.3782 596.605L38.3456 590.308Z" fill="#E41968"/>
<path d="M38.3456 563.943L43.9693 566.611L38.3782 570.241L38.3456 563.943Z" fill="#E41968"/>
<path d="M38.3437 537.579L43.9673 540.248L38.3763 543.877L38.3437 537.579Z" fill="#E41968"/>
<path d="M38.3437 511.217L43.9673 513.885L38.3763 517.515L38.3437 511.217Z" fill="#E41968"/>
<path d="M38.3437 484.855L43.9673 487.524L38.3763 491.153L38.3437 484.855Z" fill="#E41968"/>
<path d="M38.3417 458.489L43.9654 461.158L38.3743 464.787L38.3417 458.489Z" fill="#E41968"/>
<path d="M38.3378 432.126L43.9615 434.794L38.3704 438.424L38.3378 432.126Z" fill="#E41968"/>
<path d="M38.3417 405.765L43.9654 408.434L38.3743 412.063L38.3417 405.765Z" fill="#E41968"/>
<path d="M38.3437 379.4L43.9673 382.068L38.3763 385.697L38.3437 379.4Z" fill="#E41968"/>
<path d="M38.3378 353.041L43.9615 355.709L38.3704 359.339L38.3378 353.041Z" fill="#E41968"/>
<path d="M38.3339 326.675L43.9576 329.344L38.3665 332.973L38.3339 326.675Z" fill="#E41968"/>
<path d="M38.3359 300.312L43.9595 302.98L38.3685 306.609L38.3359 300.312Z" fill="#E41968"/>
<path d="M38.332 273.947L43.9556 276.616L38.3646 280.245L38.332 273.947Z" fill="#E41968"/>
<path d="M38.3261 247.582L43.9498 250.251L38.3587 253.88L38.3261 247.582Z" fill="#E41968"/>
<path d="M38.33 221.223L43.9537 223.891L38.3626 227.521L38.33 221.223Z" fill="#E41968"/>
<path d="M38.33 194.857L43.9537 197.526L38.3626 201.155L38.33 194.857Z" fill="#E41968"/>
<path d="M38.3281 168.495L43.9518 171.163L38.3607 174.792L38.3281 168.495Z" fill="#E41968"/>
<path d="M38.3281 142.131L43.9518 144.799L38.3607 148.429L38.3281 142.131Z" fill="#E41968"/>
<path d="M38.3222 115.768L43.9459 118.437L38.3548 122.066L38.3222 115.768Z" fill="#E41968"/>
<path d="M38.3203 89.4027L43.944 92.0712L38.3529 95.7005L38.3203 89.4027Z" fill="#E41968"/>
<path d="M38.3203 63.0371L43.944 65.7055L38.3529 69.3349L38.3203 63.0371Z" fill="#E41968"/>
<path d="M38.3281 36.6774L43.9518 39.3459L38.3607 42.9752L38.3281 36.6774Z" fill="#E41968"/>
<path d="M66.0044 1102.71L70.6091 1104.92L66.0313 1107.91L66.0044 1102.71Z" fill="#E41968"/>
<path d="M65.9985 1076.35L70.6033 1078.55L66.0255 1081.55L65.9985 1076.35Z" fill="#E41968"/>
<path d="M66.0063 1049.99L70.6111 1052.19L66.0333 1055.19L66.0063 1049.99Z" fill="#E41968"/>
<path d="M66.0005 1023.62L70.6052 1025.83L66.0274 1028.82L66.0005 1023.62Z" fill="#E41968"/>
<path d="M65.9927 997.258L70.5974 999.464L66.0196 1002.46L65.9927 997.258Z" fill="#E41968"/>
<path d="M65.9985 970.901L70.6033 973.107L66.0255 976.1L65.9985 970.901Z" fill="#E41968"/>
<path d="M65.9947 944.533L70.5994 946.74L66.0216 949.733L65.9947 944.533Z" fill="#E41968"/>
<path d="M65.9985 918.171L70.6033 920.377L66.0255 923.37L65.9985 918.171Z" fill="#E41968"/>
<path d="M65.9966 891.804L70.6013 894.01L66.0235 897.003L65.9966 891.804Z" fill="#E41968"/>
<path d="M65.9888 865.444L70.5935 867.651L66.0157 870.644L65.9888 865.444Z" fill="#E41968"/>
<path d="M65.9849 839.079L70.5896 841.285L66.0118 844.278L65.9849 839.079Z" fill="#E41968"/>
<path d="M65.9888 812.717L70.5935 814.923L66.0157 817.916L65.9888 812.717Z" fill="#E41968"/>
<path d="M65.9888 786.357L70.5935 788.564L66.0157 791.557L65.9888 786.357Z" fill="#E41968"/>
<path d="M65.9868 759.99L70.5916 762.196L66.0138 765.189L65.9868 759.99Z" fill="#E41968"/>
<path d="M65.9829 733.625L70.5877 735.831L66.0099 738.825L65.9829 733.625Z" fill="#E41968"/>
<path d="M65.9868 707.263L70.5916 709.469L66.0138 712.462L65.9868 707.263Z" fill="#E41968"/>
<path d="M65.9849 680.903L70.5896 683.109L66.0118 686.102L65.9849 680.903Z" fill="#E41968"/>
<path d="M65.9771 654.538L70.5818 656.745L66.004 659.738L65.9771 654.538Z" fill="#E41968"/>
<path d="M65.9888 628.173L70.5935 630.379L66.0157 633.372L65.9888 628.173Z" fill="#E41968"/>
<path d="M65.9829 601.809L70.5877 604.015L66.0099 607.008L65.9829 601.809Z" fill="#E41968"/>
<path d="M65.9829 575.446L70.5877 577.653L66.0099 580.646L65.9829 575.446Z" fill="#E41968"/>
<path d="M65.9771 549.085L70.5818 551.291L66.004 554.284L65.9771 549.085Z" fill="#E41968"/>
<path d="M65.9791 522.722L70.5838 524.928L66.006 527.921L65.9791 522.722Z" fill="#E41968"/>
<path d="M65.9791 496.358L70.5838 498.565L66.006 501.558L65.9791 496.358Z" fill="#E41968"/>
<path d="M65.9752 469.993L70.5799 472.199L66.0021 475.192L65.9752 469.993Z" fill="#E41968"/>
<path d="M65.981 443.631L70.5857 445.838L66.0079 448.831L65.981 443.631Z" fill="#E41968"/>
<path d="M65.9771 417.271L70.5818 419.477L66.004 422.47L65.9771 417.271Z" fill="#E41968"/>
<path d="M65.9771 390.908L70.5818 393.114L66.004 396.107L65.9771 390.908Z" fill="#E41968"/>
<path d="M65.9791 364.54L70.5838 366.747L66.006 369.74L65.9791 364.54Z" fill="#E41968"/>
<path d="M65.9752 338.178L70.5799 340.384L66.0021 343.377L65.9752 338.178Z" fill="#E41968"/>
<path d="M65.9752 311.812L70.5799 314.018L66.0021 317.011L65.9752 311.812Z" fill="#E41968"/>
<path d="M65.9673 285.452L70.5721 287.659L65.9943 290.652L65.9673 285.452Z" fill="#E41968"/>
<path d="M65.9635 259.091L70.5682 261.297L65.9904 264.29L65.9635 259.091Z" fill="#E41968"/>
<path d="M65.9673 232.727L70.5721 234.933L65.9943 237.926L65.9673 232.727Z" fill="#E41968"/>
<path d="M65.9615 206.361L70.5662 208.568L65.9884 211.561L65.9615 206.361Z" fill="#E41968"/>
<path d="M65.9654 179.998L70.5701 182.204L65.9923 185.197L65.9654 179.998Z" fill="#E41968"/>
<path d="M65.9596 153.633L70.5643 155.84L65.9865 158.833L65.9596 153.633Z" fill="#E41968"/>
<path d="M65.9518 127.275L70.5565 129.481L65.9787 132.474L65.9518 127.275Z" fill="#E41968"/>
<path d="M65.9596 100.908L70.5643 103.114L65.9865 106.107L65.9596 100.908Z" fill="#E41968"/>
<path d="M65.9518 74.5454L70.5565 76.7517L65.9787 79.7447L65.9518 74.5454Z" fill="#E41968"/>
<path d="M65.9518 48.1798L70.5565 50.386L65.9787 53.3792L65.9518 48.1798Z" fill="#E41968"/>
<path d="M93.5318 1114.15L97.3062 1115.96L93.5538 1118.4L93.5318 1114.15Z" fill="#E41968"/>
<path d="M93.528 1087.79L97.3023 1089.59L93.5499 1092.04L93.528 1087.79Z" fill="#E41968"/>
<path d="M93.528 1061.43L97.3023 1063.23L93.5499 1065.67L93.528 1061.43Z" fill="#E41968"/>
<path d="M93.5299 1035.06L97.3042 1036.86L93.5519 1039.31L93.5299 1035.06Z" fill="#E41968"/>
<path d="M93.5299 1008.7L97.3042 1010.5L93.5519 1012.95L93.5299 1008.7Z" fill="#E41968"/>
<path d="M93.5201 982.336L97.2945 984.137L93.5421 986.583L93.5201 982.336Z" fill="#E41968"/>
<path d="M93.5221 955.972L97.2964 957.773L93.5441 960.219L93.5221 955.972Z" fill="#E41968"/>
<path d="M93.5182 929.607L97.2925 931.409L93.5402 933.855L93.5182 929.607Z" fill="#E41968"/>
<path d="M93.5221 903.247L97.2964 905.048L93.5441 907.494L93.5221 903.247Z" fill="#E41968"/>
<path d="M93.5163 876.881L97.2906 878.682L93.5382 881.129L93.5163 876.881Z" fill="#E41968"/>
<path d="M93.524 850.52L97.2984 852.321L93.546 854.767L93.524 850.52Z" fill="#E41968"/>
<path d="M93.524 824.16L97.2984 825.961L93.546 828.407L93.524 824.16Z" fill="#E41968"/>
<path d="M93.5143 797.794L97.2886 799.595L93.5363 802.042L93.5143 797.794Z" fill="#E41968"/>
<path d="M93.5182 771.429L97.2925 773.23L93.5402 775.676L93.5182 771.429Z" fill="#E41968"/>
<path d="M93.5143 745.065L97.2886 746.866L93.5363 749.312L93.5143 745.065Z" fill="#E41968"/>
<path d="M93.5104 718.703L97.2847 720.505L93.5324 722.951L93.5104 718.703Z" fill="#E41968"/>
<path d="M93.5163 692.341L97.2906 694.142L93.5382 696.588L93.5163 692.341Z" fill="#E41968"/>
<path d="M93.5104 665.975L97.2847 667.776L93.5324 670.223L93.5104 665.975Z" fill="#E41968"/>
<path d="M93.5085 639.615L97.2828 641.417L93.5305 643.863L93.5085 639.615Z" fill="#E41968"/>
<path d="M93.5085 613.25L97.2828 615.051L93.5305 617.497L93.5085 613.25Z" fill="#E41968"/>
<path d="M93.5085 586.888L97.2828 588.689L93.5305 591.136L93.5085 586.888Z" fill="#E41968"/>
<path d="M93.5026 560.527L97.2769 562.329L93.5246 564.775L93.5026 560.527Z" fill="#E41968"/>
<path d="M93.5026 534.163L97.2769 535.964L93.5246 538.41L93.5026 534.163Z" fill="#E41968"/>
<path d="M93.5007 507.796L97.275 509.598L93.5226 512.044L93.5007 507.796Z" fill="#E41968"/>
<path d="M93.4948 481.434L97.2691 483.235L93.5168 485.681L93.4948 481.434Z" fill="#E41968"/>
<path d="M93.5045 455.074L97.2789 456.875L93.5266 459.321L93.5045 455.074Z" fill="#E41968"/>
<path d="M93.4968 428.709L97.2711 430.511L93.5187 432.957L93.4968 428.709Z" fill="#E41968"/>
<path d="M93.4968 402.344L97.2711 404.145L93.5187 406.591L93.4968 402.344Z" fill="#E41968"/>
<path d="M93.4968 375.984L97.2711 377.785L93.5187 380.231L93.4968 375.984Z" fill="#E41968"/>
<path d="M93.4987 349.619L97.273 351.42L93.5207 353.866L93.4987 349.619Z" fill="#E41968"/>
<path d="M93.4987 323.256L97.273 325.057L93.5207 327.503L93.4987 323.256Z" fill="#E41968"/>
<path d="M93.4987 296.896L97.273 298.697L93.5207 301.144L93.4987 296.896Z" fill="#E41968"/>
<path d="M93.4929 270.525L97.2672 272.326L93.5149 274.772L93.4929 270.525Z" fill="#E41968"/>
<path d="M93.4929 244.165L97.2672 245.966L93.5149 248.412L93.4929 244.165Z" fill="#E41968"/>
<path d="M93.4929 217.799L97.2672 219.601L93.5149 222.047L93.4929 217.799Z" fill="#E41968"/>
<path d="M93.4851 191.437L97.2594 193.238L93.507 195.684L93.4851 191.437Z" fill="#E41968"/>
<path d="M93.489 165.076L97.2633 166.877L93.511 169.323L93.489 165.076Z" fill="#E41968"/>
<path d="M93.489 138.712L97.2633 140.513L93.511 142.959L93.489 138.712Z" fill="#E41968"/>
<path d="M93.4831 112.349L97.2574 114.15L93.5051 116.596L93.4831 112.349Z" fill="#E41968"/>
<path d="M93.4831 85.9813L97.2574 87.7826L93.5051 90.2287L93.4831 85.9813Z" fill="#E41968"/>
<path d="M93.4792 59.6236L97.2535 61.4248L93.5012 63.8709L93.4792 59.6236Z" fill="#E41968"/>
<path d="M121.164 1099.37L123.844 1100.64L121.18 1102.37L121.164 1099.37Z" fill="#E41968"/>
<path d="M121.172 1073.01L123.852 1074.28L121.187 1076.01L121.172 1073.01Z" fill="#E41968"/>
<path d="M121.16 1046.64L123.84 1047.91L121.176 1049.64L121.16 1046.64Z" fill="#E41968"/>
<path d="M121.158 1020.28L123.838 1021.55L121.174 1023.28L121.158 1020.28Z" fill="#E41968"/>
<path d="M121.162 993.915L123.842 995.188L121.178 996.918L121.162 993.915Z" fill="#E41968"/>
<path d="M121.158 967.55L123.838 968.822L121.174 970.552L121.158 967.55Z" fill="#E41968"/>
<path d="M121.156 941.189L123.836 942.461L121.172 944.191L121.156 941.189Z" fill="#E41968"/>
<path d="M121.164 914.824L123.844 916.097L121.18 917.827L121.164 914.824Z" fill="#E41968"/>
<path d="M121.154 888.465L123.834 889.737L121.17 891.467L121.154 888.465Z" fill="#E41968"/>
<path d="M121.152 862.098L123.832 863.37L121.168 865.101L121.152 862.098Z" fill="#E41968"/>
<path d="M121.16 835.734L123.84 837.006L121.176 838.736L121.16 835.734Z" fill="#E41968"/>
<path d="M121.16 809.37L123.84 810.642L121.176 812.372L121.16 809.37Z" fill="#E41968"/>
<path d="M121.154 783.009L123.834 784.281L121.17 786.012L121.154 783.009Z" fill="#E41968"/>
<path d="M121.154 756.645L123.834 757.917L121.17 759.647L121.154 756.645Z" fill="#E41968"/>
<path d="M121.154 730.283L123.834 731.555L121.17 733.285L121.154 730.283Z" fill="#E41968"/>
<path d="M121.149 703.914L123.828 705.187L121.164 706.917L121.149 703.914Z" fill="#E41968"/>
<path d="M121.145 677.554L123.824 678.826L121.16 680.556L121.145 677.554Z" fill="#E41968"/>
<path d="M121.149 651.191L123.828 652.463L121.164 654.194L121.149 651.191Z" fill="#E41968"/>
<path d="M121.141 624.826L123.821 626.099L121.156 627.829L121.141 624.826Z" fill="#E41968"/>
<path d="M121.145 598.464L123.824 599.736L121.16 601.466L121.145 598.464Z" fill="#E41968"/>
<path d="M121.143 572.1L123.823 573.373L121.158 575.103L121.143 572.1Z" fill="#E41968"/>
<path d="M121.139 545.735L123.819 547.007L121.154 548.737L121.139 545.735Z" fill="#E41968"/>
<path d="M121.139 519.373L123.819 520.645L121.154 522.375L121.139 519.373Z" fill="#E41968"/>
<path d="M121.137 493.012L123.817 494.285L121.152 496.015L121.137 493.012Z" fill="#E41968"/>
<path d="M121.141 466.65L123.821 467.922L121.156 469.652L121.141 466.65Z" fill="#E41968"/>
<path d="M121.137 440.285L123.817 441.557L121.152 443.288L121.137 440.285Z" fill="#E41968"/>
<path d="M121.135 413.924L123.815 415.197L121.15 416.927L121.135 413.924Z" fill="#E41968"/>
<path d="M121.139 387.56L123.819 388.832L121.154 390.562L121.139 387.56Z" fill="#E41968"/>
<path d="M121.133 361.198L123.813 362.47L121.148 364.201L121.133 361.198Z" fill="#E41968"/>
<path d="M121.131 334.833L123.811 336.105L121.147 337.835L121.131 334.833Z" fill="#E41968"/>
<path d="M121.131 308.469L123.811 309.741L121.147 311.471L121.131 308.469Z" fill="#E41968"/>
<path d="M121.127 282.106L123.807 283.379L121.143 285.109L121.127 282.106Z" fill="#E41968"/>
<path d="M121.125 255.744L123.805 257.016L121.141 258.746L121.125 255.744Z" fill="#E41968"/>
<path d="M121.129 229.381L123.809 230.653L121.145 232.383L121.129 229.381Z" fill="#E41968"/>
<path d="M121.129 203.018L123.809 204.291L121.145 206.021L121.129 203.018Z" fill="#E41968"/>
<path d="M121.127 176.653L123.807 177.925L121.143 179.655L121.127 176.653Z" fill="#E41968"/>
<path d="M121.127 150.287L123.807 151.559L121.143 153.29L121.127 150.287Z" fill="#E41968"/>
<path d="M121.131 123.927L123.811 125.2L121.147 126.93L121.131 123.927Z" fill="#E41968"/>
<path d="M121.123 97.562L123.803 98.8343L121.139 100.564L121.123 97.562Z" fill="#E41968"/>
<path d="M148.65 1110.74L150.575 1111.67L148.661 1112.93L148.65 1110.74Z" fill="#E41968"/>
<path d="M148.662 1084.37L150.587 1085.31L148.673 1086.57L148.662 1084.37Z" fill="#E41968"/>
<path d="M148.656 1058.01L150.581 1058.94L148.667 1060.21L148.656 1058.01Z" fill="#E41968"/>
<path d="M148.65 1031.64L150.575 1032.58L148.661 1033.84L148.65 1031.64Z" fill="#E41968"/>
<path d="M148.654 1005.28L150.579 1006.22L148.665 1007.48L148.654 1005.28Z" fill="#E41968"/>
<path d="M148.644 978.919L150.569 979.853L148.655 981.116L148.644 978.919Z" fill="#E41968"/>
<path d="M148.644 952.555L150.569 953.489L148.655 954.752L148.644 952.555Z" fill="#E41968"/>
<path d="M148.648 926.193L150.573 927.127L148.659 928.39L148.648 926.193Z" fill="#E41968"/>
<path d="M148.642 899.832L150.567 900.766L148.653 902.029L148.642 899.832Z" fill="#E41968"/>
<path d="M148.646 873.464L150.571 874.398L148.657 875.661L148.646 873.464Z" fill="#E41968"/>
<path d="M148.65 847.101L150.575 848.035L148.661 849.298L148.65 847.101Z" fill="#E41968"/>
<path d="M148.644 820.74L150.569 821.674L148.655 822.937L148.644 820.74Z" fill="#E41968"/>
<path d="M148.638 794.379L150.563 795.313L148.65 796.576L148.638 794.379Z" fill="#E41968"/>
<path d="M148.638 768.013L150.563 768.947L148.65 770.21L148.638 768.013Z" fill="#E41968"/>
<path d="M148.64 741.65L150.565 742.583L148.651 743.846L148.64 741.65Z" fill="#E41968"/>
<path d="M148.636 715.287L150.561 716.221L148.648 717.484L148.636 715.287Z" fill="#E41968"/>
<path d="M148.638 688.924L150.563 689.858L148.65 691.121L148.638 688.924Z" fill="#E41968"/>
<path d="M148.63 662.56L150.555 663.494L148.642 664.757L148.63 662.56Z" fill="#E41968"/>
<path d="M148.634 636.2L150.559 637.134L148.646 638.397L148.634 636.2Z" fill="#E41968"/>
<path d="M148.636 609.834L150.561 610.768L148.648 612.031L148.636 609.834Z" fill="#E41968"/>
<path d="M148.628 583.469L150.553 584.403L148.64 585.666L148.628 583.469Z" fill="#E41968"/>
<path d="M148.626 557.109L150.552 558.043L148.638 559.306L148.626 557.109Z" fill="#E41968"/>
<path d="M148.625 530.742L150.55 531.677L148.636 532.939L148.625 530.742Z" fill="#E41968"/>
<path d="M148.625 504.38L150.55 505.314L148.636 506.577L148.625 504.38Z" fill="#E41968"/>
<path d="M148.628 478.015L150.553 478.949L148.64 480.212L148.628 478.015Z" fill="#E41968"/>
<path d="M148.623 451.655L150.548 452.589L148.634 453.852L148.623 451.655Z" fill="#E41968"/>
<path d="M148.623 425.29L150.548 426.224L148.634 427.487L148.623 425.29Z" fill="#E41968"/>
<path d="M148.626 398.927L150.552 399.861L148.638 401.124L148.626 398.927Z" fill="#E41968"/>
<path d="M148.625 372.568L150.55 373.502L148.636 374.765L148.625 372.568Z" fill="#E41968"/>
<path d="M148.611 346.202L150.536 347.136L148.622 348.399L148.611 346.202Z" fill="#E41968"/>
<path d="M148.621 319.84L150.546 320.774L148.632 322.037L148.621 319.84Z" fill="#E41968"/>
<path d="M148.613 293.475L150.538 294.409L148.624 295.672L148.613 293.475Z" fill="#E41968"/>
<path d="M148.613 267.111L150.538 268.045L148.624 269.308L148.613 267.111Z" fill="#E41968"/>
<path d="M148.617 240.749L150.542 241.683L148.628 242.945L148.617 240.749Z" fill="#E41968"/>
<path d="M148.615 214.383L150.54 215.317L148.626 216.58L148.615 214.383Z" fill="#E41968"/>
<path d="M148.611 188.023L150.536 188.957L148.622 190.22L148.611 188.023Z" fill="#E41968"/>
<path d="M148.611 161.661L150.536 162.595L148.622 163.858L148.611 161.661Z" fill="#E41968"/>
<path d="M148.617 135.293L150.542 136.227L148.628 137.49L148.617 135.293Z" fill="#E41968"/>
<path d="M176.177 1095.82L177.272 1096.34L176.184 1097.06L176.177 1095.82Z" fill="#E41968"/>
<path d="M176.177 1069.45L177.272 1069.98L176.184 1070.7L176.177 1069.45Z" fill="#E41968"/>
<path d="M176.171 1043.09L177.266 1043.61L176.178 1044.33L176.171 1043.09Z" fill="#E41968"/>
<path d="M176.175 1016.72L177.27 1017.25L176.182 1017.97L176.175 1016.72Z" fill="#E41968"/>
<path d="M176.175 990.357L177.27 990.886L176.182 991.602L176.175 990.357Z" fill="#E41968"/>
<path d="M176.164 963.997L177.258 964.526L176.17 965.242L176.164 963.997Z" fill="#E41968"/>
<path d="M176.168 937.633L177.262 938.162L176.174 938.878L176.168 937.633Z" fill="#E41968"/>
<path d="M176.168 911.269L177.262 911.798L176.174 912.514L176.168 911.269Z" fill="#E41968"/>
<path d="M176.17 884.905L177.264 885.433L176.176 886.149L176.17 884.905Z" fill="#E41968"/>
<path d="M176.166 858.544L177.26 859.073L176.172 859.789L176.166 858.544Z" fill="#E41968"/>
<path d="M176.17 832.177L177.264 832.706L176.176 833.422L176.17 832.177Z" fill="#E41968"/>
<path d="M176.168 805.819L177.262 806.348L176.174 807.064L176.168 805.819Z" fill="#E41968"/>
<path d="M176.164 779.456L177.258 779.985L176.17 780.701L176.164 779.456Z" fill="#E41968"/>
<path d="M176.16 753.087L177.254 753.616L176.166 754.332L176.16 753.087Z" fill="#E41968"/>
<path d="M176.162 726.725L177.256 727.254L176.168 727.97L176.162 726.725Z" fill="#E41968"/>
<path d="M176.156 700.359L177.25 700.888L176.162 701.604L176.156 700.359Z" fill="#E41968"/>
<path d="M176.156 674.001L177.25 674.529L176.162 675.245L176.156 674.001Z" fill="#E41968"/>
<path d="M176.154 647.638L177.249 648.167L176.16 648.883L176.154 647.638Z" fill="#E41968"/>
<path d="M176.154 621.272L177.249 621.801L176.16 622.517L176.154 621.272Z" fill="#E41968"/>
<path d="M176.158 594.912L177.252 595.441L176.164 596.156L176.158 594.912Z" fill="#E41968"/>
<path d="M176.152 568.547L177.247 569.076L176.158 569.792L176.152 568.547Z" fill="#E41968"/>
<path d="M176.156 542.183L177.25 542.712L176.162 543.428L176.156 542.183Z" fill="#E41968"/>
<path d="M176.152 515.824L177.247 516.353L176.158 517.069L176.152 515.824Z" fill="#E41968"/>
<path d="M176.15 489.459L177.245 489.988L176.156 490.704L176.15 489.459Z" fill="#E41968"/>
<path d="M176.154 463.093L177.249 463.622L176.16 464.338L176.154 463.093Z" fill="#E41968"/>
<path d="M176.148 436.728L177.243 437.257L176.155 437.973L176.148 436.728Z" fill="#E41968"/>
<path d="M176.146 410.368L177.241 410.897L176.153 411.613L176.146 410.368Z" fill="#E41968"/>
<path d="M176.15 384.006L177.245 384.534L176.156 385.25L176.15 384.006Z" fill="#E41968"/>
<path d="M176.152 357.64L177.247 358.169L176.158 358.885L176.152 357.64Z" fill="#E41968"/>
<path d="M176.148 331.28L177.243 331.809L176.155 332.525L176.148 331.28Z" fill="#E41968"/>
<path d="M176.148 304.915L177.243 305.444L176.155 306.16L176.148 304.915Z" fill="#E41968"/>
<path d="M176.146 278.551L177.241 279.08L176.153 279.796L176.146 278.551Z" fill="#E41968"/>
<path d="M176.142 252.191L177.237 252.72L176.149 253.436L176.142 252.191Z" fill="#E41968"/>
<path d="M176.142 225.826L177.237 226.355L176.149 227.071L176.142 225.826Z" fill="#E41968"/>
<path d="M176.134 199.462L177.229 199.991L176.141 200.707L176.134 199.462Z" fill="#E41968"/>
<path d="M176.134 173.099L177.229 173.627L176.141 174.343L176.134 173.099Z" fill="#E41968"/>
<path d="M176.138 146.739L177.233 147.268L176.145 147.984L176.138 146.739Z" fill="#E41968"/>
<path d="M203.699 1107.26L204 1107.38L203.7 1107.55L203.699 1107.26Z" fill="#E41968"/>
<path d="M203.693 1080.89L203.994 1081.01L203.695 1081.18L203.693 1080.89Z" fill="#E41968"/>
<path d="M203.693 1054.53L203.994 1054.65L203.695 1054.82L203.693 1054.53Z" fill="#E41968"/>
<path d="M203.697 1028.17L203.998 1028.29L203.698 1028.46L203.697 1028.17Z" fill="#E41968"/>
<path d="M203.695 1001.8L203.996 1001.92L203.697 1002.09L203.695 1001.8Z" fill="#E41968"/>
<path d="M203.691 975.44L203.992 975.561L203.693 975.732L203.691 975.44Z" fill="#E41968"/>
<path d="M203.691 949.076L203.992 949.196L203.693 949.368L203.691 949.076Z" fill="#E41968"/>
<path d="M203.693 922.713L203.994 922.833L203.695 923.005L203.693 922.713Z" fill="#E41968"/>
<path d="M203.691 896.348L203.992 896.468L203.693 896.639L203.691 896.348Z" fill="#E41968"/>
<path d="M203.695 869.983L203.996 870.103L203.697 870.275L203.695 869.983Z" fill="#E41968"/>
<path d="M203.689 843.623L203.99 843.743L203.691 843.915L203.689 843.623Z" fill="#E41968"/>
<path d="M203.685 817.257L203.986 817.377L203.687 817.548L203.685 817.257Z" fill="#E41968"/>
<path d="M203.689 790.895L203.99 791.015L203.691 791.187L203.689 790.895Z" fill="#E41968"/>
<path d="M203.683 764.53L203.984 764.651L203.685 764.822L203.683 764.53Z" fill="#E41968"/>
<path d="M203.683 738.164L203.984 738.284L203.685 738.456L203.683 738.164Z" fill="#E41968"/>
<path d="M203.681 711.805L203.982 711.925L203.683 712.097L203.681 711.805Z" fill="#E41968"/>
<path d="M203.681 685.44L203.982 685.56L203.683 685.731L203.681 685.44Z" fill="#E41968"/>
<path d="M203.679 659.082L203.98 659.202L203.681 659.374L203.679 659.082Z" fill="#E41968"/>
<path d="M203.677 632.718L203.979 632.838L203.679 633.01L203.677 632.718Z" fill="#E41968"/>
<path d="M203.67 606.352L203.971 606.472L203.671 606.643L203.67 606.352Z" fill="#E41968"/>
<path d="M203.677 579.991L203.979 580.111L203.679 580.283L203.677 579.991Z" fill="#E41968"/>
<path d="M203.676 553.626L203.977 553.746L203.677 553.918L203.676 553.626Z" fill="#E41968"/>
<path d="M203.676 527.262L203.977 527.382L203.677 527.553L203.676 527.262Z" fill="#E41968"/>
<path d="M203.672 500.898L203.973 501.018L203.673 501.19L203.672 500.898Z" fill="#E41968"/>
<path d="M203.674 474.533L203.975 474.653L203.675 474.824L203.674 474.533Z" fill="#E41968"/>
<path d="M203.674 448.173L203.975 448.293L203.675 448.465L203.674 448.173Z" fill="#E41968"/>
<path d="M203.668 421.81L203.969 421.93L203.669 422.102L203.668 421.81Z" fill="#E41968"/>
<path d="M203.666 395.451L203.967 395.571L203.667 395.742L203.666 395.451Z" fill="#E41968"/>
<path d="M203.67 369.085L203.971 369.205L203.671 369.377L203.67 369.085Z" fill="#E41968"/>
<path d="M203.67 342.719L203.971 342.84L203.671 343.011L203.67 342.719Z" fill="#E41968"/>
<path d="M203.664 316.357L203.965 316.477L203.665 316.648L203.664 316.357Z" fill="#E41968"/>
<path d="M203.664 289.997L203.965 290.117L203.665 290.289L203.664 289.997Z" fill="#E41968"/>
<path d="M203.66 263.631L203.961 263.752L203.661 263.923L203.66 263.631Z" fill="#E41968"/>
<path d="M203.658 237.266L203.959 237.386L203.659 237.558L203.658 237.266Z" fill="#E41968"/>
<path d="M203.662 210.9L203.963 211.02L203.663 211.192L203.662 210.9Z" fill="#E41968"/>
<path d="M203.662 184.541L203.963 184.661L203.663 184.832L203.662 184.541Z" fill="#E41968"/>
<path d="M203.654 158.178L203.955 158.298L203.656 158.47L203.654 158.178Z" fill="#E41968"/>
<path d="M203.658 105.453L203.959 105.573L203.659 105.744L203.658 105.453Z" fill="#E41968"/>
<path d="M203.66 79.0879L203.961 79.2081L203.661 79.3797L203.66 79.0879Z" fill="#E41968"/>
<path d="M203.652 52.7243L203.953 52.8445L203.654 53.0161L203.652 52.7243Z" fill="#E41968"/>
<path d="M203.646 26.3667L203.947 26.4868L203.648 26.6584L203.646 26.3667Z" fill="#E41968"/>
<path d="M203.65 0L203.951 0.120174L203.652 0.291808L203.65 0Z" fill="#E41968"/>
</g>
<defs>
<clipPath id="clip0_2226_50458">
<rect width="204" height="1135" fill="white"/>
</clipPath>
</defs>
</svg>
