<svg width="711" height="1949" viewBox="0 0 711 1949" fill="none" xmlns="http://www.w3.org/2000/svg">
<path d="M0.349735 1831.9L24.8817 1843.57L0.492186 1859.43L0.349735 1831.9Z" fill="#E41968"/>
<path d="M0.35642 1786.62L24.8884 1798.3L0.498871 1814.16L0.35642 1786.62Z" fill="#E41968"/>
<path d="M0.353078 1741.35L24.8851 1753.02L0.495528 1768.89L0.353078 1741.35Z" fill="#E41968"/>
<path d="M0.353078 1696.08L24.8851 1707.75L0.495528 1723.62L0.353078 1696.08Z" fill="#E41968"/>
<path d="M0.349735 1650.81L24.8817 1662.48L0.492186 1678.35L0.349735 1650.81Z" fill="#E41968"/>
<path d="M0.35642 1605.54L24.8884 1617.21L0.498871 1633.08L0.35642 1605.54Z" fill="#E41968"/>
<path d="M0.349735 1560.27L24.8817 1571.94L0.492186 1587.81L0.349735 1560.27Z" fill="#E41968"/>
<path d="M0.32968 1515L24.8617 1526.67L0.47213 1542.54L0.32968 1515Z" fill="#E41968"/>
<path d="M0.34305 1469.73L24.875 1481.4L0.485501 1497.27L0.34305 1469.73Z" fill="#E41968"/>
<path d="M0.336365 1424.46L24.8683 1436.13L0.478815 1452L0.336365 1424.46Z" fill="#E41968"/>
<path d="M0.333022 1379.18L24.865 1390.86L0.475473 1406.72L0.333022 1379.18Z" fill="#E41968"/>
<path d="M0.333022 1333.92L24.865 1345.59L0.475473 1361.45L0.333022 1333.92Z" fill="#E41968"/>
<path d="M0.339707 1288.64L24.8717 1300.32L0.482158 1316.18L0.339707 1288.64Z" fill="#E41968"/>
<path d="M0.32968 1243.38L24.8617 1255.05L0.47213 1270.92L0.32968 1243.38Z" fill="#E41968"/>
<path d="M0.32968 1198.11L24.8617 1209.78L0.47213 1225.65L0.32968 1198.11Z" fill="#E41968"/>
<path d="M0.32968 1152.83L24.8617 1164.5L0.47213 1180.37L0.32968 1152.83Z" fill="#E41968"/>
<path d="M0.333022 1107.56L24.865 1119.23L0.475473 1135.1L0.333022 1107.56Z" fill="#E41968"/>
<path d="M0.322994 1062.3L24.855 1073.97L0.465445 1089.83L0.322994 1062.3Z" fill="#E41968"/>
<path d="M0.32968 1017.02L24.8617 1028.69L0.47213 1044.56L0.32968 1017.02Z" fill="#E41968"/>
<path d="M0.319652 971.748L24.8516 983.419L0.462103 999.287L0.319652 971.748Z" fill="#E41968"/>
<path d="M0.312967 926.48L24.8449 938.151L0.455417 954.02L0.312967 926.48Z" fill="#E41968"/>
<path d="M0.312967 881.209L24.8449 892.88L0.455417 908.748L0.312967 881.209Z" fill="#E41968"/>
<path d="M0.309624 835.938L24.8416 847.609L0.452075 863.477L0.309624 835.938Z" fill="#E41968"/>
<path d="M0.302939 790.675L24.8349 802.347L0.44539 818.215L0.302939 790.675Z" fill="#E41968"/>
<path d="M0.309625 745.399L24.8416 757.071L0.452075 772.939L0.309625 745.399Z" fill="#E41968"/>
<path d="M0.312967 700.13L24.8449 711.801L0.455417 727.669L0.312967 700.13Z" fill="#E41968"/>
<path d="M0.309624 654.857L24.8416 666.528L0.452075 682.396L0.309624 654.857Z" fill="#E41968"/>
<path d="M0.296254 609.593L24.8282 621.264L0.438705 637.132L0.296254 609.593Z" fill="#E41968"/>
<path d="M0.299596 564.318L24.8316 575.989L0.442047 591.857L0.299596 564.318Z" fill="#E41968"/>
<path d="M0.292912 519.054L24.8249 530.725L0.435362 546.593L0.292912 519.054Z" fill="#E41968"/>
<path d="M0.289569 473.781L24.8215 485.452L0.432019 501.32L0.289569 473.781Z" fill="#E41968"/>
<path d="M0.296254 428.505L24.8282 440.176L0.438705 456.044L0.296254 428.505Z" fill="#E41968"/>
<path d="M0.296254 383.241L24.8282 394.912L0.438705 410.78L0.296254 383.241Z" fill="#E41968"/>
<path d="M0.292911 337.966L24.8249 349.637L0.435362 365.505L0.292911 337.966Z" fill="#E41968"/>
<path d="M0.292911 292.697L24.8249 304.368L0.435362 320.236L0.292911 292.697Z" fill="#E41968"/>
<path d="M0.299596 247.422L24.8316 259.093L0.442047 274.961L0.299596 247.422Z" fill="#E41968"/>
<path d="M0.279541 202.163L24.8115 213.834L0.421992 229.702L0.279541 202.163Z" fill="#E41968"/>
<path d="M0.279541 156.888L24.8115 168.56L0.421992 184.428L0.279541 156.888Z" fill="#E41968"/>
<path d="M0.286226 111.614L24.8182 123.285L0.428677 139.153L0.286226 111.614Z" fill="#E41968"/>
<path d="M0.282884 66.3445L24.8149 78.0157L0.425334 93.8837L0.282884 66.3445Z" fill="#E41968"/>
<path d="M47.6963 1851.6L70.6101 1862.52L47.8297 1877.37L47.6963 1851.6Z" fill="#E41968"/>
<path d="M47.6863 1806.32L70.6001 1817.25L47.8197 1832.1L47.6863 1806.32Z" fill="#E41968"/>
<path d="M47.693 1761.05L70.6068 1771.98L47.8263 1786.83L47.693 1761.05Z" fill="#E41968"/>
<path d="M47.6763 1715.77L70.5901 1726.7L47.8096 1741.55L47.6763 1715.77Z" fill="#E41968"/>
<path d="M47.6696 1670.51L70.5834 1681.44L47.8029 1696.29L47.6696 1670.51Z" fill="#E41968"/>
<path d="M47.6763 1625.24L70.5901 1636.17L47.8096 1651.02L47.6763 1625.24Z" fill="#E41968"/>
<path d="M47.6663 1579.96L70.5801 1590.89L47.7996 1605.74L47.6663 1579.96Z" fill="#E41968"/>
<path d="M47.6796 1534.7L70.5934 1545.63L47.813 1560.48L47.6796 1534.7Z" fill="#E41968"/>
<path d="M47.6729 1489.42L70.5868 1500.35L47.8063 1515.2L47.6729 1489.42Z" fill="#E41968"/>
<path d="M47.6596 1444.15L70.5734 1455.08L47.7929 1469.93L47.6596 1444.15Z" fill="#E41968"/>
<path d="M47.6663 1398.88L70.5801 1409.81L47.7996 1424.66L47.6663 1398.88Z" fill="#E41968"/>
<path d="M47.6663 1353.62L70.5801 1364.55L47.7996 1379.4L47.6663 1353.62Z" fill="#E41968"/>
<path d="M47.6763 1308.34L70.5901 1319.27L47.8096 1334.12L47.6763 1308.34Z" fill="#E41968"/>
<path d="M47.6696 1263.08L70.5834 1274.01L47.8029 1288.85L47.6696 1263.08Z" fill="#E41968"/>
<path d="M47.6529 1217.8L70.5667 1228.73L47.7862 1243.58L47.6529 1217.8Z" fill="#E41968"/>
<path d="M47.6663 1172.53L70.5801 1183.46L47.7996 1198.31L47.6663 1172.53Z" fill="#E41968"/>
<path d="M47.6596 1127.26L70.5734 1138.19L47.7929 1153.04L47.6596 1127.26Z" fill="#E41968"/>
<path d="M47.6495 1081.99L70.5634 1092.91L47.7829 1107.76L47.6495 1081.99Z" fill="#E41968"/>
<path d="M47.6495 1036.72L70.5634 1047.65L47.7829 1062.5L47.6495 1036.72Z" fill="#E41968"/>
<path d="M47.6462 991.448L70.56 1002.38L47.7795 1017.23L47.6462 991.448Z" fill="#E41968"/>
<path d="M47.6495 946.172L70.5634 957.101L47.7829 971.95L47.6495 946.172Z" fill="#E41968"/>
<path d="M47.6362 900.907L70.55 911.837L47.7695 926.686L47.6362 900.907Z" fill="#E41968"/>
<path d="M47.6429 855.64L70.5567 866.569L47.7762 881.418L47.6429 855.64Z" fill="#E41968"/>
<path d="M47.6395 810.369L70.5533 821.298L47.7729 836.147L47.6395 810.369Z" fill="#E41968"/>
<path d="M47.6328 765.096L70.5466 776.025L47.7662 790.874L47.6328 765.096Z" fill="#E41968"/>
<path d="M47.6462 719.825L70.56 730.754L47.7795 745.603L47.6462 719.825Z" fill="#E41968"/>
<path d="M47.6362 674.557L70.55 685.486L47.7695 700.336L47.6362 674.557Z" fill="#E41968"/>
<path d="M47.6295 629.282L70.5433 640.212L47.7628 655.061L47.6295 629.282Z" fill="#E41968"/>
<path d="M47.6362 584.018L70.55 594.947L47.7695 609.797L47.6362 584.018Z" fill="#E41968"/>
<path d="M47.6228 538.747L70.5366 549.676L47.7561 564.526L47.6228 538.747Z" fill="#E41968"/>
<path d="M47.6228 493.472L70.5366 504.402L47.7561 519.251L47.6228 493.472Z" fill="#E41968"/>
<path d="M47.6228 448.2L70.5366 459.129L47.7561 473.978L47.6228 448.2Z" fill="#E41968"/>
<path d="M47.6261 402.934L70.54 413.863L47.7595 428.712L47.6261 402.934Z" fill="#E41968"/>
<path d="M47.6261 357.666L70.54 368.595L47.7595 383.444L47.6261 357.666Z" fill="#E41968"/>
<path d="M47.6195 312.391L70.5333 323.321L47.7528 338.17L47.6195 312.391Z" fill="#E41968"/>
<path d="M47.6295 267.122L70.5433 278.051L47.7628 292.901L47.6295 267.122Z" fill="#E41968"/>
<path d="M47.6228 221.852L70.5366 232.782L47.7561 247.631L47.6228 221.852Z" fill="#E41968"/>
<path d="M47.6128 176.58L70.5266 187.509L47.7461 202.358L47.6128 176.58Z" fill="#E41968"/>
<path d="M47.6195 131.314L70.5333 142.243L47.7528 157.092L47.6195 131.314Z" fill="#E41968"/>
<path d="M47.6094 86.0442L70.5232 96.9736L47.7428 111.823L47.6094 86.0442Z" fill="#E41968"/>
<path d="M47.6061 40.7683L70.5199 51.6975L47.7394 66.5468L47.6061 40.7683Z" fill="#E41968"/>
<path d="M94.9594 1871.29L116.32 1881.47L95.0836 1895.31L94.9594 1871.29Z" fill="#E41968"/>
<path d="M94.9493 1826.02L116.31 1836.2L95.0736 1850.04L94.9493 1826.02Z" fill="#E41968"/>
<path d="M94.9493 1780.75L116.31 1790.93L95.0736 1804.77L94.9493 1780.75Z" fill="#E41968"/>
<path d="M94.946 1735.48L116.306 1745.66L95.0702 1759.5L94.946 1735.48Z" fill="#E41968"/>
<path d="M94.9427 1690.21L116.303 1700.39L95.0669 1714.22L94.9427 1690.21Z" fill="#E41968"/>
<path d="M94.936 1644.94L116.296 1655.12L95.0602 1668.95L94.936 1644.94Z" fill="#E41968"/>
<path d="M94.9427 1599.67L116.303 1609.85L95.0669 1623.69L94.9427 1599.67Z" fill="#E41968"/>
<path d="M94.9393 1554.4L116.3 1564.58L95.0636 1578.41L94.9393 1554.4Z" fill="#E41968"/>
<path d="M94.9527 1509.13L116.313 1519.31L95.0769 1533.15L94.9527 1509.13Z" fill="#E41968"/>
<path d="M94.9393 1463.86L116.3 1474.04L95.0636 1487.88L94.9393 1463.86Z" fill="#E41968"/>
<path d="M94.9293 1418.59L116.29 1428.77L95.0535 1442.61L94.9293 1418.59Z" fill="#E41968"/>
<path d="M94.9427 1373.31L116.303 1383.49L95.0669 1397.33L94.9427 1373.31Z" fill="#E41968"/>
<path d="M94.936 1328.05L116.296 1338.23L95.0602 1352.07L94.936 1328.05Z" fill="#E41968"/>
<path d="M94.9226 1282.77L116.283 1292.96L95.0468 1306.79L94.9226 1282.77Z" fill="#E41968"/>
<path d="M94.9293 1237.51L116.29 1247.69L95.0535 1261.52L94.9293 1237.51Z" fill="#E41968"/>
<path d="M94.9293 1192.23L116.29 1202.41L95.0535 1216.25L94.9293 1192.23Z" fill="#E41968"/>
<path d="M94.9259 1146.96L116.286 1157.14L95.0502 1170.98L94.9259 1146.96Z" fill="#E41968"/>
<path d="M94.9259 1101.69L116.286 1111.88L95.0502 1125.71L94.9259 1101.69Z" fill="#E41968"/>
<path d="M94.9126 1056.42L116.273 1066.6L95.0368 1080.44L94.9126 1056.42Z" fill="#E41968"/>
<path d="M94.9159 1011.15L116.276 1021.33L95.0402 1035.17L94.9159 1011.15Z" fill="#E41968"/>
<path d="M94.9159 965.88L116.276 976.062L95.0402 989.898L94.9159 965.88Z" fill="#E41968"/>
<path d="M94.9193 920.609L116.28 930.791L95.0435 944.627L94.9193 920.609Z" fill="#E41968"/>
<path d="M94.9126 875.344L116.273 885.526L95.0368 899.362L94.9126 875.344Z" fill="#E41968"/>
<path d="M94.9092 830.073L116.27 840.255L95.0335 854.091L94.9092 830.073Z" fill="#E41968"/>
<path d="M94.9059 784.804L116.266 794.986L95.0301 808.822L94.9059 784.804Z" fill="#E41968"/>
<path d="M94.9059 739.528L116.266 749.71L95.0301 763.546L94.9059 739.528Z" fill="#E41968"/>
<path d="M94.9126 694.253L116.273 704.435L95.0368 718.271L94.9126 694.253Z" fill="#E41968"/>
<path d="M94.9026 648.99L116.263 659.172L95.0268 673.009L94.9026 648.99Z" fill="#E41968"/>
<path d="M94.8959 603.721L116.256 613.903L95.0201 627.739L94.8959 603.721Z" fill="#E41968"/>
<path d="M94.9026 558.455L116.263 568.637L95.0268 582.473L94.9026 558.455Z" fill="#E41968"/>
<path d="M94.8925 513.175L116.253 523.357L95.0168 537.194L94.8925 513.175Z" fill="#E41968"/>
<path d="M94.9059 467.906L116.266 478.088L95.0301 491.924L94.9059 467.906Z" fill="#E41968"/>
<path d="M94.9059 422.637L116.266 432.819L95.0301 446.655L94.9059 422.637Z" fill="#E41968"/>
<path d="M94.8858 377.364L116.246 387.546L95.0101 401.382L94.8858 377.364Z" fill="#E41968"/>
<path d="M94.8925 332.095L116.253 342.276L95.0168 356.113L94.8925 332.095Z" fill="#E41968"/>
<path d="M94.8925 286.825L116.253 297.007L95.0168 310.843L94.8925 286.825Z" fill="#E41968"/>
<path d="M94.8959 241.559L116.256 251.741L95.0201 265.577L94.8959 241.559Z" fill="#E41968"/>
<path d="M94.8892 196.286L116.249 206.468L95.0134 220.304L94.8892 196.286Z" fill="#E41968"/>
<path d="M94.8825 151.017L116.243 161.199L95.0067 175.035L94.8825 151.017Z" fill="#E41968"/>
<path d="M94.8792 105.741L116.239 115.923L95.0034 129.759L94.8792 105.741Z" fill="#E41968"/>
<path d="M94.8725 60.4661L116.233 70.6481L94.9967 84.4843L94.8725 60.4661Z" fill="#E41968"/>
<path d="M142.226 1845.79L162.033 1855.16L142.341 1867.98L142.226 1845.79Z" fill="#E41968"/>
<path d="M142.23 1800.51L162.036 1809.89L142.344 1822.65L142.23 1800.51Z" fill="#E41968"/>
<path d="M142.216 1755.24L162.023 1764.62L142.331 1777.38L142.216 1755.24Z" fill="#E41968"/>
<path d="M142.216 1709.98L162.023 1719.35L142.331 1732.11L142.216 1709.98Z" fill="#E41968"/>
<path d="M142.213 1664.71L162.02 1674.08L142.328 1686.84L142.213 1664.71Z" fill="#E41968"/>
<path d="M142.219 1619.43L162.026 1628.8L142.334 1641.62L142.219 1619.43Z" fill="#E41968"/>
<path d="M142.22 1574.16L162.026 1583.53L142.334 1596.29L142.22 1574.16Z" fill="#E41968"/>
<path d="M142.213 1528.9L162.02 1538.27L142.328 1551.03L142.213 1528.9Z" fill="#E41968"/>
<path d="M142.206 1483.62L162.013 1492.99L142.321 1505.75L142.206 1483.62Z" fill="#E41968"/>
<path d="M142.213 1438.34L162.02 1447.71L142.328 1460.47L142.213 1438.34Z" fill="#E41968"/>
<path d="M142.209 1393.08L162.016 1402.45L142.324 1415.28L142.209 1393.08Z" fill="#E41968"/>
<path d="M142.203 1347.81L162.009 1357.19L142.317 1369.95L142.203 1347.81Z" fill="#E41968"/>
<path d="M142.196 1302.54L162.003 1311.91L142.311 1324.67L142.196 1302.54Z" fill="#E41968"/>
<path d="M142.193 1257.28L161.999 1266.65L142.307 1279.41L142.193 1257.28Z" fill="#E41968"/>
<path d="M142.2 1212L162.006 1221.37L142.314 1234.13L142.2 1212Z" fill="#E41968"/>
<path d="M142.189 1166.73L161.996 1176.1L142.304 1188.92L142.189 1166.73Z" fill="#E41968"/>
<path d="M142.18 1121.46L161.986 1130.83L142.294 1143.59L142.18 1121.46Z" fill="#E41968"/>
<path d="M142.186 1076.18L161.993 1085.56L142.301 1098.32L142.186 1076.18Z" fill="#E41968"/>
<path d="M142.18 1030.92L161.986 1040.29L142.294 1053.05L142.18 1030.92Z" fill="#E41968"/>
<path d="M142.19 985.643L161.996 995.015L142.304 1007.78L142.19 985.643Z" fill="#E41968"/>
<path d="M142.176 940.38L161.982 949.751L142.291 962.574L142.176 940.38Z" fill="#E41968"/>
<path d="M142.19 895.106L161.996 904.478L142.304 917.238L142.19 895.106Z" fill="#E41968"/>
<path d="M142.18 849.837L161.986 859.208L142.294 871.969L142.18 849.837Z" fill="#E41968"/>
<path d="M142.18 804.572L161.986 813.944L142.294 826.704L142.18 804.572Z" fill="#E41968"/>
<path d="M142.18 759.296L161.986 768.668L142.294 781.428L142.18 759.296Z" fill="#E41968"/>
<path d="M142.176 714.022L161.982 723.394L142.291 736.217L142.176 714.022Z" fill="#E41968"/>
<path d="M142.183 668.754L161.989 678.126L142.297 690.886L142.183 668.754Z" fill="#E41968"/>
<path d="M142.17 623.479L161.976 632.851L142.284 645.611L142.17 623.479Z" fill="#E41968"/>
<path d="M142.163 578.215L161.969 587.587L142.277 600.347L142.163 578.215Z" fill="#E41968"/>
<path d="M142.17 532.941L161.976 542.312L142.284 555.073L142.17 532.941Z" fill="#E41968"/>
<path d="M142.166 487.677L161.972 497.049L142.281 509.872L142.166 487.677Z" fill="#E41968"/>
<path d="M142.166 442.403L161.973 451.775L142.281 464.535L142.166 442.403Z" fill="#E41968"/>
<path d="M142.166 397.132L161.973 406.504L142.281 419.264L142.166 397.132Z" fill="#E41968"/>
<path d="M142.163 351.858L161.969 361.229L142.277 373.99L142.163 351.858Z" fill="#E41968"/>
<path d="M142.17 306.593L161.976 315.965L142.284 328.725L142.17 306.593Z" fill="#E41968"/>
<path d="M142.146 261.32L161.952 270.692L142.261 283.515L142.146 261.32Z" fill="#E41968"/>
<path d="M142.156 216.051L161.963 225.423L142.271 238.183L142.156 216.051Z" fill="#E41968"/>
<path d="M142.15 170.777L161.956 180.149L142.264 192.909L142.15 170.777Z" fill="#E41968"/>
<path d="M142.143 125.511L161.949 134.882L142.257 147.643L142.143 125.511Z" fill="#E41968"/>
<path d="M142.146 80.2363L161.953 89.6081L142.261 102.368L142.146 80.2363Z" fill="#E41968"/>
<path d="M142.146 34.966L161.952 44.3377L142.261 57.1608L142.146 34.966Z" fill="#E41968"/>
<path d="M189.574 1865.54L207.633 1874.12L189.678 1885.79L189.574 1865.54Z" fill="#E41968"/>
<path d="M189.567 1820.28L207.626 1828.86L189.672 1840.52L189.567 1820.28Z" fill="#E41968"/>
<path d="M189.557 1775.01L207.616 1783.58L189.662 1795.25L189.557 1775.01Z" fill="#E41968"/>
<path d="M189.554 1729.73L207.613 1738.31L189.658 1749.98L189.554 1729.73Z" fill="#E41968"/>
<path d="M189.547 1684.46L207.606 1693.03L189.652 1704.7L189.547 1684.46Z" fill="#E41968"/>
<path d="M189.554 1639.19L207.613 1647.77L189.658 1659.44L189.554 1639.19Z" fill="#E41968"/>
<path d="M189.544 1593.92L207.603 1602.5L189.648 1614.17L189.544 1593.92Z" fill="#E41968"/>
<path d="M189.544 1548.65L207.603 1557.23L189.648 1568.9L189.544 1548.65Z" fill="#E41968"/>
<path d="M189.547 1503.38L207.606 1511.96L189.652 1523.63L189.547 1503.38Z" fill="#E41968"/>
<path d="M189.547 1458.11L207.606 1466.69L189.652 1478.36L189.547 1458.11Z" fill="#E41968"/>
<path d="M189.547 1412.84L207.606 1421.42L189.652 1433.09L189.547 1412.84Z" fill="#E41968"/>
<path d="M189.54 1367.56L207.599 1376.14L189.645 1387.81L189.54 1367.56Z" fill="#E41968"/>
<path d="M189.54 1322.3L207.599 1330.88L189.645 1342.54L189.54 1322.3Z" fill="#E41968"/>
<path d="M189.547 1277.03L207.606 1285.61L189.652 1297.27L189.547 1277.03Z" fill="#E41968"/>
<path d="M189.53 1231.76L207.589 1240.33L189.635 1252L189.53 1231.76Z" fill="#E41968"/>
<path d="M189.537 1186.49L207.596 1195.07L189.642 1206.73L189.537 1186.49Z" fill="#E41968"/>
<path d="M189.537 1141.21L207.596 1149.79L189.642 1161.46L189.537 1141.21Z" fill="#E41968"/>
<path d="M189.527 1095.95L207.586 1104.52L189.632 1116.19L189.527 1095.95Z" fill="#E41968"/>
<path d="M189.534 1050.68L207.593 1059.26L189.638 1070.93L189.534 1050.68Z" fill="#E41968"/>
<path d="M189.527 1005.41L207.586 1013.99L189.632 1025.65L189.527 1005.41Z" fill="#E41968"/>
<path d="M189.513 960.135L207.573 968.714L189.618 980.381L189.513 960.135Z" fill="#E41968"/>
<path d="M189.52 914.859L207.579 923.437L189.625 935.105L189.52 914.859Z" fill="#E41968"/>
<path d="M189.507 869.59L207.566 878.168L189.612 889.836L189.507 869.59Z" fill="#E41968"/>
<path d="M189.524 824.326L207.583 832.904L189.628 844.571L189.524 824.326Z" fill="#E41968"/>
<path d="M189.51 779.053L207.569 787.631L189.615 799.298L189.51 779.053Z" fill="#E41968"/>
<path d="M189.503 733.782L207.562 742.36L189.608 754.027L189.503 733.782Z" fill="#E41968"/>
<path d="M189.513 688.512L207.573 697.09L189.618 708.758L189.513 688.512Z" fill="#E41968"/>
<path d="M189.507 643.241L207.566 651.819L189.612 663.487L189.507 643.241Z" fill="#E41968"/>
<path d="M189.507 597.978L207.566 606.557L189.612 618.224L189.507 597.978Z" fill="#E41968"/>
<path d="M189.493 552.709L207.552 561.287L189.598 572.955L189.493 552.709Z" fill="#E41968"/>
<path d="M189.493 507.433L207.552 516.011L189.598 527.679L189.493 507.433Z" fill="#E41968"/>
<path d="M189.49 462.16L207.549 470.738L189.595 482.406L189.49 462.16Z" fill="#E41968"/>
<path d="M189.49 416.887L207.549 425.465L189.595 437.133L189.49 416.887Z" fill="#E41968"/>
<path d="M189.497 371.623L207.556 380.201L189.602 391.869L189.497 371.623Z" fill="#E41968"/>
<path d="M189.493 326.352L207.552 334.93L189.598 346.598L189.493 326.352Z" fill="#E41968"/>
<path d="M189.487 281.079L207.546 289.657L189.591 301.325L189.487 281.079Z" fill="#E41968"/>
<path d="M189.5 235.806L207.559 244.384L189.605 256.052L189.5 235.806Z" fill="#E41968"/>
<path d="M189.49 190.539L207.549 199.117L189.595 210.784L189.49 190.539Z" fill="#E41968"/>
<path d="M189.49 145.269L207.549 153.847L189.595 165.515L189.49 145.269Z" fill="#E41968"/>
<path d="M189.49 100.005L207.549 108.583L189.595 120.25L189.49 100.005Z" fill="#E41968"/>
<path d="M189.483 54.7303L207.542 63.3084L189.588 74.9759L189.483 54.7303Z" fill="#E41968"/>
<path d="M236.887 1930.52L253.328 1938.35L236.982 1949L236.887 1930.52Z" fill="#E41968"/>
<path d="M236.9 1885.25L253.341 1893.08L236.996 1903.73L236.9 1885.25Z" fill="#E41968"/>
<path d="M236.883 1839.98L253.324 1847.81L236.979 1858.46L236.883 1839.98Z" fill="#E41968"/>
<path d="M236.89 1794.7L253.331 1802.53L236.986 1813.18L236.89 1794.7Z" fill="#E41968"/>
<path d="M236.883 1749.43L253.324 1757.27L236.979 1767.92L236.883 1749.43Z" fill="#E41968"/>
<path d="M236.877 1704.16L253.318 1712L236.972 1722.65L236.877 1704.16Z" fill="#E41968"/>
<path d="M236.877 1658.89L253.318 1666.72L236.972 1677.37L236.877 1658.89Z" fill="#E41968"/>
<path d="M236.87 1613.62L253.311 1621.46L236.966 1632.11L236.87 1613.62Z" fill="#E41968"/>
<path d="M236.86 1568.35L253.301 1576.19L236.956 1586.84L236.86 1568.35Z" fill="#E41968"/>
<path d="M236.867 1523.08L253.308 1530.91L236.962 1541.56L236.867 1523.08Z" fill="#E41968"/>
<path d="M236.867 1477.81L253.308 1485.64L236.962 1496.29L236.867 1477.81Z" fill="#E41968"/>
<path d="M236.877 1432.54L253.318 1440.37L236.972 1451.02L236.877 1432.54Z" fill="#E41968"/>
<path d="M236.87 1387.26L253.311 1395.1L236.966 1405.75L236.87 1387.26Z" fill="#E41968"/>
<path d="M236.87 1342L253.311 1349.83L236.966 1360.48L236.87 1342Z" fill="#E41968"/>
<path d="M236.867 1296.73L253.308 1304.56L236.962 1315.21L236.867 1296.73Z" fill="#E41968"/>
<path d="M236.863 1251.46L253.304 1259.29L236.959 1269.94L236.863 1251.46Z" fill="#E41968"/>
<path d="M236.86 1206.18L253.301 1214.02L236.956 1224.67L236.86 1206.18Z" fill="#E41968"/>
<path d="M236.86 1160.9L253.301 1168.74L236.956 1179.39L236.86 1160.9Z" fill="#E41968"/>
<path d="M236.86 1115.64L253.301 1123.47L236.956 1134.12L236.86 1115.64Z" fill="#E41968"/>
<path d="M236.85 1070.38L253.291 1078.21L236.946 1088.86L236.85 1070.38Z" fill="#E41968"/>
<path d="M236.843 1025.1L253.284 1032.94L236.939 1043.59L236.843 1025.1Z" fill="#E41968"/>
<path d="M236.85 979.832L253.291 987.668L236.946 998.317L236.85 979.832Z" fill="#E41968"/>
<path d="M236.847 934.566L253.288 942.402L236.942 953.051L236.847 934.566Z" fill="#E41968"/>
<path d="M236.837 889.291L253.278 897.128L236.932 907.776L236.837 889.291Z" fill="#E41968"/>
<path d="M236.853 844.022L253.294 851.858L236.949 862.507L236.853 844.022Z" fill="#E41968"/>
<path d="M236.833 798.756L253.274 806.592L236.929 817.241L236.833 798.756Z" fill="#E41968"/>
<path d="M236.84 753.476L253.281 761.313L236.936 771.962L236.84 753.476Z" fill="#E41968"/>
<path d="M236.833 708.207L253.274 716.043L236.929 726.692L236.833 708.207Z" fill="#E41968"/>
<path d="M236.843 662.941L253.284 670.777L236.939 681.426L236.843 662.941Z" fill="#E41968"/>
<path d="M236.837 617.673L253.278 625.509L236.932 636.158L236.837 617.673Z" fill="#E41968"/>
<path d="M236.83 572.395L253.271 580.232L236.926 590.88L236.83 572.395Z" fill="#E41968"/>
<path d="M236.833 527.126L253.274 534.962L236.929 545.611L236.833 527.126Z" fill="#E41968"/>
<path d="M236.833 481.861L253.274 489.698L236.929 500.347L236.833 481.861Z" fill="#E41968"/>
<path d="M236.823 436.592L253.264 444.428L236.919 455.077L236.823 436.592Z" fill="#E41968"/>
<path d="M236.827 391.318L253.268 399.154L236.922 409.803L236.827 391.318Z" fill="#E41968"/>
<path d="M236.82 346.052L253.261 353.888L236.916 364.537L236.82 346.052Z" fill="#E41968"/>
<path d="M236.82 300.772L253.261 308.608L236.916 319.257L236.82 300.772Z" fill="#E41968"/>
<path d="M236.823 255.503L253.264 263.339L236.919 273.988L236.823 255.503Z" fill="#E41968"/>
<path d="M236.817 210.233L253.258 218.069L236.912 228.718L236.817 210.233Z" fill="#E41968"/>
<path d="M236.817 164.969L253.258 172.805L236.912 183.454L236.817 164.969Z" fill="#E41968"/>
<path d="M236.813 119.696L253.254 127.532L236.909 138.181L236.813 119.696Z" fill="#E41968"/>
<path d="M236.82 74.4215L253.261 82.2578L236.916 92.9068L236.82 74.4215Z" fill="#E41968"/>
<path d="M236.8 29.1571L253.241 36.9934L236.896 47.6424L236.8 29.1571Z" fill="#E41968"/>
<path d="M284.225 1905.07L298.982 1912.04L284.31 1921.54L284.225 1905.07Z" fill="#E41968"/>
<path d="M284.238 1859.8L298.996 1866.77L284.323 1876.27L284.238 1859.8Z" fill="#E41968"/>
<path d="M284.221 1814.52L298.979 1821.5L284.307 1831L284.221 1814.52Z" fill="#E41968"/>
<path d="M284.215 1769.25L298.972 1776.22L284.3 1785.72L284.215 1769.25Z" fill="#E41968"/>
<path d="M284.215 1723.98L298.972 1730.95L284.3 1740.45L284.215 1723.98Z" fill="#E41968"/>
<path d="M284.218 1678.72L298.976 1685.69L284.303 1695.19L284.218 1678.72Z" fill="#E41968"/>
<path d="M284.225 1633.44L298.982 1640.41L284.31 1649.91L284.225 1633.44Z" fill="#E41968"/>
<path d="M284.225 1588.17L298.982 1595.14L284.31 1604.64L284.225 1588.17Z" fill="#E41968"/>
<path d="M284.215 1542.9L298.972 1549.87L284.3 1559.37L284.215 1542.9Z" fill="#E41968"/>
<path d="M284.205 1497.63L298.962 1504.61L284.29 1514.11L284.205 1497.63Z" fill="#E41968"/>
<path d="M284.198 1452.36L298.956 1459.34L284.283 1468.83L284.198 1452.36Z" fill="#E41968"/>
<path d="M284.201 1407.08L298.959 1414.06L284.287 1423.56L284.201 1407.08Z" fill="#E41968"/>
<path d="M284.195 1361.82L298.952 1368.79L284.28 1378.29L284.195 1361.82Z" fill="#E41968"/>
<path d="M284.195 1316.55L298.952 1323.52L284.28 1333.02L284.195 1316.55Z" fill="#E41968"/>
<path d="M284.198 1271.28L298.956 1278.25L284.283 1287.75L284.198 1271.28Z" fill="#E41968"/>
<path d="M284.198 1226.01L298.956 1232.98L284.283 1242.48L284.198 1226.01Z" fill="#E41968"/>
<path d="M284.201 1180.74L298.959 1187.71L284.287 1197.21L284.201 1180.74Z" fill="#E41968"/>
<path d="M284.201 1135.47L298.959 1142.44L284.287 1151.94L284.201 1135.47Z" fill="#E41968"/>
<path d="M284.185 1090.19L298.942 1097.17L284.27 1106.67L284.185 1090.19Z" fill="#E41968"/>
<path d="M284.188 1044.92L298.946 1051.9L284.273 1061.4L284.188 1044.92Z" fill="#E41968"/>
<path d="M284.181 999.654L298.939 1006.63L284.266 1016.13L284.181 999.654Z" fill="#E41968"/>
<path d="M284.181 954.388L298.939 961.362L284.266 970.861L284.181 954.388Z" fill="#E41968"/>
<path d="M284.178 909.11L298.936 916.084L284.263 925.583L284.178 909.11Z" fill="#E41968"/>
<path d="M284.178 863.841L298.936 870.815L284.263 880.314L284.178 863.841Z" fill="#E41968"/>
<path d="M284.185 818.573L298.942 825.547L284.27 835.046L284.185 818.573Z" fill="#E41968"/>
<path d="M284.181 773.307L298.939 780.281L284.266 789.78L284.181 773.307Z" fill="#E41968"/>
<path d="M284.175 728.034L298.932 735.008L284.26 744.507L284.175 728.034Z" fill="#E41968"/>
<path d="M284.171 682.76L298.929 689.734L284.256 699.233L284.171 682.76Z" fill="#E41968"/>
<path d="M284.161 637.49L298.919 644.464L284.246 653.963L284.161 637.49Z" fill="#E41968"/>
<path d="M284.168 592.216L298.926 599.19L284.253 608.689L284.168 592.216Z" fill="#E41968"/>
<path d="M284.175 546.953L298.932 553.927L284.26 563.426L284.175 546.953Z" fill="#E41968"/>
<path d="M284.158 501.684L298.916 508.658L284.243 518.157L284.158 501.684Z" fill="#E41968"/>
<path d="M284.158 456.409L298.916 463.383L284.243 472.882L284.158 456.409Z" fill="#E41968"/>
<path d="M284.151 411.136L298.909 418.111L284.236 427.61L284.151 411.136Z" fill="#E41968"/>
<path d="M284.148 365.869L298.906 372.843L284.233 382.342L284.148 365.869Z" fill="#E41968"/>
<path d="M284.155 320.594L298.912 327.568L284.24 337.067L284.155 320.594Z" fill="#E41968"/>
<path d="M284.145 275.325L298.902 282.299L284.23 291.798L284.145 275.325Z" fill="#E41968"/>
<path d="M284.148 230.055L298.906 237.03L284.233 246.529L284.148 230.055Z" fill="#E41968"/>
<path d="M284.148 184.784L298.906 191.758L284.233 201.257L284.148 184.784Z" fill="#E41968"/>
<path d="M284.134 139.511L298.892 146.486L284.22 155.985L284.134 139.511Z" fill="#E41968"/>
<path d="M284.145 94.2488L298.902 101.223L284.23 110.722L284.145 94.2488Z" fill="#E41968"/>
<path d="M284.138 48.9793L298.896 55.9535L284.223 65.4525L284.138 48.9793Z" fill="#E41968"/>
<path d="M331.44 1924.65L344.774 1930.99L331.517 1939.61L331.44 1924.65Z" fill="#E41968"/>
<path d="M331.43 1879.38L344.764 1885.72L331.507 1894.34L331.43 1879.38Z" fill="#E41968"/>
<path d="M331.436 1834.11L344.77 1840.45L331.514 1849.07L331.436 1834.11Z" fill="#E41968"/>
<path d="M331.426 1788.83L344.76 1795.18L331.504 1803.8L331.426 1788.83Z" fill="#E41968"/>
<path d="M331.416 1743.56L344.75 1749.9L331.494 1758.52L331.416 1743.56Z" fill="#E41968"/>
<path d="M331.43 1698.29L344.764 1704.63L331.507 1713.26L331.43 1698.29Z" fill="#E41968"/>
<path d="M331.416 1653.03L344.75 1659.37L331.494 1667.99L331.416 1653.03Z" fill="#E41968"/>
<path d="M331.413 1607.76L344.747 1614.1L331.49 1622.72L331.413 1607.76Z" fill="#E41968"/>
<path d="M331.406 1562.48L344.74 1568.83L331.484 1577.45L331.406 1562.48Z" fill="#E41968"/>
<path d="M331.416 1517.21L344.75 1523.55L331.494 1532.17L331.416 1517.21Z" fill="#E41968"/>
<path d="M331.41 1471.94L344.743 1478.28L331.487 1486.91L331.41 1471.94Z" fill="#E41968"/>
<path d="M331.4 1426.67L344.733 1433.01L331.477 1441.64L331.4 1426.67Z" fill="#E41968"/>
<path d="M331.403 1381.4L344.737 1387.74L331.48 1396.37L331.403 1381.4Z" fill="#E41968"/>
<path d="M331.396 1336.14L344.73 1342.48L331.474 1351.1L331.396 1336.14Z" fill="#E41968"/>
<path d="M331.39 1290.86L344.723 1297.2L331.467 1305.82L331.39 1290.86Z" fill="#E41968"/>
<path d="M331.386 1245.59L344.72 1251.93L331.464 1260.55L331.386 1245.59Z" fill="#E41968"/>
<path d="M331.386 1200.32L344.72 1206.66L331.464 1215.28L331.386 1200.32Z" fill="#E41968"/>
<path d="M331.393 1155.05L344.727 1161.39L331.47 1170.01L331.393 1155.05Z" fill="#E41968"/>
<path d="M331.39 1109.78L344.723 1116.12L331.467 1124.74L331.39 1109.78Z" fill="#E41968"/>
<path d="M331.39 1064.51L344.723 1070.85L331.467 1079.47L331.39 1064.51Z" fill="#E41968"/>
<path d="M331.39 1019.23L344.723 1025.57L331.467 1034.2L331.39 1019.23Z" fill="#E41968"/>
<path d="M331.376 973.96L344.71 980.302L331.454 988.924L331.376 973.96Z" fill="#E41968"/>
<path d="M331.4 928.694L344.733 935.036L331.477 943.658L331.4 928.694Z" fill="#E41968"/>
<path d="M331.376 883.421L344.71 889.763L331.454 898.385L331.376 883.421Z" fill="#E41968"/>
<path d="M331.373 838.154L344.707 844.495L331.45 853.118L331.373 838.154Z" fill="#E41968"/>
<path d="M331.379 792.884L344.713 799.226L331.457 807.848L331.379 792.884Z" fill="#E41968"/>
<path d="M331.379 747.61L344.713 753.951L331.457 762.574L331.379 747.61Z" fill="#E41968"/>
<path d="M331.376 702.345L344.71 708.687L331.454 717.309L331.376 702.345Z" fill="#E41968"/>
<path d="M331.383 657.076L344.717 663.417L331.46 672.04L331.383 657.076Z" fill="#E41968"/>
<path d="M331.376 611.803L344.71 618.145L331.454 626.767L331.376 611.803Z" fill="#E41968"/>
<path d="M331.373 566.529L344.707 572.87L331.45 581.493L331.373 566.529Z" fill="#E41968"/>
<path d="M331.369 521.264L344.703 527.606L331.447 536.228L331.369 521.264Z" fill="#E41968"/>
<path d="M331.369 475.99L344.703 482.331L331.447 490.954L331.369 475.99Z" fill="#E41968"/>
<path d="M331.366 430.719L344.7 437.06L331.444 445.683L331.366 430.719Z" fill="#E41968"/>
<path d="M331.359 385.454L344.693 391.796L331.437 400.418L331.359 385.454Z" fill="#E41968"/>
<path d="M331.356 340.181L344.69 346.523L331.434 355.146L331.356 340.181Z" fill="#E41968"/>
<path d="M331.356 294.907L344.69 301.249L331.434 309.871L331.356 294.907Z" fill="#E41968"/>
<path d="M331.356 249.638L344.69 255.979L331.434 264.602L331.356 249.638Z" fill="#E41968"/>
<path d="M331.359 204.373L344.693 210.715L331.437 219.337L331.359 204.373Z" fill="#E41968"/>
<path d="M331.353 159.1L344.687 165.442L331.43 174.065L331.353 159.1Z" fill="#E41968"/>
<path d="M331.349 113.824L344.683 120.166L331.427 128.788L331.349 113.824Z" fill="#E41968"/>
<path d="M331.346 68.5598L344.68 74.9014L331.423 83.5241L331.346 68.5598Z" fill="#E41968"/>
<path d="M331.346 23.2854L344.68 29.6269L331.423 38.2496L331.346 23.2854Z" fill="#E41968"/>
<path d="M379.024 1899.43L390.093 1904.71L379.089 1911.88L379.024 1899.43Z" fill="#E41968"/>
<path d="M379.024 1854.16L390.093 1859.44L379.089 1866.61L379.024 1854.16Z" fill="#E41968"/>
<path d="M379.004 1808.88L390.073 1814.16L379.068 1821.33L379.004 1808.88Z" fill="#E41968"/>
<path d="M379.027 1763.62L390.096 1768.9L379.092 1776.07L379.027 1763.62Z" fill="#E41968"/>
<path d="M379.014 1718.35L390.083 1723.63L379.079 1730.8L379.014 1718.35Z" fill="#E41968"/>
<path d="M379.014 1673.07L390.083 1678.35L379.079 1685.52L379.014 1673.07Z" fill="#E41968"/>
<path d="M379.007 1627.8L390.076 1633.08L379.072 1640.25L379.007 1627.8Z" fill="#E41968"/>
<path d="M379.001 1582.54L390.069 1587.81L379.065 1594.99L379.001 1582.54Z" fill="#E41968"/>
<path d="M379.014 1537.26L390.083 1542.54L379.079 1549.71L379.014 1537.26Z" fill="#E41968"/>
<path d="M379.004 1491.99L390.073 1497.27L379.068 1504.44L379.004 1491.99Z" fill="#E41968"/>
<path d="M379.004 1446.72L390.073 1452L379.068 1459.17L379.004 1446.72Z" fill="#E41968"/>
<path d="M378.997 1401.45L390.066 1406.73L379.062 1413.9L378.997 1401.45Z" fill="#E41968"/>
<path d="M379.001 1356.18L390.069 1361.46L379.065 1368.63L379.001 1356.18Z" fill="#E41968"/>
<path d="M379.001 1310.91L390.069 1316.19L379.065 1323.36L379.001 1310.91Z" fill="#E41968"/>
<path d="M378.994 1265.65L390.063 1270.92L379.058 1278.09L378.994 1265.65Z" fill="#E41968"/>
<path d="M378.981 1220.37L390.049 1225.65L379.045 1232.82L378.981 1220.37Z" fill="#E41968"/>
<path d="M378.994 1175.09L390.063 1180.37L379.058 1187.54L378.994 1175.09Z" fill="#E41968"/>
<path d="M378.984 1129.83L390.053 1135.11L379.048 1142.28L378.984 1129.83Z" fill="#E41968"/>
<path d="M378.991 1084.56L390.059 1089.84L379.055 1097.01L378.991 1084.56Z" fill="#E41968"/>
<path d="M378.984 1039.29L390.053 1044.57L379.048 1051.74L378.984 1039.29Z" fill="#E41968"/>
<path d="M378.981 994.019L390.049 999.297L379.045 1006.47L378.981 994.019Z" fill="#E41968"/>
<path d="M378.967 948.748L390.036 954.026L379.032 961.197L378.967 948.748Z" fill="#E41968"/>
<path d="M378.967 903.475L390.036 908.753L379.032 915.924L378.967 903.475Z" fill="#E41968"/>
<path d="M378.977 858.207L390.046 863.485L379.042 870.656L378.977 858.207Z" fill="#E41968"/>
<path d="M378.967 812.941L390.036 818.219L379.032 825.39L378.967 812.941Z" fill="#E41968"/>
<path d="M378.961 767.667L390.029 772.945L379.025 780.116L378.961 767.667Z" fill="#E41968"/>
<path d="M378.971 722.391L390.039 727.668L379.035 734.84L378.971 722.391Z" fill="#E41968"/>
<path d="M378.957 677.123L390.026 682.401L379.022 689.572L378.957 677.123Z" fill="#E41968"/>
<path d="M378.964 631.848L390.033 637.126L379.028 644.298L378.964 631.848Z" fill="#E41968"/>
<path d="M378.967 586.584L390.036 591.862L379.032 599.033L378.967 586.584Z" fill="#E41968"/>
<path d="M378.954 541.31L390.023 546.587L379.018 553.759L378.954 541.31Z" fill="#E41968"/>
<path d="M378.961 496.037L390.029 501.315L379.025 508.486L378.961 496.037Z" fill="#E41968"/>
<path d="M378.951 450.772L390.019 456.05L379.015 463.222L378.951 450.772Z" fill="#E41968"/>
<path d="M378.964 405.505L390.033 410.782L379.028 417.954L378.964 405.505Z" fill="#E41968"/>
<path d="M378.947 360.233L390.016 365.511L379.012 372.683L378.947 360.233Z" fill="#E41968"/>
<path d="M378.944 314.964L390.013 320.242L379.008 327.413L378.944 314.964Z" fill="#E41968"/>
<path d="M378.957 269.689L390.026 274.967L379.022 282.139L378.957 269.689Z" fill="#E41968"/>
<path d="M378.951 224.42L390.019 229.698L379.015 236.869L378.951 224.42Z" fill="#E41968"/>
<path d="M378.947 179.154L390.016 184.432L379.012 191.603L378.947 179.154Z" fill="#E41968"/>
<path d="M378.947 133.885L390.016 139.163L379.012 146.334L378.947 133.885Z" fill="#E41968"/>
<path d="M378.941 88.6118L390.009 93.8895L379.005 101.061L378.941 88.6118Z" fill="#E41968"/>
<path d="M426.216 1919.08L435.861 1923.66L426.272 1929.89L426.216 1919.08Z" fill="#E41968"/>
<path d="M426.223 1873.8L435.867 1878.39L426.279 1884.62L426.223 1873.8Z" fill="#E41968"/>
<path d="M426.22 1828.54L435.864 1833.12L426.276 1839.35L426.22 1828.54Z" fill="#E41968"/>
<path d="M426.22 1783.26L435.864 1787.84L426.276 1794.07L426.22 1783.26Z" fill="#E41968"/>
<path d="M426.213 1737.99L435.857 1742.57L426.269 1748.81L426.213 1737.99Z" fill="#E41968"/>
<path d="M426.21 1692.73L435.854 1697.31L426.266 1703.54L426.21 1692.73Z" fill="#E41968"/>
<path d="M426.21 1647.45L435.854 1652.03L426.266 1658.26L426.21 1647.45Z" fill="#E41968"/>
<path d="M426.206 1602.18L435.851 1606.76L426.262 1613L426.206 1602.18Z" fill="#E41968"/>
<path d="M426.22 1556.91L435.864 1561.49L426.276 1567.72L426.22 1556.91Z" fill="#E41968"/>
<path d="M426.203 1511.63L435.847 1516.22L426.259 1522.45L426.203 1511.63Z" fill="#E41968"/>
<path d="M426.2 1466.37L435.844 1470.95L426.256 1477.18L426.2 1466.37Z" fill="#E41968"/>
<path d="M426.2 1421.09L435.844 1425.68L426.256 1431.91L426.2 1421.09Z" fill="#E41968"/>
<path d="M426.193 1375.83L435.837 1380.41L426.249 1386.64L426.193 1375.83Z" fill="#E41968"/>
<path d="M426.19 1330.56L435.834 1335.14L426.246 1341.37L426.19 1330.56Z" fill="#E41968"/>
<path d="M426.196 1285.28L435.841 1289.87L426.252 1296.1L426.196 1285.28Z" fill="#E41968"/>
<path d="M426.196 1240.01L435.841 1244.59L426.252 1250.83L426.196 1240.01Z" fill="#E41968"/>
<path d="M426.2 1194.75L435.844 1199.33L426.256 1205.56L426.2 1194.75Z" fill="#E41968"/>
<path d="M426.193 1149.48L435.837 1154.06L426.249 1160.29L426.193 1149.48Z" fill="#E41968"/>
<path d="M426.2 1104.2L435.844 1108.79L426.256 1115.02L426.2 1104.2Z" fill="#E41968"/>
<path d="M426.196 1058.93L435.841 1063.51L426.252 1069.74L426.196 1058.93Z" fill="#E41968"/>
<path d="M426.186 1013.66L435.831 1018.25L426.242 1024.48L426.186 1013.66Z" fill="#E41968"/>
<path d="M426.186 968.392L435.831 972.974L426.242 979.206L426.186 968.392Z" fill="#E41968"/>
<path d="M426.183 923.121L435.827 927.703L426.239 933.935L426.183 923.121Z" fill="#E41968"/>
<path d="M426.183 877.851L435.827 882.434L426.239 888.666L426.183 877.851Z" fill="#E41968"/>
<path d="M426.183 832.584L435.827 837.166L426.239 843.398L426.183 832.584Z" fill="#E41968"/>
<path d="M426.18 787.309L435.824 791.891L426.236 798.124L426.18 787.309Z" fill="#E41968"/>
<path d="M426.173 742.038L435.817 746.62L426.229 752.853L426.173 742.038Z" fill="#E41968"/>
<path d="M426.18 696.772L435.824 701.354L426.236 707.587L426.18 696.772Z" fill="#E41968"/>
<path d="M426.183 651.498L435.827 656.08L426.239 662.312L426.183 651.498Z" fill="#E41968"/>
<path d="M426.173 606.235L435.817 610.817L426.229 617.049L426.173 606.235Z" fill="#E41968"/>
<path d="M426.166 560.96L435.811 565.543L426.222 571.775L426.166 560.96Z" fill="#E41968"/>
<path d="M426.17 515.689L435.814 520.272L426.225 526.504L426.17 515.689Z" fill="#E41968"/>
<path d="M426.163 470.417L435.807 474.999L426.219 481.231L426.163 470.417Z" fill="#E41968"/>
<path d="M426.153 425.144L435.797 429.726L426.209 435.958L426.153 425.144Z" fill="#E41968"/>
<path d="M426.16 379.879L435.804 384.462L426.215 390.694L426.16 379.879Z" fill="#E41968"/>
<path d="M426.16 334.605L435.804 339.187L426.215 345.419L426.16 334.605Z" fill="#E41968"/>
<path d="M426.156 289.336L435.801 293.918L426.212 300.15L426.156 289.336Z" fill="#E41968"/>
<path d="M426.156 244.065L435.801 248.647L426.212 254.879L426.156 244.065Z" fill="#E41968"/>
<path d="M426.146 198.795L435.791 203.377L426.202 209.609L426.146 198.795Z" fill="#E41968"/>
<path d="M426.143 153.521L435.787 158.103L426.199 164.335L426.143 153.521Z" fill="#E41968"/>
<path d="M426.143 108.246L435.787 112.828L426.199 119.061L426.143 108.246Z" fill="#E41968"/>
<path d="M426.156 62.9817L435.801 67.5641L426.212 73.7962L426.156 62.9817Z" fill="#E41968"/>
<path d="M473.62 1893.55L481.517 1897.34L473.667 1902.48L473.62 1893.55Z" fill="#E41968"/>
<path d="M473.61 1848.28L481.507 1852.07L473.657 1857.21L473.61 1848.28Z" fill="#E41968"/>
<path d="M473.624 1803.02L481.521 1806.81L473.67 1811.95L473.624 1803.02Z" fill="#E41968"/>
<path d="M473.614 1757.74L481.511 1761.53L473.66 1766.67L473.614 1757.74Z" fill="#E41968"/>
<path d="M473.6 1712.47L481.497 1716.26L473.647 1721.4L473.6 1712.47Z" fill="#E41968"/>
<path d="M473.61 1667.21L481.507 1671L473.657 1676.14L473.61 1667.21Z" fill="#E41968"/>
<path d="M473.604 1621.93L481.501 1625.72L473.65 1630.86L473.604 1621.93Z" fill="#E41968"/>
<path d="M473.61 1576.66L481.507 1580.45L473.657 1585.59L473.61 1576.66Z" fill="#E41968"/>
<path d="M473.607 1531.39L481.504 1535.18L473.653 1540.32L473.607 1531.39Z" fill="#E41968"/>
<path d="M473.594 1486.12L481.491 1489.91L473.64 1495.05L473.594 1486.12Z" fill="#E41968"/>
<path d="M473.587 1440.85L481.484 1444.64L473.633 1449.78L473.587 1440.85Z" fill="#E41968"/>
<path d="M473.594 1395.58L481.491 1399.37L473.64 1404.51L473.594 1395.58Z" fill="#E41968"/>
<path d="M473.594 1350.32L481.491 1354.11L473.64 1359.25L473.594 1350.32Z" fill="#E41968"/>
<path d="M473.59 1305.04L481.487 1308.83L473.636 1313.97L473.59 1305.04Z" fill="#E41968"/>
<path d="M473.584 1259.77L481.481 1263.56L473.63 1268.7L473.584 1259.77Z" fill="#E41968"/>
<path d="M473.59 1214.5L481.487 1218.29L473.636 1223.43L473.59 1214.5Z" fill="#E41968"/>
<path d="M473.587 1169.23L481.484 1173.02L473.633 1178.16L473.587 1169.23Z" fill="#E41968"/>
<path d="M473.574 1123.96L481.471 1127.75L473.62 1132.89L473.574 1123.96Z" fill="#E41968"/>
<path d="M473.594 1078.69L481.491 1082.47L473.64 1087.61L473.594 1078.69Z" fill="#E41968"/>
<path d="M473.584 1033.41L481.481 1037.2L473.63 1042.34L473.584 1033.41Z" fill="#E41968"/>
<path d="M473.584 988.145L481.481 991.934L473.63 997.074L473.584 988.145Z" fill="#E41968"/>
<path d="M473.574 942.878L481.471 946.666L473.62 951.806L473.574 942.878Z" fill="#E41968"/>
<path d="M473.577 897.608L481.474 901.397L473.623 906.536L473.577 897.608Z" fill="#E41968"/>
<path d="M473.577 852.337L481.474 856.126L473.623 861.265L473.577 852.337Z" fill="#E41968"/>
<path d="M473.57 807.063L481.467 810.851L473.616 815.991L473.57 807.063Z" fill="#E41968"/>
<path d="M473.58 761.795L481.477 765.584L473.626 770.723L473.58 761.795Z" fill="#E41968"/>
<path d="M473.574 716.529L481.471 720.318L473.62 725.457L473.574 716.529Z" fill="#E41968"/>
<path d="M473.574 671.259L481.471 675.048L473.62 680.188L473.574 671.259Z" fill="#E41968"/>
<path d="M473.577 625.982L481.474 629.77L473.623 634.91L473.577 625.982Z" fill="#E41968"/>
<path d="M473.57 580.712L481.467 584.501L473.616 589.64L473.57 580.712Z" fill="#E41968"/>
<path d="M473.57 535.438L481.467 539.226L473.616 544.366L473.57 535.438Z" fill="#E41968"/>
<path d="M473.557 490.173L481.454 493.962L473.603 499.102L473.557 490.173Z" fill="#E41968"/>
<path d="M473.55 444.906L481.447 448.694L473.596 453.834L473.55 444.906Z" fill="#E41968"/>
<path d="M473.557 399.634L481.454 403.423L473.603 408.563L473.557 399.634Z" fill="#E41968"/>
<path d="M473.547 354.36L481.444 358.149L473.593 363.288L473.547 354.36Z" fill="#E41968"/>
<path d="M473.554 309.089L481.451 312.877L473.6 318.017L473.554 309.089Z" fill="#E41968"/>
<path d="M473.544 263.816L481.44 267.605L473.59 272.744L473.544 263.816Z" fill="#E41968"/>
<path d="M473.53 218.554L481.427 222.342L473.576 227.482L473.53 218.554Z" fill="#E41968"/>
<path d="M473.544 173.277L481.44 177.066L473.59 182.206L473.544 173.277Z" fill="#E41968"/>
<path d="M473.53 128.008L481.427 131.797L473.576 136.936L473.53 128.008Z" fill="#E41968"/>
<path d="M473.53 82.7333L481.427 86.5219L473.576 91.6617L473.53 82.7333Z" fill="#E41968"/>
<path d="M520.829 1913.21L527.302 1916.3L520.867 1920.5L520.829 1913.21Z" fill="#E41968"/>
<path d="M520.823 1867.93L527.296 1871.03L520.86 1875.23L520.823 1867.93Z" fill="#E41968"/>
<path d="M520.823 1822.66L527.296 1825.75L520.86 1829.95L520.823 1822.66Z" fill="#E41968"/>
<path d="M520.826 1777.39L527.299 1780.48L520.864 1784.68L520.826 1777.39Z" fill="#E41968"/>
<path d="M520.826 1732.12L527.299 1735.21L520.864 1739.41L520.826 1732.12Z" fill="#E41968"/>
<path d="M520.809 1686.85L527.282 1689.94L520.847 1694.14L520.809 1686.85Z" fill="#E41968"/>
<path d="M520.813 1641.58L527.285 1644.67L520.85 1648.87L520.813 1641.58Z" fill="#E41968"/>
<path d="M520.806 1596.3L527.279 1599.4L520.844 1603.6L520.806 1596.3Z" fill="#E41968"/>
<path d="M520.813 1551.04L527.285 1554.13L520.85 1558.33L520.813 1551.04Z" fill="#E41968"/>
<path d="M520.803 1505.76L527.275 1508.86L520.84 1513.06L520.803 1505.76Z" fill="#E41968"/>
<path d="M520.816 1460.5L527.289 1463.59L520.854 1467.79L520.816 1460.5Z" fill="#E41968"/>
<path d="M520.816 1415.23L527.289 1418.32L520.854 1422.52L520.816 1415.23Z" fill="#E41968"/>
<path d="M520.799 1369.96L527.272 1373.05L520.837 1377.25L520.799 1369.96Z" fill="#E41968"/>
<path d="M520.806 1324.68L527.279 1327.78L520.844 1331.98L520.806 1324.68Z" fill="#E41968"/>
<path d="M520.799 1279.41L527.272 1282.5L520.837 1286.7L520.799 1279.41Z" fill="#E41968"/>
<path d="M520.793 1234.14L527.265 1237.24L520.83 1241.44L520.793 1234.14Z" fill="#E41968"/>
<path d="M520.803 1188.87L527.275 1191.97L520.84 1196.17L520.803 1188.87Z" fill="#E41968"/>
<path d="M520.793 1143.6L527.265 1146.69L520.83 1150.89L520.793 1143.6Z" fill="#E41968"/>
<path d="M520.789 1098.34L527.262 1101.43L520.827 1105.63L520.789 1098.34Z" fill="#E41968"/>
<path d="M520.789 1053.06L527.262 1056.15L520.827 1060.35L520.789 1053.06Z" fill="#E41968"/>
<path d="M520.789 1007.79L527.262 1010.89L520.827 1015.09L520.789 1007.79Z" fill="#E41968"/>
<path d="M520.779 962.527L527.252 965.62L520.817 969.82L520.779 962.527Z" fill="#E41968"/>
<path d="M520.779 917.254L527.252 920.347L520.817 924.548L520.779 917.254Z" fill="#E41968"/>
<path d="M520.776 871.978L527.249 875.071L520.814 879.272L520.776 871.978Z" fill="#E41968"/>
<path d="M520.766 826.709L527.239 829.802L520.804 834.002L520.766 826.709Z" fill="#E41968"/>
<path d="M520.783 781.444L527.255 784.537L520.82 788.738L520.783 781.444Z" fill="#E41968"/>
<path d="M520.769 736.171L527.242 739.265L520.807 743.465L520.769 736.171Z" fill="#E41968"/>
<path d="M520.769 690.897L527.242 693.99L520.807 698.19L520.769 690.897Z" fill="#E41968"/>
<path d="M520.769 645.633L527.242 648.726L520.807 652.926L520.769 645.633Z" fill="#E41968"/>
<path d="M520.772 600.358L527.245 603.451L520.81 607.652L520.772 600.358Z" fill="#E41968"/>
<path d="M520.772 555.089L527.245 558.182L520.81 562.382L520.772 555.089Z" fill="#E41968"/>
<path d="M520.772 509.824L527.245 512.917L520.81 517.118L520.772 509.824Z" fill="#E41968"/>
<path d="M520.762 464.54L527.235 467.633L520.8 471.833L520.762 464.54Z" fill="#E41968"/>
<path d="M520.762 419.275L527.235 422.368L520.8 426.569L520.762 419.275Z" fill="#E41968"/>
<path d="M520.762 374.001L527.235 377.094L520.8 381.294L520.762 374.001Z" fill="#E41968"/>
<path d="M520.749 328.732L527.222 331.825L520.787 336.025L520.749 328.732Z" fill="#E41968"/>
<path d="M520.756 283.465L527.229 286.559L520.793 290.759L520.756 283.465Z" fill="#E41968"/>
<path d="M520.756 238.193L527.229 241.286L520.793 245.486L520.756 238.193Z" fill="#E41968"/>
<path d="M520.746 192.923L527.219 196.016L520.783 200.217L520.746 192.923Z" fill="#E41968"/>
<path d="M520.746 147.645L527.219 150.739L520.783 154.939L520.746 147.645Z" fill="#E41968"/>
<path d="M520.739 102.384L527.212 105.477L520.777 109.678L520.739 102.384Z" fill="#E41968"/>
<path d="M568.218 1887.81L572.814 1890L568.245 1892.97L568.218 1887.81Z" fill="#E41968"/>
<path d="M568.231 1842.55L572.827 1844.73L568.258 1847.7L568.231 1842.55Z" fill="#E41968"/>
<path d="M568.211 1797.27L572.807 1799.45L568.238 1802.42L568.211 1797.27Z" fill="#E41968"/>
<path d="M568.208 1752L572.804 1754.18L568.235 1757.16L568.208 1752Z" fill="#E41968"/>
<path d="M568.215 1706.73L572.81 1708.92L568.241 1711.89L568.215 1706.73Z" fill="#E41968"/>
<path d="M568.208 1661.46L572.804 1663.64L568.235 1666.61L568.208 1661.46Z" fill="#E41968"/>
<path d="M568.205 1616.19L572.8 1618.38L568.231 1621.35L568.205 1616.19Z" fill="#E41968"/>
<path d="M568.218 1570.92L572.814 1573.1L568.245 1576.07L568.218 1570.92Z" fill="#E41968"/>
<path d="M568.201 1525.65L572.797 1527.84L568.228 1530.81L568.201 1525.65Z" fill="#E41968"/>
<path d="M568.198 1480.38L572.794 1482.56L568.225 1485.53L568.198 1480.38Z" fill="#E41968"/>
<path d="M568.211 1435.11L572.807 1437.29L568.238 1440.26L568.211 1435.11Z" fill="#E41968"/>
<path d="M568.211 1389.83L572.807 1392.02L568.238 1394.99L568.211 1389.83Z" fill="#E41968"/>
<path d="M568.201 1344.57L572.797 1346.75L568.228 1349.72L568.201 1344.57Z" fill="#E41968"/>
<path d="M568.201 1299.3L572.797 1301.48L568.228 1304.45L568.201 1299.3Z" fill="#E41968"/>
<path d="M568.201 1254.03L572.797 1256.21L568.228 1259.18L568.201 1254.03Z" fill="#E41968"/>
<path d="M568.191 1208.75L572.787 1210.93L568.218 1213.9L568.191 1208.75Z" fill="#E41968"/>
<path d="M568.185 1163.48L572.78 1165.67L568.211 1168.64L568.185 1163.48Z" fill="#E41968"/>
<path d="M568.191 1118.21L572.787 1120.4L568.218 1123.37L568.191 1118.21Z" fill="#E41968"/>
<path d="M568.178 1072.94L572.774 1075.12L568.205 1078.1L568.178 1072.94Z" fill="#E41968"/>
<path d="M568.185 1027.67L572.78 1029.86L568.211 1032.83L568.185 1027.67Z" fill="#E41968"/>
<path d="M568.181 982.399L572.777 984.584L568.208 987.555L568.181 982.399Z" fill="#E41968"/>
<path d="M568.175 937.125L572.77 939.31L568.201 942.281L568.175 937.125Z" fill="#E41968"/>
<path d="M568.175 891.857L572.77 894.042L568.201 897.013L568.175 891.857Z" fill="#E41968"/>
<path d="M568.171 846.591L572.767 848.776L568.198 851.747L568.171 846.591Z" fill="#E41968"/>
<path d="M568.178 801.322L572.774 803.506L568.205 806.478L568.178 801.322Z" fill="#E41968"/>
<path d="M568.171 756.049L572.767 758.234L568.198 761.205L568.171 756.049Z" fill="#E41968"/>
<path d="M568.168 710.783L572.764 712.968L568.195 715.939L568.168 710.783Z" fill="#E41968"/>
<path d="M568.175 665.51L572.77 667.695L568.201 670.666L568.175 665.51Z" fill="#E41968"/>
<path d="M568.164 620.242L572.76 622.427L568.191 625.398L568.164 620.242Z" fill="#E41968"/>
<path d="M568.161 574.968L572.757 577.153L568.188 580.124L568.161 574.968Z" fill="#E41968"/>
<path d="M568.161 529.697L572.757 531.882L568.188 534.853L568.161 529.697Z" fill="#E41968"/>
<path d="M568.154 484.427L572.75 486.612L568.181 489.583L568.154 484.427Z" fill="#E41968"/>
<path d="M568.151 439.158L572.747 441.343L568.178 444.314L568.151 439.158Z" fill="#E41968"/>
<path d="M568.158 393.888L572.754 396.073L568.184 399.044L568.158 393.888Z" fill="#E41968"/>
<path d="M568.158 348.619L572.754 350.804L568.184 353.775L568.158 348.619Z" fill="#E41968"/>
<path d="M568.154 303.345L572.75 305.529L568.181 308.5L568.154 303.345Z" fill="#E41968"/>
<path d="M568.154 258.07L572.75 260.255L568.181 263.226L568.154 258.07Z" fill="#E41968"/>
<path d="M568.161 212.806L572.757 214.991L568.188 217.962L568.161 212.806Z" fill="#E41968"/>
<path d="M568.148 167.532L572.744 169.716L568.174 172.687L568.148 167.532Z" fill="#E41968"/>
<path d="M615.355 1907.34L618.657 1908.94L615.375 1911.11L615.355 1907.34Z" fill="#E41968"/>
<path d="M615.375 1862.06L618.677 1863.67L615.395 1865.83L615.375 1862.06Z" fill="#E41968"/>
<path d="M615.365 1816.79L618.667 1818.4L615.385 1820.57L615.365 1816.79Z" fill="#E41968"/>
<path d="M615.355 1771.52L618.657 1773.12L615.375 1775.29L615.355 1771.52Z" fill="#E41968"/>
<path d="M615.362 1726.25L618.663 1727.85L615.382 1730.02L615.362 1726.25Z" fill="#E41968"/>
<path d="M615.345 1680.98L618.647 1682.58L615.365 1684.75L615.345 1680.98Z" fill="#E41968"/>
<path d="M615.345 1635.71L618.647 1637.31L615.365 1639.48L615.345 1635.71Z" fill="#E41968"/>
<path d="M615.352 1590.44L618.653 1592.04L615.372 1594.21L615.352 1590.44Z" fill="#E41968"/>
<path d="M615.342 1545.17L618.643 1546.78L615.362 1548.95L615.342 1545.17Z" fill="#E41968"/>
<path d="M615.349 1499.9L618.65 1501.5L615.368 1503.67L615.349 1499.9Z" fill="#E41968"/>
<path d="M615.355 1454.63L618.657 1456.23L615.375 1458.4L615.355 1454.63Z" fill="#E41968"/>
<path d="M615.345 1409.36L618.647 1410.96L615.365 1413.13L615.345 1409.36Z" fill="#E41968"/>
<path d="M615.335 1364.09L618.637 1365.7L615.355 1367.86L615.335 1364.09Z" fill="#E41968"/>
<path d="M615.335 1318.82L618.637 1320.42L615.355 1322.59L615.335 1318.82Z" fill="#E41968"/>
<path d="M615.339 1273.55L618.64 1275.15L615.358 1277.32L615.339 1273.55Z" fill="#E41968"/>
<path d="M615.332 1228.28L618.633 1229.88L615.352 1232.05L615.332 1228.28Z" fill="#E41968"/>
<path d="M615.335 1183.01L618.637 1184.61L615.355 1186.78L615.335 1183.01Z" fill="#E41968"/>
<path d="M615.322 1137.73L618.623 1139.34L615.341 1141.51L615.322 1137.73Z" fill="#E41968"/>
<path d="M615.329 1092.47L618.63 1094.07L615.348 1096.24L615.329 1092.47Z" fill="#E41968"/>
<path d="M615.332 1047.2L618.633 1048.8L615.352 1050.97L615.332 1047.2Z" fill="#E41968"/>
<path d="M615.319 1001.92L618.62 1003.53L615.338 1005.69L615.319 1001.92Z" fill="#E41968"/>
<path d="M615.315 956.657L618.617 958.261L615.335 960.429L615.315 956.657Z" fill="#E41968"/>
<path d="M615.312 911.381L618.613 912.985L615.331 915.153L615.312 911.381Z" fill="#E41968"/>
<path d="M615.312 866.111L618.613 867.715L615.331 869.884L615.312 866.111Z" fill="#E41968"/>
<path d="M615.319 820.839L618.62 822.443L615.338 824.611L615.319 820.839Z" fill="#E41968"/>
<path d="M615.309 775.573L618.61 777.176L615.328 779.345L615.309 775.573Z" fill="#E41968"/>
<path d="M615.309 730.3L618.61 731.904L615.328 734.072L615.309 730.3Z" fill="#E41968"/>
<path d="M615.315 685.03L618.617 686.634L615.335 688.803L615.315 685.03Z" fill="#E41968"/>
<path d="M615.312 639.766L618.613 641.37L615.331 643.538L615.312 639.766Z" fill="#E41968"/>
<path d="M615.289 594.492L618.59 596.095L615.308 598.264L615.289 594.492Z" fill="#E41968"/>
<path d="M615.305 549.224L618.607 550.828L615.325 552.996L615.305 549.224Z" fill="#E41968"/>
<path d="M615.292 503.949L618.593 505.553L615.311 507.722L615.292 503.949Z" fill="#E41968"/>
<path d="M615.292 458.678L618.593 460.282L615.311 462.451L615.292 458.678Z" fill="#E41968"/>
<path d="M615.299 413.409L618.6 415.013L615.318 417.181L615.299 413.409Z" fill="#E41968"/>
<path d="M615.295 368.134L618.597 369.738L615.315 371.907L615.295 368.134Z" fill="#E41968"/>
<path d="M615.289 322.87L618.59 324.474L615.308 326.642L615.289 322.87Z" fill="#E41968"/>
<path d="M615.289 277.6L618.59 279.204L615.308 281.373L615.289 277.6Z" fill="#E41968"/>
<path d="M615.299 232.323L618.6 233.927L615.318 236.095L615.299 232.323Z" fill="#E41968"/>
<path d="M662.564 1881.71L664.442 1882.62L662.575 1883.85L662.564 1881.71Z" fill="#E41968"/>
<path d="M662.564 1836.44L664.442 1837.35L662.575 1838.58L662.564 1836.44Z" fill="#E41968"/>
<path d="M662.554 1791.17L664.432 1792.07L662.565 1793.3L662.554 1791.17Z" fill="#E41968"/>
<path d="M662.561 1745.9L664.438 1746.8L662.572 1748.03L662.561 1745.9Z" fill="#E41968"/>
<path d="M662.561 1700.62L664.438 1701.53L662.572 1702.76L662.561 1700.62Z" fill="#E41968"/>
<path d="M662.541 1655.36L664.418 1656.27L662.552 1657.5L662.541 1655.36Z" fill="#E41968"/>
<path d="M662.548 1610.08L664.425 1610.99L662.559 1612.22L662.548 1610.08Z" fill="#E41968"/>
<path d="M662.548 1564.81L664.425 1565.72L662.559 1566.95L662.548 1564.81Z" fill="#E41968"/>
<path d="M662.551 1519.54L664.428 1520.45L662.562 1521.68L662.551 1519.54Z" fill="#E41968"/>
<path d="M662.544 1474.28L664.422 1475.18L662.555 1476.41L662.544 1474.28Z" fill="#E41968"/>
<path d="M662.551 1429L664.428 1429.91L662.562 1431.14L662.551 1429Z" fill="#E41968"/>
<path d="M662.548 1383.74L664.425 1384.64L662.559 1385.87L662.548 1383.74Z" fill="#E41968"/>
<path d="M662.541 1338.47L664.418 1339.38L662.552 1340.6L662.541 1338.47Z" fill="#E41968"/>
<path d="M662.534 1293.19L664.411 1294.1L662.545 1295.32L662.534 1293.19Z" fill="#E41968"/>
<path d="M662.538 1247.92L664.415 1248.83L662.549 1250.06L662.538 1247.92Z" fill="#E41968"/>
<path d="M662.528 1202.64L664.405 1203.55L662.539 1204.78L662.528 1202.64Z" fill="#E41968"/>
<path d="M662.528 1157.38L664.405 1158.29L662.539 1159.52L662.528 1157.38Z" fill="#E41968"/>
<path d="M662.524 1112.11L664.401 1113.02L662.535 1114.25L662.524 1112.11Z" fill="#E41968"/>
<path d="M662.524 1066.84L664.401 1067.74L662.535 1068.97L662.524 1066.84Z" fill="#E41968"/>
<path d="M662.531 1021.57L664.408 1022.48L662.542 1023.71L662.531 1021.57Z" fill="#E41968"/>
<path d="M662.521 976.298L664.398 977.206L662.532 978.436L662.521 976.298Z" fill="#E41968"/>
<path d="M662.528 931.027L664.405 931.935L662.539 933.164L662.528 931.027Z" fill="#E41968"/>
<path d="M662.521 885.762L664.398 886.671L662.532 887.9L662.521 885.762Z" fill="#E41968"/>
<path d="M662.518 840.49L664.395 841.398L662.529 842.627L662.518 840.49Z" fill="#E41968"/>
<path d="M662.524 795.215L664.401 796.123L662.535 797.353L662.524 795.215Z" fill="#E41968"/>
<path d="M662.514 749.941L664.391 750.849L662.525 752.078L662.514 749.941Z" fill="#E41968"/>
<path d="M662.511 704.676L664.388 705.585L662.522 706.814L662.511 704.676Z" fill="#E41968"/>
<path d="M662.518 659.407L664.395 660.315L662.529 661.545L662.518 659.407Z" fill="#E41968"/>
<path d="M662.521 614.132L664.398 615.041L662.532 616.27L662.521 614.132Z" fill="#E41968"/>
<path d="M662.514 568.868L664.391 569.776L662.525 571.006L662.514 568.868Z" fill="#E41968"/>
<path d="M662.514 523.594L664.391 524.502L662.525 525.731L662.514 523.594Z" fill="#E41968"/>
<path d="M662.511 478.322L664.388 479.231L662.522 480.46L662.511 478.322Z" fill="#E41968"/>
<path d="M662.504 433.058L664.381 433.966L662.515 435.196L662.504 433.058Z" fill="#E41968"/>
<path d="M662.504 387.784L664.381 388.692L662.515 389.921L662.504 387.784Z" fill="#E41968"/>
<path d="M662.491 342.513L664.368 343.421L662.502 344.65L662.491 342.513Z" fill="#E41968"/>
<path d="M662.491 297.241L664.368 298.15L662.502 299.379L662.491 297.241Z" fill="#E41968"/>
<path d="M662.497 251.977L664.375 252.885L662.508 254.115L662.497 251.977Z" fill="#E41968"/>
<path d="M709.763 1901.36L710.28 1901.57L709.766 1901.86L709.763 1901.36Z" fill="#E41968"/>
<path d="M709.753 1856.09L710.269 1856.29L709.756 1856.59L709.753 1856.09Z" fill="#E41968"/>
<path d="M709.753 1810.81L710.269 1811.02L709.756 1811.31L709.753 1810.81Z" fill="#E41968"/>
<path d="M709.76 1765.55L710.276 1765.76L709.762 1766.05L709.76 1765.55Z" fill="#E41968"/>
<path d="M709.757 1720.28L710.273 1720.48L709.759 1720.78L709.757 1720.28Z" fill="#E41968"/>
<path d="M709.75 1675.01L710.266 1675.21L709.752 1675.51L709.75 1675.01Z" fill="#E41968"/>
<path d="M709.75 1629.73L710.266 1629.94L709.752 1630.24L709.75 1629.73Z" fill="#E41968"/>
<path d="M709.753 1584.47L710.269 1584.67L709.756 1584.97L709.753 1584.47Z" fill="#E41968"/>
<path d="M709.75 1539.19L710.266 1539.4L709.752 1539.69L709.75 1539.19Z" fill="#E41968"/>
<path d="M709.757 1493.92L710.273 1494.12L709.759 1494.42L709.757 1493.92Z" fill="#E41968"/>
<path d="M709.747 1448.65L710.263 1448.86L709.749 1449.15L709.747 1448.65Z" fill="#E41968"/>
<path d="M709.74 1403.38L710.256 1403.58L709.742 1403.88L709.74 1403.38Z" fill="#E41968"/>
<path d="M709.747 1358.11L710.263 1358.32L709.749 1358.61L709.747 1358.11Z" fill="#E41968"/>
<path d="M709.736 1312.84L710.253 1313.04L709.739 1313.34L709.736 1312.84Z" fill="#E41968"/>
<path d="M709.736 1267.56L710.253 1267.77L709.739 1268.06L709.736 1267.56Z" fill="#E41968"/>
<path d="M709.733 1222.3L710.249 1222.5L709.736 1222.8L709.733 1222.3Z" fill="#E41968"/>
<path d="M709.733 1177.02L710.249 1177.23L709.736 1177.52L709.733 1177.02Z" fill="#E41968"/>
<path d="M709.73 1131.76L710.246 1131.97L709.732 1132.26L709.73 1131.76Z" fill="#E41968"/>
<path d="M709.726 1086.49L710.243 1086.7L709.729 1086.99L709.726 1086.49Z" fill="#E41968"/>
<path d="M709.713 1041.22L710.229 1041.42L709.716 1041.72L709.713 1041.22Z" fill="#E41968"/>
<path d="M709.726 995.949L710.243 996.155L709.729 996.45L709.726 995.949Z" fill="#E41968"/>
<path d="M709.723 950.676L710.239 950.883L709.726 951.177L709.723 950.676Z" fill="#E41968"/>
<path d="M709.723 905.404L710.239 905.61L709.726 905.905L709.723 905.404Z" fill="#E41968"/>
<path d="M709.716 860.133L710.233 860.339L709.719 860.634L709.716 860.133Z" fill="#E41968"/>
<path d="M709.72 814.858L710.236 815.064L709.722 815.359L709.72 814.858Z" fill="#E41968"/>
<path d="M709.72 769.594L710.236 769.8L709.722 770.095L709.72 769.594Z" fill="#E41968"/>
<path d="M709.71 724.324L710.226 724.531L709.712 724.825L709.71 724.324Z" fill="#E41968"/>
<path d="M709.706 679.06L710.223 679.266L709.709 679.561L709.706 679.06Z" fill="#E41968"/>
<path d="M709.713 633.785L710.229 633.992L709.716 634.286L709.713 633.785Z" fill="#E41968"/>
<path d="M709.713 588.511L710.229 588.717L709.716 589.012L709.713 588.511Z" fill="#E41968"/>
<path d="M709.703 543.242L710.219 543.448L709.706 543.743L709.703 543.242Z" fill="#E41968"/>
<path d="M709.703 497.977L710.219 498.183L709.706 498.478L709.703 497.977Z" fill="#E41968"/>
<path d="M709.696 452.703L710.213 452.909L709.699 453.204L709.696 452.703Z" fill="#E41968"/>
<path d="M709.693 407.428L710.209 407.635L709.696 407.929L709.693 407.428Z" fill="#E41968"/>
<path d="M709.7 362.154L710.216 362.36L709.702 362.655L709.7 362.154Z" fill="#E41968"/>
<path d="M709.7 316.889L710.216 317.096L709.702 317.39L709.7 316.889Z" fill="#E41968"/>
<path d="M709.686 271.62L710.203 271.826L709.689 272.121L709.686 271.62Z" fill="#E41968"/>
<path d="M709.693 181.081L710.209 181.287L709.696 181.582L709.693 181.081Z" fill="#E41968"/>
<path d="M709.696 135.808L710.213 136.015L709.699 136.309L709.696 135.808Z" fill="#E41968"/>
<path d="M709.683 90.5372L710.199 90.7435L709.686 91.0383L709.683 90.5372Z" fill="#E41968"/>
<path d="M709.673 45.2763L710.189 45.4827L709.676 45.7772L709.673 45.2763Z" fill="#E41968"/>
<path d="M709.68 0L710.196 0.20636L709.682 0.501088L709.68 0Z" fill="#E41968"/>
</svg>
