<svg width="140" height="33" viewBox="0 0 140 33" fill="none" xmlns="http://www.w3.org/2000/svg">
<path d="M39.4578 26.4183V7.37072H42.372V15.2945H42.8292C44.0101 13.9802 46.372 11.3517 49.9149 7.37072H53.7435C52.3149 8.95167 49.4577 12.0755 45.172 16.7421C46.6577 18.3612 49.6292 21.5802 54.0673 26.4183H50.1054C48.9054 25.066 46.4863 22.3802 42.8292 18.3421H42.372V26.4183H39.4578Z" fill="#F0EAE6"/>
<path d="M54.8482 26.4183C55.7435 23.2564 57.553 16.8945 60.2577 7.37072H65.4387C66.3339 10.5326 68.1435 16.8945 70.8482 26.4183H67.8196C67.6101 25.6755 67.1911 24.1707 66.5625 21.9231H59.0958C58.9054 22.666 58.4863 24.1707 57.8387 26.4183H54.8482ZM59.8768 19.2183H65.8577C65.4006 17.5421 64.4863 14.1898 63.0958 9.19929H62.6387C62.1625 10.8755 61.2482 14.2088 59.8768 19.2183Z" fill="#F0EAE6"/>
<path d="M72.7149 26.4183V7.37072H80.3339C82.8673 7.37072 84.8101 8.01834 86.1435 9.31358C87.5149 10.6088 88.1816 12.5517 88.1816 15.1231V18.685C88.1816 21.2945 87.4958 23.2183 86.1435 24.4945C84.7911 25.7707 82.8673 26.3993 80.3339 26.3993C78.6387 26.4183 76.1054 26.4183 72.7149 26.4183ZM75.6863 23.7707H80.353C81.9911 23.7707 83.2292 23.3517 84.0101 22.5136C84.8101 21.6564 85.2101 20.4183 85.2101 18.7612V15.0088C85.2101 13.3517 84.8101 12.1136 84.0101 11.2945C83.2101 10.4755 81.9911 10.0755 80.353 10.0755H75.6863V23.7707Z" fill="#F0EAE6"/>
<path d="M91.5149 26.4183V7.37072H103.496V10.0564H94.4482V15.5041H102.753V18.1898H94.4482V23.7707H103.629V26.4183C101.61 26.4183 97.572 26.4183 91.5149 26.4183Z" fill="#F0EAE6"/>
<path d="M106.696 26.4183V7.37072H112.353C113.21 10.2279 114.924 15.9231 117.496 24.4564H117.953V7.37072H120.848V26.4183H115.191C114.334 23.5612 112.62 17.866 110.048 9.31358H109.591V26.4183H106.696Z" fill="#F0EAE6"/>
<path d="M123.42 26.4183C124.315 23.2564 126.124 16.8945 128.829 7.37072H134.01C134.905 10.5326 136.715 16.8945 139.42 26.4183H136.391C136.182 25.6755 135.762 24.1707 135.134 21.9231H127.667C127.477 22.666 127.058 24.1707 126.41 26.4183H123.42ZM128.448 19.2183H134.429C133.972 17.5421 133.058 14.1898 131.667 9.19929H131.21C130.734 10.8755 129.82 14.2088 128.448 19.2183Z" fill="#F0EAE6"/>
<path d="M33.8006 32.8945H22.1816L22.0863 32.8183L7.70537 21.6183L13.5911 16.8945L33.7054 32.8183L33.8006 32.8945Z" fill="#4A9079"/>
<path d="M33.8006 0.894531H22.1816L22.0863 0.970722L7.70537 12.1707L13.5911 16.8945L33.7054 0.970722L33.8006 0.894531Z" fill="#4A9079"/>
<path d="M7.70537 21.6183V32.8945L7.61014 32.8183L0.600614 27.2945V27.2755L0.486328 27.1993V6.58977L0.600614 6.51358V6.49453L7.61014 0.970722L7.70537 0.894531V12.1707V21.6183Z" fill="#4A9079"/>
</svg>
